<svg width="48" height="48" viewBox="0 0 48 48" fill="none" xmlns="http://www.w3.org/2000/svg">
<path d="M18.2587 23.4279C17.4696 23.4305 16.6945 23.6362 16.008 24.0252C16.9746 21.5233 18.5777 19.3172 20.6587 17.6252C20.7777 17.5271 20.8763 17.4066 20.9488 17.2704C21.0213 17.1343 21.0662 16.9852 21.0811 16.8317C21.0959 16.6781 21.0804 16.5232 21.0354 16.3757C20.9904 16.2281 20.9167 16.0909 20.8187 15.9719C20.7206 15.8528 20.6001 15.7542 20.4639 15.6817C20.3278 15.6092 20.1787 15.5643 20.0251 15.5494C19.8716 15.5346 19.7167 15.5501 19.5691 15.5951C19.4216 15.6402 19.2844 15.7138 19.1653 15.8119C14.8987 19.2785 13 24.0785 13 27.0545C13.0074 28.1068 13.3209 29.1341 13.9024 30.0111C14.484 30.8881 15.3082 31.5769 16.2747 31.9932C16.9001 32.2962 17.5851 32.4565 18.28 32.4625C18.8917 32.4923 19.503 32.3974 20.077 32.1838C20.651 31.9702 21.1756 31.6423 21.619 31.2199C22.0624 30.7975 22.4154 30.2895 22.6567 29.7265C22.8979 29.1636 23.0222 28.5576 23.0222 27.9452C23.0222 27.3328 22.8979 26.7267 22.6567 26.1638C22.4154 25.6009 22.0624 25.0929 21.619 24.6705C21.1756 24.2481 20.651 23.9201 20.077 23.7065C19.503 23.4929 18.8917 23.3981 18.28 23.4279H18.2587Z" fill="#AA6CFF"/>
<path d="M30.1405 23.4278C29.3513 23.4295 28.576 23.6353 27.8898 24.0252C28.856 21.5259 30.4549 19.3206 32.5298 17.6252C32.6597 17.5316 32.769 17.4124 32.8511 17.2749C32.9332 17.1374 32.9863 16.9847 33.0071 16.8259C33.0279 16.6672 33.016 16.5059 32.9722 16.3519C32.9283 16.1979 32.8534 16.0546 32.7521 15.9306C32.6508 15.8067 32.5251 15.7048 32.3829 15.6312C32.2407 15.5577 32.085 15.514 31.9253 15.5028C31.7656 15.4917 31.6053 15.5134 31.4543 15.5665C31.3033 15.6197 31.1647 15.7031 31.0472 15.8118C26.7805 19.2785 24.8818 24.0785 24.8818 27.0545C24.8869 28.0948 25.1913 29.1117 25.7588 29.9837C26.3262 30.8557 27.1327 31.5459 28.0818 31.9718C28.7231 32.2837 29.4274 32.4443 30.1405 32.4412C30.7522 32.4709 31.3636 32.3761 31.9375 32.1625C32.5115 31.9489 33.0361 31.621 33.4795 31.1986C33.9229 30.7762 34.2759 30.2681 34.5172 29.7052C34.7584 29.1423 34.8827 28.5362 34.8827 27.9238C34.8827 27.3114 34.7584 26.7054 34.5172 26.1425C34.2759 25.5796 33.9229 25.0715 33.4795 24.6491C33.0361 24.2267 32.5115 23.8988 31.9375 23.6852C31.3636 23.4716 30.7522 23.3768 30.1405 23.4065V23.4278Z" fill="#AA6CFF"/>
<rect x="0.5" y="0.5" width="47" height="47" rx="4.5" stroke="#AA6CFF"/>
</svg>
