<svg width="49" height="49" viewBox="0 0 49 49" fill="none" xmlns="http://www.w3.org/2000/svg">
<path d="M29.7812 24.623C30.5702 24.6217 31.3457 24.4173 32.0329 24.0295C31.062 26.5297 29.4552 28.7331 27.3713 30.4216C27.252 30.5194 27.1532 30.6398 27.0805 30.7758C27.0078 30.9118 26.9626 31.0609 26.9475 31.2144C26.9324 31.3679 26.9476 31.5228 26.9924 31.6704C27.0372 31.818 27.1106 31.9554 27.2084 32.0746C27.3063 32.1939 27.4267 32.2926 27.5627 32.3654C27.6987 32.4381 27.8477 32.4833 28.0012 32.4984C28.1547 32.5135 28.3097 32.4983 28.4573 32.4535C28.6049 32.4087 28.7423 32.3353 28.8615 32.2374C33.1341 28.7781 35.041 23.9813 35.0461 21.0053C35.0405 19.9531 34.7287 18.9252 34.1487 18.0472C33.5687 17.1692 32.7455 16.4791 31.7798 16.0611C31.1549 15.757 30.4702 15.5955 29.7753 15.5883C29.1637 15.5575 28.5522 15.6513 27.9778 15.8639C27.4035 16.0765 26.8784 16.4036 26.4342 16.8252C25.9901 17.2469 25.6362 17.7543 25.394 18.3168C25.1518 18.8793 25.0264 19.4851 25.0253 20.0975C25.0243 20.7099 25.1476 21.3162 25.3879 21.8795C25.6281 22.4428 25.9803 22.9515 26.423 23.3746C26.8657 23.7978 27.3897 24.1266 27.9633 24.3412C28.5369 24.5558 29.1481 24.6517 29.7599 24.623L29.7812 24.623Z" fill="#AA6CFF"/>
<path d="M17.8994 24.6027C18.6886 24.6023 19.4643 24.3979 20.1511 24.0092C19.1807 26.5068 17.578 28.7094 15.5002 30.4012C15.3701 30.4946 15.2606 30.6137 15.1783 30.751C15.096 30.8883 15.0426 31.041 15.0215 31.1997C15.0004 31.3584 15.0121 31.5197 15.0556 31.6738C15.0992 31.8278 15.1739 31.9713 15.275 32.0954C15.3761 32.2195 15.5016 32.3216 15.6437 32.3954C15.7857 32.4692 15.9414 32.5132 16.1011 32.5246C16.2608 32.536 16.4211 32.5146 16.5722 32.4617C16.7233 32.4088 16.862 32.3256 16.9797 32.2171C21.2523 28.7577 23.1592 23.961 23.1643 20.985C23.161 19.9447 22.8583 18.9272 22.2924 18.0543C21.7264 17.1814 20.9211 16.4898 19.9727 16.0622C19.332 15.7493 18.6279 15.5875 17.9148 15.5894C17.3032 15.5586 16.6917 15.6523 16.1174 15.865C15.543 16.0776 15.0179 16.4046 14.5737 16.8263C14.1296 17.2479 13.7757 17.7553 13.5335 18.3178C13.2913 18.8803 13.1659 19.4862 13.1649 20.0986C13.1638 20.711 13.2872 21.3172 13.5274 21.8805C13.7677 22.4439 14.1198 22.9525 14.5625 23.3757C15.0052 23.7988 15.5293 24.1277 16.1029 24.3423C16.6765 24.5568 17.2877 24.6527 17.8994 24.624L17.8994 24.6027Z" fill="#AA6CFF"/>
<rect x="47.5009" y="47.5812" width="47" height="47" rx="4.5" transform="rotate(-179.902 47.5009 47.5812)" stroke="#AA6CFF"/>
</svg>
