<svg width="73" height="73" viewBox="0 0 73 73" fill="none" xmlns="http://www.w3.org/2000/svg">
<path d="M71 36.4879C71.0024 43.3119 68.981 49.9833 65.1916 55.6584C61.4021 61.3335 56.0148 65.7573 49.711 68.3704C43.4071 70.9834 36.4699 71.6684 29.7768 70.3385C23.0837 69.0087 16.9352 65.7239 12.1091 60.8994C7.28298 56.075 3.99598 49.9277 2.66381 43.2351C1.33164 36.5424 2.01414 29.605 4.625 23.3002C7.23587 16.9955 11.6578 11.6066 17.3316 7.81514C23.0054 4.0237 29.676 2 36.5 2C45.6479 2 54.4213 5.63315 60.8909 12.1005C67.3606 18.5679 70.9968 27.34 71 36.4879Z" stroke="#AA6CFF" stroke-width="3"/>
<path d="M21.9361 48.9551V25.1797C21.9361 24.3194 22.2782 23.4944 22.8872 22.8861C23.4962 22.2778 24.3222 21.936 25.1834 21.936H32.2178V25.1797H25.1834V48.9551H32.2178V52.1987H25.1834C24.3222 52.1987 23.4962 51.857 22.8872 51.2487C22.2782 50.6404 21.9361 49.8153 21.9361 48.9551ZM48.9857 21.936H41.917V25.1797H48.9514V48.9551H41.917V52.1987H48.9514C49.8127 52.1987 50.6386 51.857 51.2476 51.2487C51.8566 50.6404 52.1988 49.8153 52.1988 48.9551V25.1797C52.1988 24.3253 51.8614 23.5054 51.2598 22.8981C50.6582 22.2908 49.841 21.9451 48.9857 21.936ZM31.4039 37.0674C31.4039 35.9451 31.737 34.8481 32.3612 33.9149C32.9854 32.9818 33.8726 32.2545 34.9107 31.8251C35.9487 31.3956 37.0908 31.2832 38.1928 31.5022C39.2947 31.7211 40.3069 32.2615 41.1014 33.0551C41.8959 33.8486 42.4369 34.8597 42.6561 35.9604C42.8753 37.0611 42.7628 38.202 42.3328 39.2388C41.9029 40.2757 41.1747 41.1619 40.2406 41.7854C39.3064 42.4089 38.2081 42.7416 37.0845 42.7416C35.5779 42.7416 34.133 42.1438 33.0677 41.0797C32.0024 40.0156 31.4039 38.5723 31.4039 37.0674ZM34.6512 37.0674C34.6512 37.5481 34.7939 38.018 35.0613 38.4178C35.3287 38.8175 35.7087 39.129 36.1534 39.313C36.598 39.4969 37.0873 39.5451 37.5593 39.4513C38.0313 39.3575 38.4649 39.126 38.8052 38.7861C39.1455 38.4461 39.3772 38.0131 39.4711 37.5416C39.565 37.0701 39.5169 36.5814 39.3327 36.1372C39.1485 35.6931 38.8366 35.3135 38.4364 35.0464C38.0363 34.7793 37.5658 34.6368 37.0845 34.6368C36.4392 34.6368 35.8202 34.8929 35.3639 35.3487C34.9076 35.8045 34.6512 36.4227 34.6512 37.0674ZM37.0845 30.1008C37.2277 30.1008 37.365 30.044 37.4662 29.9429C37.5675 29.8418 37.6243 29.7046 37.6243 29.5616V27.2765C37.634 27.1994 37.6272 27.1211 37.6043 27.0469C37.5814 26.9726 37.543 26.9041 37.4915 26.8458C37.44 26.7876 37.3768 26.7409 37.3059 26.7089C37.235 26.677 37.1581 26.6604 37.0803 26.6604C37.0025 26.6604 36.9256 26.677 36.8547 26.7089C36.7838 26.7409 36.7205 26.7876 36.669 26.8458C36.6176 26.9041 36.5791 26.9726 36.5562 27.0469C36.5333 27.1211 36.5265 27.1994 36.5362 27.2765V29.5616C36.5384 29.7054 36.5972 29.8425 36.6998 29.9434C36.8024 30.0443 36.9406 30.1008 37.0845 30.1008ZM29.853 29.7071C29.802 29.7566 29.7614 29.8158 29.7337 29.8812C29.706 29.9466 29.6917 30.0169 29.6917 30.088C29.6917 30.159 29.706 30.2293 29.7337 30.2947C29.7614 30.3602 29.802 30.4193 29.853 30.4688L31.4724 32.0864C31.5227 32.1376 31.5827 32.1783 31.6489 32.2061C31.7151 32.2339 31.7862 32.2482 31.858 32.2482C31.9298 32.2482 32.0009 32.2339 32.0671 32.2061C32.1333 32.1783 32.1933 32.1376 32.2435 32.0864C32.3425 31.9842 32.3978 31.8476 32.3978 31.7055C32.3978 31.5634 32.3425 31.4268 32.2435 31.3247L30.6156 29.7071C30.5667 29.6556 30.5078 29.6144 30.4427 29.5859C30.3775 29.5575 30.3073 29.5425 30.2361 29.5417C30.165 29.5409 30.0945 29.5544 30.0287 29.5813C29.9629 29.6082 29.9031 29.6481 29.853 29.6986V29.7071ZM30.2215 36.9133C30.2215 36.7703 30.1646 36.6332 30.0634 36.5321C29.9621 36.431 29.8248 36.3742 29.6817 36.3742H27.3511C27.208 36.3742 27.0707 36.431 26.9695 36.5321C26.8682 36.6332 26.8113 36.7703 26.8113 36.9133C26.8136 37.0556 26.8711 37.1915 26.9719 37.2921C27.0726 37.3928 27.2087 37.4503 27.3511 37.4525H29.6474C29.7211 37.4572 29.795 37.4467 29.8645 37.4217C29.934 37.3967 29.9976 37.3578 30.0515 37.3072C30.1053 37.2567 30.1481 37.1956 30.1774 37.1279C30.2066 37.0601 30.2216 36.9871 30.2215 36.9133ZM30.2215 44.2907C30.3663 44.2887 30.5046 44.2303 30.607 44.1281L32.2264 42.5106C32.2804 42.4614 32.3238 42.4019 32.354 42.3356C32.3843 42.2692 32.4008 42.1974 32.4024 42.1245C32.4041 42.0517 32.391 41.9792 32.3638 41.9115C32.3367 41.8438 32.2961 41.7824 32.2445 41.7308C32.1929 41.6793 32.1313 41.6387 32.0636 41.6116C31.9958 41.5844 31.9233 41.5713 31.8503 41.573C31.7773 41.5747 31.7055 41.5912 31.639 41.6214C31.5726 41.6516 31.513 41.695 31.4638 41.7489L29.8273 43.3921C29.7763 43.4415 29.7357 43.5007 29.708 43.5662C29.6803 43.6316 29.666 43.7019 29.666 43.7729C29.666 43.844 29.6803 43.9143 29.708 43.9797C29.7357 44.0451 29.7763 44.1043 29.8273 44.1538C29.9307 44.2461 30.0657 44.2951 30.2043 44.2907H30.2215ZM36.5191 44.2907V46.5844C36.5191 46.7274 36.5759 46.8645 36.6772 46.9656C36.7784 47.0668 36.9157 47.1236 37.0588 47.1236C37.202 47.1236 37.3393 47.0668 37.4405 46.9656C37.5418 46.8645 37.5986 46.7274 37.5986 46.5844V44.2907C37.5986 44.1477 37.5418 44.0106 37.4405 43.9095C37.3393 43.8083 37.202 43.7515 37.0588 43.7515C36.9157 43.7515 36.7784 43.8083 36.6772 43.9095C36.5759 44.0106 36.5191 44.1477 36.5191 44.2907ZM41.8999 41.766C41.8488 41.8154 41.8082 41.8746 41.7805 41.9401C41.7528 42.0055 41.7385 42.0758 41.7385 42.1468C41.7385 42.2179 41.7528 42.2882 41.7805 42.3536C41.8082 42.419 41.8488 42.4782 41.8999 42.5277L43.5192 44.1538C43.5688 44.203 43.6277 44.2419 43.6923 44.2683C43.757 44.2948 43.8263 44.3082 43.8962 44.3078C44.04 44.309 44.1785 44.2536 44.2818 44.1538C44.3331 44.1036 44.3738 44.0437 44.4017 43.9775C44.4295 43.9114 44.4438 43.8404 44.4438 43.7687C44.4438 43.6969 44.4295 43.6259 44.4017 43.5598C44.3738 43.4936 44.3331 43.4337 44.2818 43.3835L42.6624 41.766C42.5619 41.6694 42.4274 41.6161 42.2879 41.6177C42.1485 41.6193 42.0152 41.6756 41.917 41.7745L41.8999 41.766ZM46.7494 37.4868C46.882 37.4701 47.0039 37.4057 47.0922 37.3056C47.1806 37.2056 47.2294 37.0767 47.2294 36.9433C47.2294 36.8098 47.1806 36.681 47.0922 36.5809C47.0039 36.4809 46.882 36.4165 46.7494 36.3998H44.4531C44.3206 36.4165 44.1987 36.4809 44.1103 36.5809C44.022 36.681 43.9732 36.8098 43.9732 36.9433C43.9732 37.0767 44.022 37.2056 44.1103 37.3056C44.1987 37.4057 44.3206 37.4701 44.4531 37.4868H46.7494ZM42.3111 32.2661C42.381 32.2665 42.4503 32.253 42.515 32.2266C42.5797 32.2002 42.6385 32.1612 42.6881 32.112L44.3075 30.4945C44.4098 30.3935 44.4677 30.256 44.4685 30.1124C44.4693 29.9687 44.4129 29.8307 44.3118 29.7285C44.2107 29.6264 44.0731 29.5685 43.9292 29.5677C43.7854 29.5669 43.6472 29.6232 43.5449 29.7242L41.917 31.3503C41.8657 31.4005 41.8249 31.4605 41.7971 31.5266C41.7693 31.5927 41.755 31.6637 41.755 31.7355C41.755 31.8072 41.7693 31.8782 41.7971 31.9443C41.8249 32.0105 41.8657 32.0704 41.917 32.1206C42.019 32.216 42.1542 32.2682 42.294 32.2661H42.3111Z" fill="#AA6CFF"/>
</svg>
