<svg width="73" height="73" viewBox="0 0 73 73" fill="none" xmlns="http://www.w3.org/2000/svg">
<path d="M71 36.5C71 55.5538 55.5538 71 36.5 71C17.4462 71 2 55.5538 2 36.5C2 17.4462 17.4462 2 36.5 2C55.5538 2 71 17.4462 71 36.5Z" stroke="#AA6CFF" stroke-width="3"/>
<path d="M21.9361 33.9564V40.147H25.4701C25.7427 41.1737 26.1484 42.1603 26.6769 43.0815L24.185 45.5766L28.5497 49.9547L31.0415 47.4675C31.9627 48.0019 32.9509 48.4109 33.98 48.6836V52.1987H40.1626V48.6836C41.1893 48.4108 42.1749 48.0018 43.0933 47.4675L45.5773 49.9547L49.9498 45.5766L47.458 43.0815C47.9864 42.1603 48.3921 41.1737 48.6647 40.147H52.1988V33.9564H48.649C48.3699 32.9506 47.9616 31.9853 47.4345 31.0847L49.9498 28.5661L45.5773 24.1879L43.0541 26.7144C42.147 26.191 41.1747 25.7901 40.1626 25.5217V21.936H33.9565V25.5217C32.9424 25.7915 31.9678 26.1924 31.0572 26.7144L28.5262 24.1879L24.1615 28.5661L26.7004 31.0847C26.1701 31.9976 25.7618 32.9763 25.4858 33.9956L21.9361 33.9564ZM37.0674 28.9348C38.678 28.9348 40.2524 29.4131 41.5915 30.3093C42.9305 31.2054 43.974 32.479 44.59 33.9691C45.206 35.4592 45.3668 37.0987 45.052 38.6803C44.7372 40.2619 43.961 41.7144 42.8216 42.8542C41.6822 43.994 40.2308 44.7698 38.651 45.0835C37.0711 45.3972 35.4339 45.2346 33.9463 44.6164C32.4588 43.9982 31.1878 42.952 30.2941 41.6104C29.4004 40.2687 28.9242 38.6918 28.9258 37.0792C28.9268 36.0073 29.1389 34.9461 29.55 33.9564C29.9611 32.9667 30.5631 32.0679 31.3215 31.3114C32.0799 30.555 32.9799 29.9557 33.9698 29.5479C34.9598 29.1401 36.0204 28.9317 37.0909 28.9348H37.0674ZM34.0584 38.9936H36.848L37.3103 40.1705H39.0421L36.3465 33.7681H34.6774L31.9191 40.1705H33.5882L34.0584 38.9936ZM35.461 35.3844L36.3778 37.7382H34.5285L35.461 35.3844ZM39.6298 35.2431H41.197V40.1705H39.6298V35.2431ZM39.6298 33.823C39.6298 33.6569 39.679 33.4946 39.7711 33.3566C39.8632 33.2185 39.9942 33.1109 40.1474 33.0473C40.3006 32.9838 40.4692 32.9672 40.6318 32.9996C40.7945 33.032 40.9439 33.1119 41.0611 33.2293C41.1784 33.3468 41.2582 33.4963 41.2906 33.6592C41.3229 33.8221 41.3063 33.9909 41.2429 34.1443C41.1794 34.2977 41.0719 34.4288 40.9341 34.521C40.7962 34.6133 40.6341 34.6625 40.4682 34.6625C40.3529 34.6768 40.2359 34.6653 40.1256 34.6287C40.0153 34.5922 39.9145 34.5315 39.8305 34.4512C39.7465 34.3708 39.6814 34.2728 39.6399 34.1641C39.5984 34.0555 39.5816 33.939 39.5906 33.823H39.6298Z" fill="#AA6CFF"/>
</svg>
