<svg width="73" height="73" viewBox="0 0 73 73" fill="none" xmlns="http://www.w3.org/2000/svg">
<path d="M7.8143 55.6672C4.02339 49.9937 2 43.3234 2 36.5C2 27.35 5.63482 18.5748 12.1048 12.1048C18.5748 5.63481 27.35 2 36.5 2C43.3234 2 49.9937 4.02339 55.6672 7.8143C61.3407 11.6052 65.7626 16.9934 68.3738 23.2974C70.9851 29.6015 71.6683 36.5383 70.3371 43.2306C69.0059 49.9229 65.7201 56.0703 60.8952 60.8952C56.0703 65.7201 49.923 69.0059 43.2306 70.3371C36.5383 71.6683 29.6015 70.985 23.2974 68.3738C16.9934 65.7626 11.6052 61.3407 7.8143 55.6672Z" stroke="#AA6CFF" stroke-width="3"/>
<path d="M49.2084 20.6753C48.4102 20.6753 47.6446 20.9914 47.0802 21.5542C46.5157 22.117 46.1987 22.8802 46.1987 23.6761C46.1891 23.8115 46.1891 23.9473 46.1987 24.0827L39.082 28.6129L39.014 28.671L38.8878 28.7775V28.8259C38.8525 28.8654 38.82 28.9075 38.7907 28.9517L38.7325 29.0388L38.6742 29.1647C38.6706 29.2001 38.6706 29.2358 38.6742 29.2712L35.7616 38.3897L27.7226 29.5228C27.8861 29.1469 27.972 28.742 27.975 28.3322C27.975 27.7368 27.7979 27.1547 27.4661 26.6597C27.1344 26.1646 26.6628 25.7787 26.111 25.5509C25.5593 25.323 24.9522 25.2634 24.3665 25.3796C23.7807 25.4957 23.2427 25.7824 22.8205 26.2035C22.3982 26.6245 22.1106 27.1609 21.9941 27.7449C21.8776 28.3289 21.9374 28.9342 22.1659 29.4843C22.3944 30.0344 22.7815 30.5045 23.278 30.8353C23.7746 31.1661 24.3583 31.3427 24.9555 31.3427C25.1981 31.3404 25.4395 31.3079 25.674 31.2459L34.1693 40.7517L26.6837 45.1174C26.1202 44.7581 25.4527 44.5962 24.7866 44.6573C24.1206 44.7184 23.4939 44.999 23.0056 45.4547C22.5172 45.9105 22.1951 46.5154 22.09 47.174C21.9849 47.8326 22.1028 48.5073 22.4252 49.0917C22.7475 49.676 23.2559 50.1366 23.87 50.4008C24.4842 50.665 25.1691 50.7177 25.8167 50.5506C26.4642 50.3834 27.0374 50.006 27.4459 49.4779C27.8543 48.9498 28.0746 48.301 28.0721 47.6342C28.0768 47.56 28.0768 47.4857 28.0721 47.4115L36.0431 42.7748L41.5189 48.8345C41.395 49.166 41.3293 49.5164 41.3248 49.8702C41.3229 50.4661 41.4983 51.0491 41.8289 51.5454C42.1595 52.0418 42.6304 52.4291 43.182 52.6585C43.7336 52.8878 44.341 52.9488 44.9273 52.8337C45.5137 52.7187 46.0526 52.4327 46.4759 52.0121C46.8991 51.5915 47.1877 51.0551 47.305 50.4708C47.4223 49.8866 47.363 49.2808 47.1348 48.7301C46.9065 48.1795 46.5195 47.7087 46.0228 47.3775C45.526 47.0463 44.9419 46.8694 44.3442 46.8694C44.0504 46.8727 43.7589 46.9217 43.4802 47.0146L37.781 40.7517L40.4704 32.2042L44.752 36.3569C44.6369 36.6668 44.5777 36.9945 44.5773 37.3249C44.5773 37.9204 44.7543 38.5024 45.0861 38.9975C45.4179 39.4925 45.8895 39.8784 46.4412 40.1063C46.993 40.3341 47.6001 40.3937 48.1858 40.2776C48.7715 40.1614 49.3095 39.8747 49.7318 39.4537C50.1541 39.0327 50.4417 38.4962 50.5582 37.9123C50.6747 37.3283 50.6149 36.723 50.3864 36.1729C50.1578 35.6228 49.7708 35.1526 49.2743 34.8218C48.7777 34.491 48.1939 34.3144 47.5967 34.3144C47.2653 34.3149 46.9366 34.3739 46.6258 34.4887L41.9656 29.9778L47.7326 26.3091C48.1756 26.5633 48.6779 26.6968 49.189 26.6963C49.9872 26.6963 50.7528 26.3801 51.3172 25.8174C51.8817 25.2546 52.1988 24.4913 52.1988 23.6955C52.1988 22.8996 51.8817 22.1363 51.3172 21.5736C50.7528 21.0108 49.9872 20.6947 49.189 20.6947L49.2084 20.6753Z" fill="#AA6CFF"/>
</svg>
