<svg width="73" height="73" viewBox="0 0 73 73" fill="none" xmlns="http://www.w3.org/2000/svg">
<path d="M71 36.5C71 55.5538 55.5538 71 36.5 71C17.4462 71 2 55.5538 2 36.5C2 17.4462 17.4462 2 36.5 2C55.5538 2 71 17.4462 71 36.5Z" stroke="#AA6CFF" stroke-width="3"/>
<path d="M48.856 26.6952C48.856 26.3121 48.7039 25.9446 48.4331 25.6736C48.1624 25.4027 47.7952 25.2505 47.4123 25.2505H44.5559V21.936H42.6259V25.2505H38.0401V21.936H36.1101V25.2505H31.5244V21.936H29.6021V25.2505H26.6762C26.486 25.2495 26.2974 25.2861 26.1214 25.3582C25.9453 25.4304 25.7853 25.5366 25.6504 25.6709C25.5155 25.8052 25.4085 25.9648 25.3354 26.1406C25.2624 26.3164 25.2248 26.5049 25.2248 26.6952V29.5848H21.9361V31.5163H25.2017V36.1055H21.9361V38.037H25.2017V42.6185H21.9361V44.55H25.2017V47.455C25.2037 47.8389 25.3575 48.2063 25.6295 48.477C25.9014 48.7478 26.2694 48.8997 26.653 48.8997H29.5789V52.1987H31.5012V48.8997H36.0869V52.1987H38.017V48.8997H42.6027V52.1987H44.5327V48.8997H47.4123C47.7959 48.8997 48.1639 48.7478 48.4359 48.477C48.7078 48.2063 48.8616 47.8389 48.8637 47.455V44.55H52.1988V42.6185H48.8637V38.037H52.1988V36.1055H48.8637V31.5163H52.1988V29.5848H48.8637L48.856 26.6952ZM46.3624 45.2376C46.3624 45.3878 46.3328 45.5365 46.2754 45.6752C46.218 45.8139 46.1338 45.94 46.0277 46.0462C45.9216 46.1523 45.7957 46.2366 45.6571 46.294C45.5184 46.3515 45.3699 46.3811 45.2198 46.3811H28.8841C28.7341 46.3811 28.5855 46.3515 28.4469 46.294C28.3083 46.2366 28.1823 46.1523 28.0762 46.0462C27.9701 45.94 27.886 45.8139 27.8285 45.6752C27.7711 45.5365 27.7416 45.3878 27.7416 45.2376V28.8817C27.7416 28.7315 27.7711 28.5829 27.8285 28.4441C27.886 28.3054 27.9701 28.1793 28.0762 28.0732C28.1823 27.967 28.3083 27.8828 28.4469 27.8253C28.5855 27.7678 28.7341 27.7383 28.8841 27.7383H45.2507C45.5537 27.7383 45.8443 27.8587 46.0586 28.0732C46.2729 28.2876 46.3933 28.5784 46.3933 28.8817L46.3624 45.2376ZM42.5873 37.0558C42.5888 38.1548 42.2645 39.2296 41.6555 40.1441C41.0465 41.0586 40.1802 41.7718 39.1661 42.1934C38.1519 42.6151 37.0356 42.7262 35.9584 42.5127C34.8811 42.2992 33.8914 41.7708 33.1143 40.9942C32.3373 40.2177 31.8078 39.2279 31.593 38.1501C31.3782 37.0723 31.4877 35.955 31.9076 34.9395C32.3275 33.924 33.0389 33.056 33.9519 32.4453C34.8649 31.8345 35.9384 31.5085 37.0365 31.5085C38.5073 31.5085 39.918 32.0927 40.9588 33.1328C41.9995 34.1729 42.5852 35.5839 42.5873 37.0558Z" fill="#AA6CFF"/>
</svg>
