<svg width="16" height="16" viewBox="0 0 16 16" fill="none" xmlns="http://www.w3.org/2000/svg">
<path d="M13.4603 4.31746L2.19048 15.619C1.93651 15.873 1.63471 16 1.28508 16C0.936296 16 0.63492 15.873 0.380952 15.619C0.126984 15.3651 0 15.0633 0 14.7136C0 14.3649 0.126984 14.0635 0.380952 13.8095L11.6825 2.53968H2.03175C1.67196 2.53968 1.37016 2.4182 1.12635 2.17524C0.883386 1.93143 0.761905 1.62963 0.761905 1.26984C0.761905 0.910053 0.883386 0.608254 1.12635 0.364445C1.37016 0.121482 1.67196 0 2.03175 0H14.7302C15.0899 0 15.3913 0.121482 15.6343 0.364445C15.8781 0.608254 16 0.910053 16 1.26984V13.9683C16 14.328 15.8781 14.6294 15.6343 14.8724C15.3913 15.1162 15.0899 15.2381 14.7302 15.2381C14.3704 15.2381 14.069 15.1162 13.826 14.8724C13.5822 14.6294 13.4603 14.328 13.4603 13.9683V4.31746Z" fill="#FAFAFA"/>
</svg>
