<svg width="426" height="368" viewBox="0 0 426 368" fill="none" xmlns="http://www.w3.org/2000/svg">
<path opacity="0.4" d="M184.867 39.5078V352.517" stroke="#FAFAFA" stroke-width="0.25" stroke-miterlimit="10"/>
<path opacity="0.4" d="M341.383 196.001H28.351" stroke="#FAFAFA" stroke-width="0.25" stroke-miterlimit="10"/>
<path opacity="0.4" d="M295.539 306.674L74.1943 85.3291" stroke="#FAFAFA" stroke-width="0.25" stroke-miterlimit="10"/>
<path opacity="0.4" d="M244.163 340.856L125.571 51.1699" stroke="#FAFAFA" stroke-width="0.25" stroke-miterlimit="10"/>
<path opacity="0.4" d="M129.863 342.531L239.87 49.4941" stroke="#FAFAFA" stroke-width="0.25" stroke-miterlimit="10"/>
<path opacity="0.4" d="M74.1943 306.674L295.539 85.3291" stroke="#FAFAFA" stroke-width="0.25" stroke-miterlimit="10"/>
<path opacity="0.4" d="M40.3571 256.1L329.377 135.901" stroke="#FAFAFA" stroke-width="0.25" stroke-miterlimit="10"/>
<path opacity="0.4" d="M40.2423 136.177L329.492 255.825" stroke="#FAFAFA" stroke-width="0.25" stroke-miterlimit="10"/>
<path opacity="0.6" d="M184.867 352.517C271.309 352.517 341.383 282.442 341.383 196.001C341.383 109.559 271.309 39.4844 184.867 39.4844C98.4256 39.4844 28.351 109.559 28.351 196.001C28.351 282.442 98.4256 352.517 184.867 352.517Z" stroke="#FAFAFA" stroke-width="0.25" stroke-miterlimit="10"/>
<path opacity="0.6" d="M184.867 333.854C261.001 333.854 322.72 272.135 322.72 196.001C322.72 119.867 261.001 58.1484 184.867 58.1484C108.733 58.1484 47.0146 119.867 47.0146 196.001C47.0146 272.135 108.733 333.854 184.867 333.854Z" stroke="#FAFAFA" stroke-width="0.25" stroke-miterlimit="10"/>
<path opacity="0.6" d="M270.741 281.868C318.166 234.443 318.165 157.553 270.741 110.128C223.316 62.703 146.425 62.703 99.0001 110.128C51.5753 157.553 51.5753 234.443 99.0002 281.868C146.425 329.293 223.316 329.293 270.741 281.868Z" stroke="#FAFAFA" stroke-width="0.25" stroke-miterlimit="10"/>
<path opacity="0.6" d="M260.514 271.642C302.291 229.865 302.291 162.131 260.514 120.354C218.737 78.5774 151.003 78.5774 109.226 120.354C67.4494 162.131 67.4494 229.865 109.226 271.642C151.003 313.419 218.737 313.419 260.514 271.642Z" stroke="#FAFAFA" stroke-width="0.25" stroke-miterlimit="10"/>
<path opacity="0.6" d="M184.867 290.214C236.899 290.214 279.08 248.033 279.08 196.001C279.08 143.969 236.899 101.788 184.867 101.788C132.835 101.788 90.6544 143.969 90.6544 196.001C90.6544 248.033 132.835 290.214 184.867 290.214Z" stroke="#FAFAFA" stroke-width="0.25" stroke-miterlimit="10"/>
<path opacity="0.6" d="M184.867 278.988C230.699 278.988 267.854 241.833 267.854 196.001C267.854 150.168 230.699 113.014 184.867 113.014C139.034 113.014 101.88 150.168 101.88 196.001C101.88 241.833 139.034 278.988 184.867 278.988Z" stroke="#FAFAFA" stroke-width="0.25" stroke-miterlimit="10"/>
<path opacity="0.6" d="M184.867 269.116C225.248 269.116 257.983 236.381 257.983 196.001C257.983 155.62 225.248 122.885 184.867 122.885C144.486 122.885 111.751 155.62 111.751 196.001C111.751 236.381 144.486 269.116 184.867 269.116Z" stroke="#FAFAFA" stroke-width="0.25" stroke-miterlimit="10"/>
<path opacity="0.6" d="M230.402 241.53C255.549 216.384 255.549 175.613 230.402 150.466C205.256 125.319 164.484 125.319 139.338 150.466C114.191 175.613 114.191 216.384 139.338 241.53C164.484 266.677 205.255 266.677 230.402 241.53Z" stroke="#FAFAFA" stroke-width="0.25" stroke-miterlimit="10"/>
<path opacity="0.6" d="M184.867 252.726C216.195 252.726 241.592 227.33 241.592 196.001C241.592 164.673 216.195 139.276 184.867 139.276C153.539 139.276 128.142 164.673 128.142 196.001C128.142 227.33 153.539 252.726 184.867 252.726Z" stroke="#FAFAFA" stroke-width="0.25" stroke-miterlimit="10"/>
<path opacity="0.6" d="M184.868 245.977C212.468 245.977 234.843 223.602 234.843 196.001C234.843 168.4 212.468 146.025 184.868 146.025C157.267 146.025 134.892 168.4 134.892 196.001C134.892 223.602 157.267 245.977 184.868 245.977Z" stroke="#FAFAFA" stroke-width="0.25" stroke-miterlimit="10"/>
<path opacity="0.6" d="M215.988 227.116C233.174 209.93 233.174 182.066 215.988 164.88C198.802 147.694 170.938 147.694 153.752 164.88C136.566 182.066 136.566 209.93 153.752 227.116C170.938 244.302 198.802 244.302 215.988 227.116Z" stroke="#FAFAFA" stroke-width="0.25" stroke-miterlimit="10"/>
<path opacity="0.6" d="M184.867 234.774C206.281 234.774 223.64 217.415 223.64 196.001C223.64 174.587 206.281 157.228 184.867 157.228C163.453 157.228 146.094 174.587 146.094 196.001C146.094 217.415 163.453 234.774 184.867 234.774Z" stroke="#FAFAFA" stroke-width="0.25" stroke-miterlimit="10"/>
<path opacity="0.6" d="M184.867 230.16C203.733 230.16 219.026 214.866 219.026 196.001C219.026 177.135 203.733 161.842 184.867 161.842C166.002 161.842 150.708 177.135 150.708 196.001C150.708 214.866 166.002 230.16 184.867 230.16Z" stroke="#FAFAFA" stroke-width="0.25" stroke-miterlimit="10"/>
<path opacity="0.6" d="M184.867 226.073C201.475 226.073 214.939 212.609 214.939 196.001C214.939 179.392 201.475 165.928 184.867 165.928C168.258 165.928 154.794 179.392 154.794 196.001C154.794 212.609 168.258 226.073 184.867 226.073Z" stroke="#FAFAFA" stroke-width="0.25" stroke-miterlimit="10"/>
<path opacity="0.6" d="M203.602 214.73C213.948 204.385 213.948 187.611 203.602 177.266C193.257 166.92 176.483 166.92 166.138 177.266C155.792 187.611 155.792 204.385 166.138 214.73C176.483 225.076 193.257 225.076 203.602 214.73Z" stroke="#FAFAFA" stroke-width="0.25" stroke-miterlimit="10"/>
<path opacity="0.6" d="M184.867 219.348C197.761 219.348 208.214 208.895 208.214 196.001C208.214 183.107 197.761 172.654 184.867 172.654C171.973 172.654 161.521 183.107 161.521 196.001C161.521 208.895 171.973 219.348 184.867 219.348Z" stroke="#FAFAFA" stroke-width="0.25" stroke-miterlimit="10"/>
<path opacity="0.6" d="M199.414 210.542C207.447 202.51 207.447 189.486 199.414 181.454C191.382 173.421 178.358 173.421 170.326 181.454C162.293 189.486 162.293 202.51 170.326 210.542C178.358 218.575 191.382 218.575 199.414 210.542Z" stroke="#FAFAFA" stroke-width="0.25" stroke-miterlimit="10"/>
<path opacity="0.6" d="M184.867 214.114C194.871 214.114 202.98 206.004 202.98 196.001C202.98 185.998 194.871 177.889 184.867 177.889C174.864 177.889 166.755 185.998 166.755 196.001C166.755 206.004 174.864 214.114 184.867 214.114Z" stroke="#FAFAFA" stroke-width="0.25" stroke-miterlimit="10"/>
<path opacity="0.6" d="M184.867 211.956C193.679 211.956 200.822 204.813 200.822 196.002C200.822 187.19 193.679 180.047 184.867 180.047C176.056 180.047 168.912 187.19 168.912 196.002C168.912 204.813 176.056 211.956 184.867 211.956Z" stroke="#FAFAFA" stroke-width="0.25" stroke-miterlimit="10"/>
<path opacity="0.6" d="M198.917 196.001C198.917 198.78 198.093 201.496 196.549 203.807C195.005 206.117 192.811 207.918 190.244 208.981C187.677 210.045 184.852 210.323 182.126 209.781C179.401 209.239 176.898 207.901 174.933 205.936C172.968 203.971 171.63 201.468 171.088 198.742C170.546 196.017 170.824 193.192 171.887 190.625C172.951 188.058 174.752 185.864 177.062 184.32C179.372 182.776 182.089 181.952 184.867 181.952C188.593 181.952 192.167 183.432 194.802 186.067C197.436 188.702 198.917 192.275 198.917 196.001Z" stroke="#FAFAFA" stroke-width="0.25" stroke-miterlimit="10"/>
<path d="M370.51 85.6092H369.082V89.4102H370.51C371.558 89.4102 372.302 88.5576 372.302 87.5097C372.302 86.4617 371.558 85.6092 370.51 85.6092ZM370.51 89.1387H369.37V85.8807H370.51C371.406 85.8807 372.019 86.6083 372.019 87.5097C372.019 88.411 371.406 89.1387 370.51 89.1387ZM375.362 86.6952V87.3087C375.134 86.9015 374.716 86.6354 374.194 86.6354C373.423 86.6354 372.788 87.249 372.788 88.0527C372.788 88.8563 373.423 89.4699 374.194 89.4699C374.716 89.4699 375.134 89.2038 375.362 88.7966V89.4102H375.639V86.6952H375.362ZM374.216 89.2092C373.57 89.2092 373.065 88.6988 373.065 88.0527C373.065 87.4065 373.57 86.8961 374.216 86.8961C374.862 86.8961 375.362 87.4065 375.362 88.0527C375.362 88.6988 374.862 89.2092 374.216 89.2092ZM377.863 86.9612V86.6952H377.054V85.935L376.777 86.0164V86.6952H376.179V86.9612H376.777V88.726C376.777 89.345 377.151 89.5188 377.863 89.4102V89.1658C377.309 89.2147 377.054 89.2038 377.054 88.726V86.9612H377.863ZM380.739 86.6952V87.3087C380.511 86.9015 380.093 86.6354 379.571 86.6354C378.8 86.6354 378.165 87.249 378.165 88.0527C378.165 88.8563 378.8 89.4699 379.571 89.4699C380.093 89.4699 380.511 89.2038 380.739 88.7966V89.4102H381.016V86.6952H380.739ZM379.593 89.2092C378.947 89.2092 378.442 88.6988 378.442 88.0527C378.442 87.4065 378.947 86.8961 379.593 86.8961C380.239 86.8961 380.739 87.4065 380.739 88.0527C380.739 88.6988 380.239 89.2092 379.593 89.2092ZM384.687 86.9612V86.6952H383.878V85.935L383.601 86.0164V86.6952H383.004V86.9612H383.601V88.726C383.601 89.345 383.976 89.5188 384.687 89.4102V89.1658C384.133 89.2147 383.878 89.2038 383.878 88.726V86.9612H384.687ZM386.396 86.6354C385.565 86.6354 384.99 87.2544 384.99 88.0527C384.99 88.8726 385.582 89.4699 386.418 89.4699C386.955 89.4699 387.379 89.2255 387.602 88.8563L387.363 88.7151C387.205 89.0029 386.868 89.2092 386.423 89.2092C385.804 89.2092 385.337 88.8074 385.272 88.1938H387.732C387.732 88.1504 387.737 88.107 387.737 88.0635C387.737 87.3196 387.221 86.6354 386.396 86.6354ZM386.396 86.8961C386.928 86.8961 387.395 87.2653 387.455 87.9278H385.272C385.326 87.325 385.777 86.8961 386.396 86.8961ZM390.47 89.4102L389.39 88.0092L390.405 86.6952H390.079L389.221 87.7974L388.369 86.6952H388.038L389.059 88.0146L387.973 89.4102H388.304L389.221 88.2264L390.139 89.4102H390.47ZM392.408 86.9612V86.6952H391.599V85.935L391.322 86.0164V86.6952H390.725V86.9612H391.322V88.726C391.322 89.345 391.697 89.5188 392.408 89.4102V89.1658C391.854 89.2147 391.599 89.2038 391.599 88.726V86.9612H392.408Z" fill="#FAFAFA"/>
<path opacity="0.2" d="M172.342 166.334L184.411 176.548L197.122 162L193.89 186.151L210.312 184.871L204.318 195.545L221 210.546L203.58 215.829L191.361 213.255L184.411 237L178.288 211.704L164.579 215.199L170.675 201.207L152.565 195.545L151 181.851L172.09 184.106L172.342 166.334Z" fill="#925CE1"/>
<path d="M186.375 57.8408L134.043 70.2352V145.979L88.1379 155.16L45.9052 199.229L109.254 228.149L99.6142 284.153L150.569 297.007L186.375 272.677L232.739 308.942L260.742 272.677L255.233 199.229L316.287 145.979L255.233 132.666L186.375 57.8408Z" stroke="url(#paint0_linear_55_1940)" stroke-linecap="round"/>
<path d="M185.096 64.484C188.291 64.484 190.881 61.894 190.881 58.699C190.881 55.5041 188.291 52.9141 185.096 52.9141C181.902 52.9141 179.312 55.5041 179.312 58.699C179.312 61.894 181.902 64.484 185.096 64.484Z" fill="#925CE1"/>
<path d="M257.524 130.483C257.524 131.627 257.185 132.746 256.549 133.697C255.913 134.649 255.01 135.39 253.953 135.828C252.896 136.266 251.733 136.38 250.61 136.157C249.488 135.934 248.458 135.383 247.648 134.574C246.839 133.765 246.288 132.734 246.065 131.612C245.842 130.49 245.957 129.326 246.394 128.269C246.832 127.212 247.574 126.309 248.525 125.673C249.476 125.038 250.595 124.698 251.739 124.698C253.273 124.698 254.745 125.308 255.83 126.393C256.915 127.478 257.524 128.949 257.524 130.483Z" fill="#925CE1"/>
<path d="M317.899 146.208C317.899 147.357 317.559 148.48 316.92 149.435C316.282 150.39 315.375 151.135 314.314 151.574C313.253 152.014 312.085 152.129 310.958 151.905C309.832 151.681 308.797 151.127 307.984 150.315C307.172 149.503 306.619 148.468 306.395 147.341C306.171 146.215 306.286 145.047 306.725 143.986C307.165 142.925 307.909 142.017 308.865 141.379C309.82 140.741 310.943 140.4 312.091 140.4C312.855 140.397 313.611 140.546 314.317 140.836C315.023 141.127 315.665 141.555 316.205 142.095C316.745 142.635 317.172 143.276 317.463 143.982C317.754 144.688 317.902 145.445 317.899 146.208Z" fill="#925CE1"/>
<path d="M259.521 201.786C262.716 201.786 265.306 199.196 265.306 196.001C265.306 192.806 262.716 190.216 259.521 190.216C256.326 190.216 253.736 192.806 253.736 196.001C253.736 199.196 256.326 201.786 259.521 201.786Z" fill="#925CE1"/>
<path d="M236.611 308.258C236.611 309.402 236.272 310.52 235.636 311.472C235 312.423 234.097 313.164 233.04 313.602C231.983 314.04 230.819 314.155 229.697 313.931C228.575 313.708 227.544 313.157 226.735 312.348C225.926 311.539 225.375 310.508 225.152 309.386C224.929 308.264 225.043 307.101 225.481 306.044C225.919 304.987 226.661 304.083 227.612 303.448C228.563 302.812 229.682 302.473 230.826 302.473C231.586 302.473 232.338 302.622 233.04 302.913C233.742 303.204 234.379 303.63 234.917 304.167C235.454 304.704 235.88 305.342 236.171 306.044C236.461 306.746 236.611 307.498 236.611 308.258Z" fill="#925CE1"/>
<path d="M47.0144 201.786C50.2093 201.786 52.7993 199.196 52.7993 196.001C52.7993 192.806 50.2093 190.216 47.0144 190.216C43.8194 190.216 41.2294 192.806 41.2294 196.001C41.2294 199.196 43.8194 201.786 47.0144 201.786Z" fill="#925CE1"/>
<path d="M132.435 149.905C135.63 149.905 138.22 147.315 138.22 144.12C138.22 140.925 135.63 138.335 132.435 138.335C129.24 138.335 126.65 140.925 126.65 144.12C126.65 147.315 129.24 149.905 132.435 149.905Z" fill="#925CE1"/>
<path d="M99.2171 287.459C102.412 287.459 105.002 284.869 105.002 281.674C105.002 278.479 102.412 275.889 99.2171 275.889C96.0221 275.889 93.4321 278.479 93.4321 281.674C93.4321 284.869 96.0221 287.459 99.2171 287.459Z" fill="#925CE1"/>
<path opacity="0.6" d="M314.157 136.269L349.418 101.008H423.062" stroke="#FAFAFA" stroke-width="0.25" stroke-miterlimit="10"/>
<path d="M290.736 333.629H289.308V337.43H290.736C291.784 337.43 292.528 336.577 292.528 335.529C292.528 334.481 291.784 333.629 290.736 333.629ZM290.736 337.158H289.596V333.9H290.736C291.632 333.9 292.246 334.628 292.246 335.529C292.246 336.431 291.632 337.158 290.736 337.158ZM295.588 334.715V335.328C295.36 334.921 294.942 334.655 294.421 334.655C293.65 334.655 293.015 335.269 293.015 336.072C293.015 336.876 293.65 337.489 294.421 337.489C294.942 337.489 295.36 337.223 295.588 336.816V337.43H295.865V334.715H295.588ZM294.443 337.229C293.797 337.229 293.292 336.718 293.292 336.072C293.292 335.426 293.797 334.916 294.443 334.916C295.089 334.916 295.588 335.426 295.588 336.072C295.588 336.718 295.089 337.229 294.443 337.229ZM298.089 334.981V334.715H297.28V333.954L297.003 334.036V334.715H296.406V334.981H297.003V336.746C297.003 337.365 297.378 337.538 298.089 337.43V337.185C297.535 337.234 297.28 337.223 297.28 336.746V334.981H298.089ZM300.965 334.715V335.328C300.737 334.921 300.319 334.655 299.798 334.655C299.027 334.655 298.392 335.269 298.392 336.072C298.392 336.876 299.027 337.489 299.798 337.489C300.319 337.489 300.737 337.223 300.965 336.816V337.43H301.242V334.715H300.965ZM299.82 337.229C299.174 337.229 298.669 336.718 298.669 336.072C298.669 335.426 299.174 334.916 299.82 334.916C300.466 334.916 300.965 335.426 300.965 336.072C300.965 336.718 300.466 337.229 299.82 337.229ZM304.914 334.981V334.715H304.105V333.954L303.828 334.036V334.715H303.23V334.981H303.828V336.746C303.828 337.365 304.202 337.538 304.914 337.43V337.185C304.36 337.234 304.105 337.223 304.105 336.746V334.981H304.914ZM306.623 334.655C305.792 334.655 305.216 335.274 305.216 336.072C305.216 336.892 305.808 337.489 306.644 337.489C307.182 337.489 307.605 337.245 307.828 336.876L307.589 336.735C307.432 337.022 307.095 337.229 306.65 337.229C306.031 337.229 305.564 336.827 305.499 336.213H307.958C307.958 336.17 307.964 336.126 307.964 336.083C307.964 335.339 307.448 334.655 306.623 334.655ZM306.623 334.916C307.155 334.916 307.622 335.285 307.681 335.947H305.499C305.553 335.345 306.004 334.916 306.623 334.916ZM310.697 337.43L309.616 336.029L310.632 334.715H310.306L309.448 335.817L308.596 334.715H308.264L309.285 336.034L308.199 337.43H308.53L309.448 336.246L310.366 337.43H310.697ZM312.635 334.981V334.715H311.825V333.954L311.549 334.036V334.715H310.951V334.981H311.549V336.746C311.549 337.365 311.923 337.538 312.635 337.43V337.185C312.081 337.234 311.825 337.223 311.825 336.746V334.981H312.635Z" fill="#FAFAFA"/>
<path opacity="0.6" d="M234.843 314.065L270.104 349.326H343.748" stroke="#FAFAFA" stroke-width="0.25" stroke-miterlimit="10"/>
<path d="M1.9005 303.511H0.47241V307.312H1.9005C2.94849 307.312 3.6924 306.459 3.6924 305.411C3.6924 304.363 2.94849 303.511 1.9005 303.511ZM1.9005 307.04H0.7602V303.782H1.9005C2.79645 303.782 3.41004 304.51 3.41004 305.411C3.41004 306.312 2.79645 307.04 1.9005 307.04ZM6.75254 304.597V305.21C6.52448 304.803 6.10637 304.537 5.58509 304.537C4.81403 304.537 4.17872 305.15 4.17872 305.954C4.17872 306.758 4.81403 307.371 5.58509 307.371C6.10637 307.371 6.52448 307.105 6.75254 306.698V307.312H7.02947V304.597H6.75254ZM5.60681 307.111C4.96064 307.111 4.45565 306.6 4.45565 305.954C4.45565 305.308 4.96064 304.797 5.60681 304.797C6.25298 304.797 6.75254 305.308 6.75254 305.954C6.75254 306.6 6.25298 307.111 5.60681 307.111ZM9.25323 304.863V304.597H8.44416V303.836L8.16723 303.918V304.597H7.56993V304.863H8.16723V306.627C8.16723 307.246 8.5419 307.42 9.25323 307.312V307.067C8.69937 307.116 8.44416 307.105 8.44416 306.627V304.863H9.25323ZM12.1295 304.597V305.21C11.9015 304.803 11.4833 304.537 10.9621 304.537C10.191 304.537 9.5557 305.15 9.5557 305.954C9.5557 306.758 10.191 307.371 10.9621 307.371C11.4833 307.371 11.9015 307.105 12.1295 306.698V307.312H12.4064V304.597H12.1295ZM10.9838 307.111C10.3376 307.111 9.83263 306.6 9.83263 305.954C9.83263 305.308 10.3376 304.797 10.9838 304.797C11.63 304.797 12.1295 305.308 12.1295 305.954C12.1295 306.6 11.63 307.111 10.9838 307.111ZM16.0778 304.863V304.597H15.2688V303.836L14.9918 303.918V304.597H14.3945V304.863H14.9918V306.627C14.9918 307.246 15.3665 307.42 16.0778 307.312V307.067C15.524 307.116 15.2688 307.105 15.2688 306.627V304.863H16.0778ZM17.7867 304.537C16.9559 304.537 16.3803 305.156 16.3803 305.954C16.3803 306.774 16.9722 307.371 17.8084 307.371C18.346 307.371 18.7695 307.127 18.9921 306.758L18.7532 306.616C18.5958 306.904 18.2591 307.111 17.8138 307.111C17.1948 307.111 16.7278 306.709 16.6627 306.095H19.1225C19.1225 306.052 19.1279 306.008 19.1279 305.965C19.1279 305.221 18.612 304.537 17.7867 304.537ZM17.7867 304.797C18.3188 304.797 18.7858 305.167 18.8455 305.829H16.6627C16.717 305.226 17.1677 304.797 17.7867 304.797ZM21.861 307.312L20.7804 305.911L21.7958 304.597H21.47L20.6121 305.699L19.7596 304.597H19.4284L20.4492 305.916L19.3632 307.312H19.6944L20.6121 306.128L21.5298 307.312H21.861ZM23.7986 304.863V304.597H22.9896V303.836L22.7126 303.918V304.597H22.1153V304.863H22.7126V306.627C22.7126 307.246 23.0873 307.42 23.7986 307.312V307.067C23.2448 307.116 22.9896 307.105 22.9896 306.627V304.863H23.7986Z" fill="#FAFAFA"/>
<path opacity="0.6" d="M108.905 283.763L73.6438 319.024H0" stroke="#FAFAFA" stroke-width="0.25" stroke-miterlimit="10"/>
<path d="M72.4454 1.199H71.0173V5H72.4454C73.4934 5 74.2373 4.14749 74.2373 3.0995C74.2373 2.05151 73.4934 1.199 72.4454 1.199ZM72.4454 4.7285H71.3051V1.4705H72.4454C73.3414 1.4705 73.955 2.19812 73.955 3.0995C73.955 4.00088 73.3414 4.7285 72.4454 4.7285ZM77.2975 2.285V2.89859C77.0694 2.49134 76.6513 2.22527 76.13 2.22527C75.359 2.22527 74.7236 2.83886 74.7236 3.6425C74.7236 4.44614 75.359 5.05973 76.13 5.05973C76.6513 5.05973 77.0694 4.79366 77.2975 4.38641V5H77.5744V2.285H77.2975ZM76.1517 4.79909C75.5056 4.79909 75.0006 4.28867 75.0006 3.6425C75.0006 2.99633 75.5056 2.48591 76.1517 2.48591C76.7979 2.48591 77.2975 2.99633 77.2975 3.6425C77.2975 4.28867 76.7979 4.79909 76.1517 4.79909ZM79.7982 2.55107V2.285H78.9891V1.5248L78.7122 1.60625V2.285H78.1149V2.55107H78.7122V4.31582C78.7122 4.93484 79.0868 5.1086 79.7982 5V4.75565C79.2443 4.80452 78.9891 4.79366 78.9891 4.31582V2.55107H79.7982ZM82.6744 2.285V2.89859C82.4464 2.49134 82.0283 2.22527 81.507 2.22527C80.7359 2.22527 80.1006 2.83886 80.1006 3.6425C80.1006 4.44614 80.7359 5.05973 81.507 5.05973C82.0283 5.05973 82.4464 4.79366 82.6744 4.38641V5H82.9514V2.285H82.6744ZM81.5287 4.79909C80.8825 4.79909 80.3775 4.28867 80.3775 3.6425C80.3775 2.99633 80.8825 2.48591 81.5287 2.48591C82.1749 2.48591 82.6744 2.99633 82.6744 3.6425C82.6744 4.28867 82.1749 4.79909 81.5287 4.79909ZM86.6228 2.55107V2.285H85.8137V1.5248L85.5368 1.60625V2.285H84.9395V2.55107H85.5368V4.31582C85.5368 4.93484 85.9114 5.1086 86.6228 5V4.75565C86.0689 4.80452 85.8137 4.79366 85.8137 4.31582V2.55107H86.6228ZM88.3316 2.22527C87.5008 2.22527 86.9252 2.84429 86.9252 3.6425C86.9252 4.46243 87.5171 5.05973 88.3533 5.05973C88.8909 5.05973 89.3144 4.81538 89.5371 4.44614L89.2981 4.30496C89.1407 4.59275 88.804 4.79909 88.3588 4.79909C87.7397 4.79909 87.2728 4.39727 87.2076 3.78368H89.6674C89.6674 3.74024 89.6728 3.6968 89.6728 3.65336C89.6728 2.90945 89.157 2.22527 88.3316 2.22527ZM88.3316 2.48591C88.8637 2.48591 89.3307 2.85515 89.3905 3.51761H87.2076C87.2619 2.91488 87.7126 2.48591 88.3316 2.48591ZM92.4059 5L91.3254 3.59906L92.3408 2.285H92.015L91.157 3.38729L90.3045 2.285H89.9733L90.9941 3.60449L89.9081 5H90.2394L91.157 3.81626L92.0747 5H92.4059ZM94.3436 2.55107V2.285H93.5345V1.5248L93.2576 1.60625V2.285H92.6603V2.55107H93.2576V4.31582C93.2576 4.93484 93.6322 5.1086 94.3436 5V4.75565C93.7897 4.80452 93.5345 4.79366 93.5345 4.31582V2.55107H94.3436Z" fill="#FAFAFA"/>
<path opacity="0.6" d="M181.102 52.8918L145.841 17.6309H72.1976" stroke="#FAFAFA" stroke-width="0.25" stroke-miterlimit="10"/>
<path d="M19.2556 90.0623H17.8275V93.8633H19.2556C20.3036 93.8633 21.0475 93.0108 21.0475 91.9628C21.0475 90.9148 20.3036 90.0623 19.2556 90.0623ZM19.2556 93.5918H18.1153V90.3338H19.2556C20.1516 90.3338 20.7651 91.0614 20.7651 91.9628C20.7651 92.8642 20.1516 93.5918 19.2556 93.5918ZM24.1076 91.1483V91.7619C23.8796 91.3546 23.4615 91.0886 22.9402 91.0886C22.1691 91.0886 21.5338 91.7021 21.5338 92.5058C21.5338 93.3094 22.1691 93.923 22.9402 93.923C23.4615 93.923 23.8796 93.6569 24.1076 93.2497V93.8633H24.3846V91.1483H24.1076ZM22.9619 93.6624C22.3157 93.6624 21.8108 93.152 21.8108 92.5058C21.8108 91.8596 22.3157 91.3492 22.9619 91.3492C23.6081 91.3492 24.1076 91.8596 24.1076 92.5058C24.1076 93.152 23.6081 93.6624 22.9619 93.6624ZM26.6083 91.4144V91.1483H25.7993V90.3881L25.5223 90.4695V91.1483H24.925V91.4144H25.5223V93.1791C25.5223 93.7981 25.897 93.9719 26.6083 93.8633V93.6189C26.0545 93.6678 25.7993 93.6569 25.7993 93.1791V91.4144H26.6083ZM29.4846 91.1483V91.7619C29.2566 91.3546 28.8384 91.0886 28.3172 91.0886C27.5461 91.0886 26.9108 91.7021 26.9108 92.5058C26.9108 93.3094 27.5461 93.923 28.3172 93.923C28.8384 93.923 29.2566 93.6569 29.4846 93.2497V93.8633H29.7615V91.1483H29.4846ZM28.3389 93.6624C27.6927 93.6624 27.1877 93.152 27.1877 92.5058C27.1877 91.8596 27.6927 91.3492 28.3389 91.3492C28.9851 91.3492 29.4846 91.8596 29.4846 92.5058C29.4846 93.152 28.9851 93.6624 28.3389 93.6624ZM33.4329 91.4144V91.1483H32.6239V90.3881L32.3469 90.4695V91.1483H31.7496V91.4144H32.3469V93.1791C32.3469 93.7981 32.7216 93.9719 33.4329 93.8633V93.6189C32.8791 93.6678 32.6239 93.6569 32.6239 93.1791V91.4144H33.4329ZM35.1418 91.0886C34.311 91.0886 33.7354 91.7076 33.7354 92.5058C33.7354 93.3257 34.3273 93.923 35.1635 93.923C35.7011 93.923 36.1246 93.6787 36.3472 93.3094L36.1083 93.1682C35.9509 93.456 35.6142 93.6624 35.1689 93.6624C34.5499 93.6624 34.0829 93.2606 34.0178 92.647H36.4776C36.4776 92.6035 36.483 92.5601 36.483 92.5166C36.483 91.7727 35.9671 91.0886 35.1418 91.0886ZM35.1418 91.3492C35.6739 91.3492 36.1409 91.7184 36.2006 92.3809H34.0178C34.0721 91.7782 34.5228 91.3492 35.1418 91.3492ZM39.2161 93.8633L38.1355 92.4623L39.151 91.1483H38.8252L37.9672 92.2506L37.1147 91.1483H36.7835L37.8043 92.4678L36.7183 93.8633H37.0495L37.9672 92.6795L38.8849 93.8633H39.2161ZM41.1537 91.4144V91.1483H40.3447V90.3881L40.0677 90.4695V91.1483H39.4704V91.4144H40.0677V93.1791C40.0677 93.7981 40.4424 93.9719 41.1537 93.8633V93.6189C40.5999 93.6678 40.3447 93.6569 40.3447 93.1791V91.4144H41.1537Z" fill="#FAFAFA"/>
<path opacity="0.6" d="M127.913 141.778L92.6517 106.494H19.0078" stroke="#FAFAFA" stroke-width="0.25" stroke-miterlimit="10"/>
<defs>
<linearGradient id="paint0_linear_55_1940" x1="35.1615" y1="57.8408" x2="416.961" y2="79.1198" gradientUnits="userSpaceOnUse">
<stop stop-color="#6850FF"/>
<stop offset="0.403595" stop-color="#AA6CFF"/>
<stop offset="1" stop-color="#925CE1"/>
</linearGradient>
</defs>
</svg>
