<svg width="72" height="73" viewBox="0 0 72 73" fill="none" xmlns="http://www.w3.org/2000/svg">
<path d="M70.5 36.4995V36.5001C70.5 43.3261 68.4751 49.9987 64.6815 55.6735C60.8879 61.3483 55.4962 65.7702 49.1886 68.3796C42.881 70.9891 35.9411 71.6687 29.2471 70.3326C22.5531 68.9965 16.4059 65.7047 11.5835 60.8738C6.76096 56.0428 3.47994 49.8899 2.15558 43.1935C0.831217 36.4972 1.52305 29.5585 4.14354 23.2555C6.76403 16.9526 11.1954 11.5686 16.8768 7.78497C22.5583 4.00134 29.2344 1.9881 36.0604 2.00005L36.0609 2.00005C45.2013 2.01286 53.9627 5.65365 60.4202 12.1225C66.8778 18.5914 70.5032 27.3592 70.5 36.4995Z" stroke="#AA6CFF" stroke-width="3"/>
<path d="M24.4984 21.936C23.3518 21.936 22.2522 22.3915 21.4414 23.2023C20.6307 24.013 20.1752 25.1127 20.1752 26.2593V47.8755C20.1752 49.0221 20.6307 50.1217 21.4414 50.9325C22.2522 51.7432 23.3518 52.1987 24.4984 52.1987H46.1146C47.2612 52.1987 48.3608 51.7432 49.1716 50.9325C49.9824 50.1217 50.4379 49.0221 50.4379 47.8755V26.2593C50.4379 25.1127 49.9824 24.013 49.1716 23.2023C48.3608 22.3915 47.2612 21.936 46.1146 21.936H24.4984ZM35.3065 37.0674C35.5932 37.0674 35.8681 37.1813 36.0708 37.3839C36.2735 37.5866 36.3873 37.8615 36.3873 38.1482V44.6331C36.3873 44.9197 36.2735 45.1946 36.0708 45.3973C35.8681 45.6 35.5932 45.7139 35.3065 45.7139C35.0199 45.7139 34.745 45.6 34.5423 45.3973C34.3396 45.1946 34.2257 44.9197 34.2257 44.6331V38.1482C34.2257 37.8615 34.3396 37.5866 34.5423 37.3839C34.745 37.1813 35.0199 37.0674 35.3065 37.0674ZM26.66 33.8249C26.66 33.5383 26.7739 33.2634 26.9766 33.0607C27.1793 32.858 27.4542 32.7441 27.7408 32.7441C28.0275 32.7441 28.3024 32.858 28.5051 33.0607C28.7078 33.2634 28.8217 33.5383 28.8217 33.8249V44.6331C28.8217 44.9197 28.7078 45.1946 28.5051 45.3973C28.3024 45.6 28.0275 45.7139 27.7408 45.7139C27.4542 45.7139 27.1793 45.6 26.9766 45.3973C26.7739 45.1946 26.66 44.9197 26.66 44.6331V33.8249ZM42.8722 28.4209C43.1588 28.4209 43.4337 28.5348 43.6364 28.7375C43.8391 28.9402 43.953 29.2151 43.953 29.5017V44.6331C43.953 44.9197 43.8391 45.1946 43.6364 45.3973C43.4337 45.6 43.1588 45.7139 42.8722 45.7139C42.5855 45.7139 42.3106 45.6 42.1079 45.3973C41.9052 45.1946 41.7914 44.9197 41.7914 44.6331V29.5017C41.7914 29.2151 41.9052 28.9402 42.1079 28.7375C42.3106 28.5348 42.5855 28.4209 42.8722 28.4209Z" fill="#AA6CFF"/>
</svg>
