<svg width="72" height="73" viewBox="0 0 72 73" fill="none" xmlns="http://www.w3.org/2000/svg">
<path d="M70.5 36.4995V36.5001C70.5 43.3261 68.4751 49.9987 64.6815 55.6735C60.8879 61.3483 55.4962 65.7702 49.1886 68.3796C42.881 70.9891 35.9411 71.6687 29.2471 70.3326C22.5531 68.9965 16.4059 65.7047 11.5835 60.8738C6.76096 56.0428 3.47994 49.8899 2.15558 43.1935C0.831217 36.4972 1.52305 29.5585 4.14354 23.2555C6.76403 16.9526 11.1954 11.5686 16.8768 7.78497C22.5583 4.00134 29.2344 1.9881 36.0604 2.00005L36.0609 2.00005C45.2013 2.01286 53.9627 5.65365 60.4202 12.1225C66.8778 18.5914 70.5032 27.3592 70.5 36.4995Z" stroke="#AA6CFF" stroke-width="3"/>
<path d="M45.879 42.8871C45.297 42.8871 44.7151 42.6543 44.2495 42.1888L40.7576 38.6969C40.2921 38.2313 40.0593 37.6494 40.0593 37.0674C40.0593 36.4854 40.2921 35.9034 40.7576 35.4379L44.2495 31.946C44.7151 31.4804 45.297 31.2476 45.879 31.2476C46.461 31.2476 47.043 31.4804 47.5085 31.946L51.0004 35.4379C51.466 35.9034 51.6988 36.4854 51.6988 37.0674C51.6988 37.6494 51.466 38.2313 51.0004 38.6969L47.5085 42.1888C47.043 42.6543 46.461 42.8871 45.879 42.8871ZM45.879 33.5755L42.3872 37.0674L45.879 40.5592L49.3709 37.0674L45.879 33.5755ZM36.5674 33.5755C35.9854 33.5755 35.4035 33.3427 34.9379 32.8772L31.446 29.3853C30.9805 28.9197 30.7477 28.3378 30.7477 27.7558C30.7477 27.1738 30.9805 26.5918 31.446 26.1263L34.9379 22.6344C35.4035 22.1688 35.9854 21.936 36.5674 21.936C37.1494 21.936 37.7314 22.1688 38.1969 22.6344L41.6888 26.1263C42.1544 26.5918 42.3872 27.1738 42.3872 27.7558C42.3872 28.3378 42.1544 28.9197 41.6888 29.3853L38.1969 32.8772C37.7314 33.3427 37.1494 33.5755 36.5674 33.5755ZM36.5674 24.2639L33.0756 27.7558L36.5674 31.2476L40.0593 27.7558L36.5674 24.2639ZM36.5674 52.1987C35.9854 52.1987 35.4035 51.9659 34.9379 51.5004L31.446 48.0085C30.9805 47.5429 30.7477 46.961 30.7477 46.379C30.7477 45.797 30.9805 45.215 31.446 44.7495L34.9379 41.2576C35.4035 40.792 35.9854 40.5592 36.5674 40.5592C37.1494 40.5592 37.7314 40.792 38.1969 41.2576L41.6888 44.7495C42.1544 45.215 42.3872 45.797 42.3872 46.379C42.3872 46.961 42.1544 47.5429 41.6888 48.0085L38.1969 51.5004C37.7314 51.9659 37.1494 52.1987 36.5674 52.1987ZM36.5674 42.8871L33.0756 46.379L36.5674 49.8708L40.0593 46.379L36.5674 42.8871ZM27.2558 42.8871C26.6738 42.8871 26.0919 42.6543 25.6263 42.1888L22.1344 38.6969C21.6689 38.2313 21.4361 37.6494 21.4361 37.0674C21.4361 36.4854 21.6689 35.9034 22.1344 35.4379L25.6263 31.946C26.0919 31.4804 26.6738 31.2476 27.2558 31.2476C27.8378 31.2476 28.4198 31.4804 28.8853 31.946L32.3772 35.4379C32.8428 35.9034 33.0756 36.4854 33.0756 37.0674C33.0756 37.6494 32.8428 38.2313 32.3772 38.6969L28.8853 42.1888C28.4198 42.6543 27.8378 42.8871 27.2558 42.8871ZM27.2558 33.5755L23.764 37.0674L27.2558 40.5592L30.7477 37.0674L27.2558 33.5755Z" fill="#AA6CFF"/>
</svg>
