<svg width="72" height="73" viewBox="0 0 72 73" fill="none" xmlns="http://www.w3.org/2000/svg">
<path d="M70.5 36.4995V36.5001C70.5 43.3261 68.4751 49.9987 64.6815 55.6735C60.8879 61.3483 55.4962 65.7702 49.1886 68.3796C42.881 70.9891 35.9411 71.6687 29.2471 70.3326C22.5531 68.9965 16.4059 65.7047 11.5835 60.8738C6.76096 56.0428 3.47994 49.8899 2.15558 43.1935C0.831217 36.4972 1.52305 29.5585 4.14354 23.2555C6.76403 16.9526 11.1954 11.5686 16.8768 7.78497C22.5583 4.00134 29.2344 1.9881 36.0604 2.00005L36.0609 2.00005C45.2013 2.01286 53.9627 5.65365 60.4202 12.1225C66.8778 18.5914 70.5032 27.3592 70.5 36.4995Z" stroke="#AA6CFF" stroke-width="3"/>
<path d="M36.9878 36.3949L41.1909 40.598C41.4992 40.9063 41.6533 41.2986 41.6533 41.7749C41.6533 42.2513 41.4992 42.6436 41.1909 42.9518C40.8827 43.26 40.4904 43.4141 40.014 43.4141C39.5377 43.4141 39.1454 43.26 38.8372 42.9518L34.1296 38.2443C33.9615 38.0761 33.8354 37.8867 33.7514 37.676C33.6673 37.4664 33.6253 37.2495 33.6253 37.0254V30.3423C33.6253 29.866 33.7867 29.4664 34.1095 29.1436C34.4311 28.8219 34.8302 28.6611 35.3065 28.6611C35.7829 28.6611 36.1825 28.8219 36.5053 29.1436C36.8269 29.4664 36.9878 29.866 36.9878 30.3423V36.3949ZM35.3065 52.1987C31.916 52.1987 28.8757 51.1967 26.1857 49.1926C23.4957 47.1897 21.6883 44.577 20.7636 41.3546C20.6235 40.8502 20.6728 40.3739 20.9116 39.9255C21.1492 39.4772 21.5202 39.197 22.0246 39.0849C22.5009 38.9728 22.9285 39.0776 23.3074 39.3993C23.6851 39.7221 23.944 40.1217 24.0841 40.598C24.8126 43.0639 26.221 45.0534 28.3091 46.5665C30.3961 48.0796 32.7286 48.8362 35.3065 48.8362C38.585 48.8362 41.3658 47.6941 43.6489 45.4098C45.9332 43.1266 47.0753 40.3458 47.0753 37.0674C47.0753 33.7889 45.9332 31.0076 43.6489 28.7233C41.3658 26.4401 38.585 25.2986 35.3065 25.2986C33.3731 25.2986 31.5657 25.7469 29.8845 26.6436C28.2032 27.5402 26.7881 28.7732 25.6393 30.3423H28.5815C29.0578 30.3423 29.4574 30.5032 29.7802 30.8249C30.1019 31.1477 30.2627 31.5472 30.2627 32.0236C30.2627 32.5 30.1019 32.899 29.7802 33.2207C29.4574 33.5435 29.0578 33.7049 28.5815 33.7049H21.8564C21.3801 33.7049 20.9811 33.5435 20.6594 33.2207C20.3366 32.899 20.1752 32.5 20.1752 32.0236V25.2986C20.1752 24.8222 20.3366 24.4226 20.6594 24.0998C20.9811 23.7781 21.3801 23.6173 21.8564 23.6173C22.3328 23.6173 22.7324 23.7781 23.0552 24.0998C23.3769 24.4226 23.5377 24.8222 23.5377 25.2986V27.5683C24.9668 25.7749 26.7114 24.3879 28.7715 23.4071C30.8304 22.4264 33.0088 21.936 35.3065 21.936C37.4081 21.936 39.3768 22.3351 41.2128 23.1331C43.0476 23.9323 44.6448 25.0111 46.0044 26.3695C47.3628 27.7291 48.4416 29.3263 49.2408 31.1611C50.0388 32.9971 50.4379 34.9658 50.4379 37.0674C50.4379 39.169 50.0388 41.1372 49.2408 42.972C48.4416 44.8079 47.3628 46.4051 46.0044 47.7636C44.6448 49.1231 43.0476 50.2025 41.2128 51.0017C39.3768 51.7997 37.4081 52.1987 35.3065 52.1987Z" fill="#AA6CFF"/>
</svg>
