<svg width="72" height="73" viewBox="0 0 72 73" fill="none" xmlns="http://www.w3.org/2000/svg">
<path d="M70.5 36.4995V36.5001C70.5 43.3261 68.4751 49.9987 64.6815 55.6735C60.8879 61.3483 55.4962 65.7702 49.1886 68.3796C42.881 70.9891 35.9411 71.6687 29.2471 70.3326C22.5531 68.9965 16.4059 65.7047 11.5835 60.8738C6.76096 56.0428 3.47994 49.8899 2.15558 43.1935C0.831217 36.4972 1.52305 29.5585 4.14354 23.2555C6.76403 16.9526 11.1954 11.5686 16.8768 7.78497C22.5583 4.00134 29.2344 1.9881 36.0604 2.00005L36.0609 2.00005C45.2013 2.01286 53.9627 5.65365 60.4202 12.1225C66.8778 18.5914 70.5032 27.3592 70.5 36.4995Z" stroke="#AA6CFF" stroke-width="3"/>
<path d="M34.9895 52.1987V48.584C33.56 48.2478 32.3263 47.6033 31.2884 46.6506C30.2495 45.6979 29.4872 44.3528 29.0017 42.6155L31.9956 41.3546C32.4002 42.6996 33.0006 43.7224 33.7968 44.4229C34.592 45.1234 35.6369 45.4737 36.9315 45.4737C38.0374 45.4737 38.9749 45.2148 39.7442 44.6969C40.5124 44.178 40.8964 43.3721 40.8964 42.2793C40.8964 41.2986 40.5997 40.5207 40.0064 39.9457C39.413 39.3718 38.0374 38.7206 35.8796 37.9921C33.56 37.2355 31.9687 36.3321 31.1056 35.2819C30.2425 34.2305 29.8109 32.9483 29.8109 31.4352C29.8109 29.6138 30.3773 28.1987 31.5101 27.19C32.643 26.1812 33.8028 25.6068 34.9895 25.4667V21.936H38.2262V25.4667C39.5748 25.6909 40.6877 26.202 41.5648 27C42.4409 27.7992 43.0812 28.7732 43.4858 29.922L40.4919 31.267C40.1682 30.3704 39.7097 29.6979 39.1163 29.2495C38.5229 28.8012 37.7137 28.577 36.6888 28.577C35.502 28.577 34.5984 28.8505 33.9781 29.3975C33.3577 29.9433 33.0476 30.6225 33.0476 31.4352C33.0476 32.3599 33.4521 33.0884 34.2613 33.6208C35.0705 34.1532 36.473 34.7136 38.4689 35.3021C40.33 35.8625 41.7396 36.7519 42.6976 37.9702C43.6546 39.1897 44.1331 40.598 44.1331 42.1952C44.1331 44.1847 43.5667 45.6979 42.4338 46.7346C41.301 47.7714 39.8985 48.4159 38.2262 48.6681V52.1987H34.9895Z" fill="#AA6CFF"/>
</svg>
