<svg width="478" height="483" viewBox="0 0 478 483" fill="none" xmlns="http://www.w3.org/2000/svg">
<g style="mix-blend-mode:screen">
<path d="M207.25 461.837L206.512 460.535L302.08 405.092L201.088 346.495C200.974 346.43 200.88 346.335 200.817 346.22C200.753 346.105 200.722 345.975 200.726 345.844C200.725 345.712 200.759 345.582 200.825 345.467C200.891 345.353 200.987 345.258 201.102 345.193L310.079 284.138V201.385C310.076 201.253 310.11 201.122 310.176 201.007C310.242 200.893 310.339 200.798 310.455 200.735C310.566 200.667 310.694 200.631 310.824 200.631C310.954 200.631 311.082 200.667 311.193 200.735L374.36 237.88V129.626L357.118 118.459C357.01 118.392 356.922 118.298 356.861 118.187C356.8 118.075 356.769 117.95 356.771 117.823V87.0566H358.218V117.432L375.459 128.599C375.565 128.665 375.652 128.757 375.713 128.866C375.774 128.974 375.806 129.097 375.807 129.221V239.153C375.808 239.285 375.774 239.415 375.708 239.53C375.642 239.644 375.546 239.739 375.431 239.804C375.316 239.868 375.186 239.902 375.054 239.902C374.923 239.902 374.793 239.868 374.678 239.804L311.569 202.673V284.557C311.568 284.693 311.532 284.826 311.463 284.943C311.395 285.06 311.297 285.156 311.178 285.223L202.968 345.873L303.946 404.455C304.059 404.519 304.154 404.611 304.22 404.723C304.286 404.835 304.321 404.962 304.322 405.092C304.319 405.223 304.283 405.351 304.218 405.465C304.152 405.579 304.058 405.674 303.946 405.743L207.25 461.837Z" fill="url(#paint0_linear_34_33292)"/>
<path d="M300.938 476.866L212.327 425.227C212.212 425.163 212.117 425.069 212.051 424.956C211.985 424.843 211.95 424.714 211.95 424.583C211.95 424.452 211.985 424.323 212.051 424.21C212.117 424.097 212.212 424.003 212.327 423.939L324.312 358.299C324.426 358.231 324.556 358.196 324.689 358.196C324.821 358.196 324.951 358.231 325.065 358.299L367.547 383.916L424.784 351.659V317.566L396.159 301.395C396.043 301.33 395.948 301.235 395.881 301.121C395.815 301.006 395.781 300.876 395.782 300.744V235.421C395.784 235.293 395.817 235.167 395.881 235.056C395.944 234.945 396.035 234.851 396.144 234.785C396.255 234.717 396.383 234.681 396.513 234.681C396.643 234.681 396.771 234.717 396.882 234.785L417.841 246.154V132.78C417.839 132.646 417.875 132.514 417.944 132.399C418.013 132.284 418.113 132.191 418.232 132.129C418.344 132.066 418.471 132.032 418.6 132.032C418.73 132.032 418.857 132.066 418.969 132.129L453.685 152.929L452.918 154.216L419.389 134.096V247.398C419.388 247.528 419.352 247.655 419.286 247.767C419.22 247.878 419.126 247.971 419.013 248.034C418.9 248.098 418.773 248.131 418.644 248.131C418.515 248.131 418.388 248.098 418.275 248.034L397.316 236.665V300.31L425.927 316.481C426.039 316.549 426.133 316.645 426.198 316.759C426.264 316.872 426.3 317.001 426.303 317.132V352.021C426.3 352.152 426.264 352.281 426.198 352.395C426.133 352.508 426.039 352.604 425.927 352.672L367.938 385.434C367.824 385.502 367.694 385.537 367.562 385.537C367.43 385.537 367.3 385.502 367.186 385.434L324.674 359.817L214.178 424.576L301.704 475.578L300.938 476.866Z" fill="url(#paint1_linear_34_33292)"/>
<path d="M439.827 460.998L366.535 418.197C366.423 418.129 366.329 418.033 366.263 417.919C366.198 417.806 366.162 417.677 366.159 417.546C366.163 417.413 366.201 417.284 366.27 417.17C366.338 417.056 366.434 416.961 366.549 416.895L424.018 384.783L323.676 326.823C323.562 326.758 323.469 326.663 323.405 326.548C323.341 326.433 323.31 326.303 323.314 326.172C323.313 326.038 323.348 325.907 323.417 325.792C323.486 325.677 323.586 325.583 323.705 325.521L353.603 309.35V147.852C353.606 147.72 353.642 147.592 353.708 147.478C353.774 147.364 353.867 147.269 353.98 147.201C354.093 147.133 354.223 147.098 354.356 147.098C354.488 147.098 354.618 147.133 354.732 147.201L395.233 171.125V64.8101H396.679V172.442C396.681 172.574 396.647 172.705 396.581 172.82C396.515 172.935 396.42 173.03 396.304 173.095C396.189 173.16 396.058 173.193 395.925 173.19C395.793 173.187 395.663 173.148 395.551 173.078L355.05 149.154V309.784C355.051 309.92 355.015 310.053 354.946 310.17C354.878 310.288 354.779 310.384 354.659 310.449L325.571 326.201L425.927 384.147C426.042 384.212 426.138 384.306 426.204 384.421C426.27 384.535 426.304 384.665 426.303 384.798C426.302 384.929 426.265 385.058 426.196 385.17C426.127 385.282 426.029 385.374 425.912 385.434L368.444 417.575L440.609 459.725L439.827 460.998Z" fill="url(#paint2_linear_34_33292)"/>
<path d="M149.652 425.43L148.929 424.128L295.427 342.561L222.221 301.033C222.101 300.97 222.002 300.874 221.936 300.756C221.869 300.638 221.838 300.503 221.845 300.368C221.846 300.238 221.882 300.111 221.948 299.999C222.014 299.888 222.108 299.795 222.221 299.732L280.456 267.765V226.699C280.457 226.57 280.492 226.442 280.558 226.331C280.625 226.219 280.719 226.127 280.832 226.063C280.945 226 281.072 225.966 281.201 225.966C281.33 225.966 281.457 226 281.57 226.063L327.177 252.663V136.44L293.431 116.84C293.315 116.775 293.22 116.681 293.154 116.566C293.087 116.452 293.053 116.321 293.055 116.189V23.8467H294.501V115.77L328.291 135.355C328.403 135.423 328.496 135.518 328.562 135.632C328.628 135.746 328.664 135.874 328.667 136.006V253.965C328.668 254.098 328.634 254.228 328.568 254.342C328.502 254.457 328.406 254.551 328.291 254.616C328.176 254.681 328.046 254.715 327.915 254.715C327.783 254.715 327.653 254.681 327.538 254.616L281.946 228.001V268.199C281.947 268.333 281.912 268.464 281.843 268.579C281.774 268.694 281.674 268.788 281.555 268.849L224.116 300.354L297.322 341.911C297.436 341.977 297.531 342.071 297.597 342.186C297.663 342.3 297.698 342.43 297.698 342.561C297.699 342.694 297.665 342.824 297.599 342.938C297.533 343.053 297.437 343.148 297.322 343.212L149.652 425.43Z" fill="url(#paint3_linear_34_33292)"/>
<path d="M337.504 435.193L324.269 426.384C324.163 426.313 324.077 426.215 324.018 426.102C323.96 425.988 323.932 425.861 323.936 425.733C323.944 425.607 323.982 425.484 324.048 425.376C324.113 425.267 324.204 425.176 324.312 425.111L366.622 401.157L338.112 384.176C337.997 384.108 337.903 384.01 337.839 383.893C337.775 383.776 337.745 383.644 337.75 383.511C337.751 383.379 337.788 383.25 337.857 383.138C337.926 383.026 338.024 382.935 338.141 382.874L394.987 351.978L366.463 334.374C366.35 334.304 366.257 334.206 366.194 334.089C366.13 333.972 366.098 333.841 366.101 333.709C366.111 333.577 366.152 333.45 366.223 333.339C366.294 333.228 366.391 333.137 366.506 333.072L381.867 325.088V269.804C381.87 269.672 381.906 269.544 381.972 269.43C382.038 269.316 382.131 269.221 382.243 269.153C382.357 269.085 382.487 269.05 382.62 269.05C382.752 269.05 382.882 269.085 382.996 269.153L453.713 311.332V218.02C453.714 217.896 453.746 217.773 453.807 217.664C453.868 217.556 453.955 217.464 454.061 217.398C454.171 217.335 454.295 217.301 454.422 217.301C454.549 217.301 454.674 217.335 454.784 217.398L469.914 224.631L469.263 225.976L455.203 219.177V312.605C455.205 312.737 455.171 312.868 455.105 312.983C455.039 313.098 454.944 313.193 454.828 313.258C454.713 313.323 454.582 313.356 454.449 313.353C454.317 313.35 454.188 313.311 454.075 313.241L383.357 271.062V325.623C383.358 325.758 383.32 325.891 383.248 326.006C383.177 326.122 383.074 326.214 382.952 326.274L368.357 333.868L396.867 351.457C396.978 351.524 397.07 351.618 397.133 351.731C397.197 351.844 397.23 351.971 397.23 352.101C397.23 352.23 397.197 352.357 397.133 352.47C397.07 352.583 396.978 352.677 396.867 352.744L340.036 383.626L368.545 400.608C368.656 400.677 368.747 400.773 368.811 400.886C368.874 401 368.907 401.128 368.907 401.259C368.901 401.387 368.863 401.512 368.797 401.623C368.732 401.734 368.64 401.827 368.531 401.895L326.121 425.805L338.343 433.963L337.504 435.193Z" fill="url(#paint4_linear_34_33292)"/>
<path d="M17.1551 370.188L16.4174 368.887L43.3651 353.337L0.376049 328.66C0.26367 328.592 0.170309 328.497 0.104571 328.383C0.0388325 328.269 0.0028276 328.141 -4.72789e-05 328.009C-0.00146351 327.877 0.0327573 327.747 0.0989207 327.633C0.165084 327.518 0.260771 327.423 0.376049 327.359L195.374 217.731V134.978C195.376 134.848 195.411 134.721 195.476 134.609C195.542 134.496 195.635 134.403 195.747 134.337C195.859 134.272 195.986 134.237 196.116 134.235C196.246 134.233 196.374 134.265 196.488 134.327L252.09 166.077V118.778H253.537V167.307C253.535 167.437 253.5 167.564 253.435 167.676C253.37 167.789 253.277 167.882 253.164 167.948C253.052 168.013 252.925 168.049 252.795 168.05C252.665 168.052 252.537 168.02 252.423 167.958L196.821 136.222V218.121C196.822 218.253 196.788 218.384 196.722 218.498C196.656 218.613 196.56 218.707 196.445 218.772L2.25644 328.009L45.2455 352.701C45.3599 352.765 45.4552 352.858 45.5215 352.971C45.5878 353.084 45.6228 353.213 45.6228 353.344C45.6228 353.475 45.5878 353.604 45.5215 353.717C45.4552 353.831 45.3599 353.924 45.2455 353.988L17.1551 370.188Z" fill="url(#paint5_linear_34_33292)"/>
<path d="M84.98 443.062L84.1555 441.818L167.602 386.129L108.152 352.426C108.039 352.362 107.945 352.27 107.879 352.158C107.813 352.047 107.778 351.919 107.776 351.79C107.772 351.659 107.803 351.529 107.867 351.414C107.931 351.299 108.024 351.204 108.138 351.139L178.465 309.292C178.576 309.225 178.704 309.189 178.834 309.189C178.964 309.189 179.092 309.225 179.203 309.292L229.829 338.41L318.209 288.666V238.473L281.526 218.83C281.407 218.765 281.308 218.669 281.239 218.551C281.17 218.434 281.135 218.301 281.136 218.165V168.985C281.134 168.854 281.167 168.726 281.23 168.612C281.294 168.498 281.386 168.402 281.497 168.334C281.611 168.273 281.737 168.242 281.866 168.242C281.995 168.242 282.121 168.273 282.235 168.334L303.194 179.718V65.5915C303.193 65.4592 303.227 65.329 303.293 65.2145C303.359 65.1 303.455 65.0054 303.57 64.9405C303.685 64.8759 303.815 64.842 303.946 64.842C304.078 64.842 304.208 64.8759 304.322 64.9405L325.238 77.5104V59.2993H326.685V78.8266C326.686 78.9589 326.652 79.0891 326.586 79.2036C326.52 79.3181 326.424 79.4127 326.309 79.4776C326.194 79.5422 326.064 79.5761 325.933 79.5761C325.801 79.5761 325.671 79.5422 325.557 79.4776L304.641 66.9077V180.976C304.641 181.107 304.608 181.235 304.544 181.349C304.481 181.462 304.39 181.558 304.279 181.627C304.166 181.688 304.039 181.72 303.91 181.72C303.782 181.72 303.655 181.688 303.541 181.627L282.582 170.243V217.717L319.25 237.388C319.372 237.452 319.474 237.547 319.545 237.665C319.617 237.782 319.655 237.917 319.655 238.054V289.1C319.655 289.233 319.619 289.365 319.55 289.479C319.481 289.594 319.382 289.688 319.265 289.751L230.133 339.914C230.021 339.978 229.893 340.011 229.764 340.011C229.635 340.011 229.508 339.978 229.395 339.914L178.769 310.811L109.932 351.775L169.324 385.449C169.432 385.514 169.523 385.605 169.588 385.714C169.654 385.822 169.692 385.945 169.7 386.071C169.706 386.199 169.678 386.326 169.62 386.441C169.561 386.555 169.474 386.652 169.367 386.722L84.98 443.062Z" fill="url(#paint6_linear_34_33292)"/>
<path d="M309.183 385.203L251.83 351.79C251.719 351.723 251.628 351.628 251.564 351.515C251.501 351.403 251.467 351.275 251.467 351.146C251.467 351.017 251.501 350.889 251.564 350.777C251.628 350.664 251.719 350.569 251.83 350.502L309.313 318.391L202.911 257.494C202.796 257.425 202.701 257.327 202.636 257.211C202.57 257.094 202.535 256.963 202.534 256.829C202.54 256.698 202.579 256.571 202.647 256.46C202.715 256.349 202.811 256.257 202.925 256.193L232.795 240.007V49.1162H234.241V240.426C234.24 240.559 234.203 240.69 234.134 240.804C234.065 240.919 233.968 241.013 233.851 241.077L204.762 256.829L311.15 317.725C311.266 317.793 311.362 317.89 311.429 318.007C311.495 318.124 311.528 318.256 311.526 318.391C311.525 318.521 311.489 318.648 311.423 318.759C311.357 318.871 311.263 318.964 311.15 319.027L253.682 351.168L309.935 383.916L309.183 385.203Z" fill="url(#paint7_linear_34_33292)"/>
<path d="M78.2826 301.988C78.1463 301.986 78.0125 301.951 77.8921 301.887L22.3188 268.618L23.0854 267.331L78.2826 300.354L150.519 260.258L107.501 234.568C107.391 234.499 107.299 234.404 107.236 234.29C107.173 234.176 107.14 234.048 107.14 233.917C107.141 233.784 107.178 233.653 107.247 233.539C107.315 233.425 107.413 233.331 107.53 233.266L165.751 201.343V167.741C165.753 167.611 165.79 167.483 165.857 167.371C165.924 167.258 166.019 167.165 166.133 167.101C166.247 167.037 166.376 167.004 166.506 167.004C166.637 167.005 166.766 167.04 166.879 167.105L208.609 191.695V119.415L150.375 86.4644L151.098 85.1626L209.723 118.33C209.839 118.395 209.934 118.49 210 118.604C210.067 118.719 210.101 118.849 210.099 118.981V192.953C210.101 193.086 210.067 193.216 210 193.33C209.934 193.445 209.839 193.539 209.723 193.604C209.608 193.669 209.479 193.703 209.347 193.703C209.215 193.703 209.086 193.669 208.971 193.604L167.24 169.014V201.733C167.241 201.869 167.206 202.003 167.137 202.12C167.068 202.237 166.969 202.334 166.85 202.399L109.382 233.903L152.4 259.636C152.514 259.7 152.609 259.793 152.676 259.906C152.742 260.019 152.777 260.148 152.777 260.279C152.777 260.41 152.742 260.539 152.676 260.652C152.609 260.765 152.514 260.859 152.4 260.923L78.6298 301.887C78.5254 301.951 78.4054 301.986 78.2826 301.988Z" fill="url(#paint8_linear_34_33292)"/>
<path d="M90.6789 402.56L65.8431 388.414C65.7307 388.346 65.6374 388.25 65.5716 388.137C65.5059 388.023 65.4699 387.894 65.467 387.763C65.4685 387.63 65.5055 387.499 65.5742 387.385C65.6428 387.27 65.7406 387.176 65.8576 387.112L205.717 308.453L177.134 291.472C177.022 291.401 176.929 291.303 176.866 291.187C176.802 291.07 176.77 290.939 176.773 290.806C176.78 290.676 176.819 290.549 176.887 290.438C176.955 290.327 177.05 290.235 177.163 290.17L233.981 259.288L205.051 242.494C204.937 242.428 204.842 242.333 204.776 242.219C204.71 242.105 204.675 241.975 204.675 241.843C204.682 241.711 204.721 241.583 204.789 241.469C204.857 241.356 204.952 241.261 205.066 241.192L220.977 232.398V199.447C220.977 199.315 221.012 199.186 221.078 199.071C221.144 198.957 221.239 198.862 221.353 198.796C221.467 198.73 221.597 198.696 221.729 198.696C221.861 198.696 221.991 198.73 222.105 198.796L265.904 224.905V86.29H267.351V226.207C267.352 226.339 267.319 226.47 267.253 226.585C267.187 226.7 267.091 226.795 266.975 226.86C266.86 226.925 266.729 226.958 266.597 226.955C266.464 226.952 266.335 226.914 266.222 226.843L222.423 200.807V232.904C222.423 233.036 222.388 233.166 222.322 233.28C222.256 233.394 222.161 233.489 222.047 233.555L206.932 241.93L235.861 258.724C235.979 258.786 236.078 258.88 236.146 258.995C236.215 259.11 236.252 259.241 236.252 259.374C236.252 259.508 236.215 259.639 236.146 259.754C236.078 259.869 235.979 259.962 235.861 260.025L179.087 290.907L207.51 307.831C207.621 307.9 207.712 307.996 207.775 308.11C207.839 308.224 207.872 308.352 207.872 308.482C207.871 308.612 207.835 308.739 207.769 308.851C207.703 308.962 207.609 309.055 207.496 309.118L67.709 387.821L91.4311 401.316L90.6789 402.56Z" fill="url(#paint9_linear_34_33292)"/>
<path d="M239 48.0747C238.919 46.4342 238.448 44.8368 237.625 43.4153C236.802 41.9938 235.652 40.7893 234.27 39.9021C233.567 39.4585 232.757 39.2136 231.927 39.1934C230.046 39.1934 228.773 40.7411 228.773 43.0265C228.857 44.6733 229.333 46.2762 230.164 47.7007C230.994 49.1252 232.154 50.3298 233.547 51.2135C234.249 51.6444 235.052 51.8838 235.875 51.9078C237.741 51.9078 239 50.3601 239 48.0747ZM233.547 41.1895C234.7 41.9492 235.661 42.9666 236.354 44.1616C237.047 45.3565 237.453 46.6961 237.539 48.0747C237.539 49.5211 236.917 50.4179 235.875 50.4179C235.317 50.3879 234.775 50.2189 234.299 49.9262C233.145 49.1625 232.182 48.1424 231.487 46.9456C230.792 45.7487 230.383 44.4075 230.292 43.0265C230.292 41.58 230.914 40.6832 231.956 40.6832C232.521 40.7094 233.07 40.884 233.547 41.1895Z" fill="url(#paint10_linear_34_33292)"/>
<path d="M152.386 84.8581C152.306 83.2158 151.833 81.6166 151.008 80.1946C150.182 78.7726 149.028 77.5693 147.641 76.6855C146.939 76.2546 146.136 76.0152 145.312 75.9912C143.403 75.9912 142.159 77.4377 142.159 79.8244C142.239 81.4666 142.712 83.0658 143.537 84.4878C144.363 85.9098 145.517 87.1131 146.904 87.9969C147.604 88.4316 148.408 88.6713 149.232 88.6912C151.098 88.6912 152.386 87.158 152.386 84.8581ZM146.904 77.9729C148.053 78.7375 149.01 79.7561 149.702 80.95C150.395 82.1439 150.803 83.4811 150.896 84.8581C150.896 86.3045 150.274 87.2013 149.232 87.2013C148.669 87.1737 148.122 87.0046 147.641 86.7095C146.489 85.9482 145.529 84.9303 144.837 83.7358C144.144 82.5412 143.737 81.2024 143.649 79.8244C143.649 78.3779 144.271 77.4811 145.312 77.4811C145.875 77.5105 146.422 77.6795 146.904 77.9729Z" fill="url(#paint11_linear_34_33292)"/>
<path d="M271.806 85.813C271.726 84.1703 271.256 82.5704 270.433 81.1464C269.61 79.7224 268.459 78.5154 267.076 77.626C266.374 77.195 265.571 76.9556 264.747 76.9316C262.823 76.9316 261.594 78.3781 261.594 80.7648C261.676 82.4069 262.148 84.0059 262.97 85.4296C263.793 86.8532 264.942 88.0606 266.324 88.9518C267.031 89.3845 267.839 89.6239 268.667 89.6461C270.548 89.6461 271.806 88.0984 271.806 85.813ZM266.324 78.9278C267.477 79.6874 268.439 80.7049 269.131 81.8998C269.824 83.0948 270.23 84.4344 270.316 85.813C270.316 87.2594 269.694 88.1562 268.667 88.1562C268.102 88.1301 267.553 87.9555 267.076 87.65C265.922 86.8903 264.961 85.8728 264.268 84.6779C263.576 83.483 263.17 82.1433 263.084 80.7648C263.084 79.3183 263.706 78.4215 264.747 78.4215C265.308 78.4502 265.851 78.6247 266.324 78.9278Z" fill="url(#paint12_linear_34_33292)"/>
<path d="M298.291 22.2697C298.211 20.6274 297.738 19.0282 296.913 17.6062C296.087 16.1842 294.933 14.9809 293.546 14.0971C292.844 13.6662 292.041 13.4268 291.217 13.4028C289.322 13.4028 288.064 14.9361 288.064 17.236C288.151 18.8816 288.631 20.4825 289.464 21.9044C290.297 23.3263 291.459 24.5279 292.852 25.4085C293.557 25.8457 294.365 26.0901 295.195 26.1173C297.018 26.1173 298.291 24.5696 298.291 22.2697ZM292.794 15.3845C293.945 16.1466 294.905 17.1647 295.597 18.3591C296.29 19.5535 296.697 20.8919 296.786 22.2697C296.786 23.7161 296.164 24.613 295.137 24.613C294.574 24.5853 294.027 24.4162 293.546 24.1212C292.395 23.359 291.435 22.3409 290.743 21.1465C290.05 19.9521 289.643 18.6137 289.554 17.236C289.554 15.7895 290.176 14.8927 291.217 14.8927C291.795 14.913 292.358 15.0824 292.852 15.3845H292.794Z" fill="url(#paint13_linear_34_33292)"/>
<path d="M331.053 58.0268C330.972 56.3844 330.501 54.785 329.678 53.3611C328.856 51.9373 327.706 50.7302 326.323 49.8398C325.616 49.4071 324.808 49.1677 323.98 49.1455C322.099 49.1455 320.826 50.6932 320.826 52.9787C320.906 54.6209 321.379 56.2201 322.204 57.6421C323.03 59.0641 324.184 60.2674 325.571 61.1512C326.272 61.586 327.075 61.8303 327.9 61.86C329.823 61.8744 331.053 60.3701 331.053 58.0268ZM325.571 51.1416C326.724 51.9013 327.686 52.9188 328.378 54.1137C329.071 55.3086 329.477 56.6483 329.563 58.0268C329.563 59.4733 328.941 60.3701 327.9 60.3701C327.339 60.3414 326.796 60.1669 326.323 59.8638C325.169 59.1041 324.208 58.0867 323.515 56.8918C322.823 55.6968 322.417 54.3572 322.331 52.9787C322.331 51.5322 322.938 50.6354 323.98 50.6354C324.547 50.6659 325.096 50.8455 325.571 51.1561V51.1416Z" fill="url(#paint14_linear_34_33292)"/>
<path d="M257.63 117.881C257.549 116.239 257.077 114.64 256.254 113.217C255.432 111.793 254.282 110.586 252.901 109.694C252.194 109.262 251.386 109.022 250.557 109C248.677 109 247.404 110.548 247.404 112.833C247.486 114.477 247.96 116.077 248.785 117.501C249.61 118.925 250.763 120.131 252.148 121.02C252.851 121.451 253.654 121.69 254.477 121.714C256.372 121.671 257.63 120.225 257.63 117.881ZM252.148 110.996C253.302 111.756 254.263 112.773 254.956 113.968C255.649 115.163 256.054 116.503 256.141 117.881C256.141 119.328 255.519 120.225 254.477 120.225C253.916 120.196 253.373 120.021 252.901 119.718C251.745 118.959 250.782 117.942 250.086 116.748C249.391 115.553 248.983 114.213 248.894 112.833C248.894 111.387 249.516 110.49 250.557 110.49C251.123 110.516 251.672 110.691 252.148 110.996Z" fill="url(#paint15_linear_34_33292)"/>
<path d="M362.63 86.1157C362.55 84.4734 362.077 82.8742 361.252 81.4522C360.426 80.0302 359.272 78.8269 357.885 77.9431C357.187 77.5001 356.382 77.2551 355.556 77.2344C353.676 77.2344 352.403 78.7821 352.403 81.0675C352.485 82.7112 352.959 84.3115 353.784 85.7354C354.609 87.1594 355.762 88.3658 357.147 89.2545C357.848 89.6892 358.652 89.9289 359.476 89.9488C361.357 89.9488 362.63 88.4011 362.63 86.1157ZM357.147 79.2305C358.299 79.9927 359.258 81.0107 359.951 82.2051C360.643 83.3995 361.05 84.7379 361.14 86.1157C361.14 87.5622 360.518 88.459 359.476 88.459C358.911 88.4328 358.362 88.2582 357.885 87.9527C356.732 87.193 355.77 86.1755 355.078 84.9806C354.385 83.7857 353.979 82.4461 353.893 81.0675C353.893 79.621 354.515 78.7242 355.556 78.7242C356.122 78.7524 356.67 78.9269 357.147 79.2305Z" fill="url(#paint16_linear_34_33292)"/>
<path d="M400.382 63.5524C400.302 61.912 399.83 60.3145 399.007 58.893C398.185 57.4715 397.034 56.267 395.652 55.3798C394.945 54.9471 394.137 54.7077 393.309 54.6855C391.429 54.6855 390.156 56.2188 390.156 58.5187C390.236 60.161 390.708 61.7602 391.534 63.1821C392.359 64.6041 393.514 65.8075 394.9 66.6912C395.602 67.124 396.405 67.3636 397.229 67.3855C399.124 67.3855 400.382 65.8523 400.382 63.5524ZM394.9 56.6672C396.051 57.4294 397.011 58.4474 397.703 59.6418C398.396 60.8362 398.803 62.1746 398.892 63.5524C398.892 64.9989 398.27 65.8957 397.229 65.8957C396.671 65.8656 396.129 65.6966 395.652 65.4039C394.499 64.6425 393.537 63.6249 392.842 62.4306C392.147 61.2362 391.738 59.8974 391.646 58.5187C391.646 57.0722 392.268 56.1754 393.309 56.1754C393.872 56.203 394.419 56.3722 394.9 56.6672Z" fill="url(#paint17_linear_34_33292)"/>
<path d="M462.089 157.992C462.008 156.349 461.537 154.75 460.714 153.326C459.892 151.902 458.741 150.695 457.359 149.805C456.652 149.372 455.844 149.133 455.015 149.11C453.135 149.11 451.862 150.644 451.862 152.943C451.942 154.586 452.415 156.185 453.24 157.607C454.066 159.029 455.22 160.232 456.607 161.116C457.308 161.551 458.111 161.795 458.935 161.825C460.888 161.825 462.089 160.277 462.089 157.992ZM456.607 151.092C457.759 151.856 458.719 152.877 459.411 154.074C460.104 155.271 460.51 156.612 460.599 157.992C460.599 159.438 459.977 160.335 458.935 160.335C458.375 160.306 457.831 160.132 457.359 159.829C456.203 159.07 455.24 158.053 454.545 156.858C453.849 155.663 453.441 154.323 453.352 152.943C453.352 151.497 453.974 150.6 455.015 150.6C455.599 150.618 456.167 150.788 456.664 151.092H456.607Z" fill="url(#paint18_linear_34_33292)"/>
<path d="M477.595 228.797C477.513 227.155 477.039 225.557 476.214 224.135C475.388 222.714 474.235 221.51 472.85 220.624C472.148 220.194 471.345 219.954 470.522 219.93C468.627 219.93 467.368 221.463 467.368 223.763C467.449 225.404 467.92 227.001 468.743 228.423C469.566 229.844 470.716 231.049 472.098 231.936C472.805 232.369 473.613 232.608 474.442 232.63C476.351 232.63 477.595 231.126 477.595 228.797ZM472.098 221.912C473.251 222.673 474.213 223.691 474.908 224.885C475.603 226.079 476.013 227.418 476.105 228.797C476.105 230.244 475.483 231.14 474.442 231.14C473.878 231.113 473.331 230.944 472.85 230.649C471.699 229.886 470.74 228.868 470.047 227.674C469.355 226.479 468.948 225.141 468.858 223.763C468.858 222.317 469.48 221.42 470.522 221.42C471.08 221.448 471.623 221.617 472.098 221.912Z" fill="url(#paint19_linear_34_33292)"/>
<path d="M448.824 465.28C449.432 464.998 449.953 464.558 450.333 464.006C450.712 463.453 450.935 462.809 450.98 462.141C450.933 461.465 450.706 460.815 450.321 460.258C449.937 459.7 449.41 459.257 448.796 458.973C447.325 458.245 445.706 457.866 444.066 457.866C442.425 457.866 440.806 458.245 439.336 458.973C438.696 459.218 438.146 459.651 437.758 460.216C437.37 460.78 437.162 461.449 437.162 462.134C437.162 462.818 437.37 463.487 437.758 464.051C438.146 464.616 438.696 465.049 439.336 465.294C440.798 466.076 442.437 466.469 444.095 466.437C445.745 466.467 447.375 466.068 448.824 465.28ZM448.043 460.26C448.425 460.424 448.758 460.683 449.012 461.012C449.265 461.341 449.43 461.73 449.49 462.141C449.49 462.806 448.984 463.457 448.043 463.992C446.803 464.592 445.443 464.903 444.066 464.903C442.688 464.903 441.328 464.592 440.088 463.992C439.705 463.83 439.371 463.571 439.118 463.242C438.864 462.912 438.7 462.523 438.641 462.112C438.698 461.703 438.862 461.317 439.116 460.992C439.37 460.667 439.705 460.414 440.088 460.26C441.321 459.637 442.684 459.313 444.066 459.313C445.447 459.313 446.81 459.637 448.043 460.26Z" fill="url(#paint20_linear_34_33292)"/>
<path d="M346.371 439.894C347.011 439.649 347.561 439.216 347.949 438.651C348.337 438.087 348.545 437.418 348.545 436.733C348.545 436.049 348.337 435.38 347.949 434.816C347.561 434.251 347.011 433.818 346.371 433.573C344.9 432.848 343.282 432.471 341.641 432.471C340.001 432.471 338.383 432.848 336.911 433.573C336.304 433.856 335.784 434.296 335.405 434.848C335.026 435.4 334.802 436.044 334.756 436.712C334.803 437.389 335.031 438.041 335.415 438.6C335.799 439.16 336.326 439.607 336.94 439.894C338.405 440.641 340.026 441.03 341.67 441.03C343.315 441.03 344.935 440.641 346.4 439.894H346.371ZM345.59 434.86C345.973 435.023 346.307 435.281 346.56 435.611C346.814 435.94 346.978 436.329 347.037 436.741C346.979 437.151 346.816 437.539 346.562 437.866C346.308 438.194 345.973 438.449 345.59 438.607C344.349 439.203 342.99 439.513 341.612 439.513C340.235 439.513 338.876 439.203 337.635 438.607C337.251 438.442 336.916 438.181 336.663 437.849C336.41 437.517 336.246 437.125 336.188 436.712C336.188 436.046 336.68 435.395 337.635 434.86C338.871 434.246 340.232 433.926 341.612 433.926C342.993 433.926 344.354 434.246 345.59 434.86Z" fill="url(#paint21_linear_34_33292)"/>
<path d="M317.254 390.367C317.862 390.086 318.383 389.646 318.762 389.093C319.141 388.541 319.365 387.897 319.409 387.228C319.363 386.551 319.137 385.898 318.752 385.338C318.368 384.778 317.841 384.332 317.225 384.046C315.755 383.326 314.139 382.951 312.502 382.951C310.865 382.951 309.25 383.326 307.779 384.046C307.168 384.328 306.643 384.77 306.262 385.325C305.88 385.88 305.655 386.527 305.61 387.199C305.656 387.875 305.884 388.525 306.268 389.082C306.652 389.64 307.179 390.083 307.794 390.367C309.257 391.147 310.895 391.54 312.553 391.51C314.192 391.541 315.812 391.147 317.254 390.367ZM316.487 385.348C316.871 385.509 317.205 385.767 317.459 386.097C317.712 386.427 317.876 386.816 317.934 387.228C317.878 387.637 317.715 388.024 317.461 388.35C317.207 388.675 316.871 388.927 316.487 389.08C315.244 389.679 313.882 389.991 312.502 389.991C311.122 389.991 309.76 389.679 308.517 389.08C308.136 388.915 307.804 388.656 307.551 388.327C307.297 387.998 307.132 387.61 307.071 387.199C307.127 386.791 307.291 386.404 307.545 386.079C307.799 385.754 308.134 385.502 308.517 385.348C309.735 384.697 311.1 384.373 312.481 384.408C313.875 384.37 315.255 384.694 316.487 385.348Z" fill="url(#paint22_linear_34_33292)"/>
<path d="M309.718 481.364C310.329 481.082 310.854 480.641 311.236 480.086C311.618 479.531 311.843 478.883 311.887 478.211C311.841 477.536 311.613 476.885 311.229 476.328C310.845 475.771 310.318 475.327 309.703 475.043C308.233 474.315 306.614 473.937 304.973 473.937C303.333 473.937 301.714 474.315 300.243 475.043C299.636 475.326 299.116 475.766 298.737 476.319C298.358 476.871 298.134 477.514 298.088 478.182C298.134 478.86 298.361 479.512 298.745 480.072C299.129 480.632 299.657 481.078 300.272 481.364C301.735 482.111 303.353 482.5 304.995 482.5C306.637 482.5 308.255 482.111 309.718 481.364ZM308.951 476.331C309.332 476.496 309.665 476.755 309.918 477.084C310.171 477.413 310.336 477.801 310.398 478.211C310.34 478.621 310.177 479.009 309.923 479.337C309.669 479.664 309.334 479.919 308.951 480.077C307.708 480.677 306.346 480.988 304.966 480.988C303.586 480.988 302.224 480.677 300.981 480.077C300.598 479.916 300.263 479.658 300.009 479.328C299.756 478.998 299.592 478.608 299.535 478.197C299.535 477.531 300.041 476.88 300.981 476.345C302.217 475.731 303.579 475.411 304.959 475.411C306.339 475.411 307.701 475.731 308.937 476.345L308.951 476.331Z" fill="url(#paint23_linear_34_33292)"/>
<path d="M208.725 466.45C209.332 466.167 209.852 465.727 210.232 465.175C210.611 464.623 210.835 463.979 210.881 463.311C210.832 462.634 210.604 461.983 210.22 461.424C209.836 460.864 209.31 460.417 208.696 460.129C207.228 459.404 205.612 459.027 203.974 459.027C202.336 459.027 200.72 459.404 199.251 460.129C198.639 460.411 198.115 460.853 197.733 461.407C197.351 461.962 197.126 462.61 197.081 463.282C197.128 463.958 197.355 464.608 197.74 465.165C198.124 465.722 198.651 466.166 199.265 466.45C200.729 467.23 202.367 467.623 204.024 467.593C205.664 467.624 207.283 467.23 208.725 466.45ZM207.944 461.431C208.328 461.592 208.662 461.85 208.916 462.18C209.17 462.509 209.333 462.899 209.391 463.311C209.391 463.976 208.885 464.627 207.944 465.163C206.703 465.759 205.344 466.069 203.967 466.069C202.589 466.069 201.23 465.759 199.989 465.163C199.608 464.998 199.275 464.739 199.022 464.41C198.769 464.081 198.604 463.693 198.542 463.282C198.599 462.874 198.763 462.487 199.017 462.162C199.271 461.837 199.606 461.585 199.989 461.431C201.222 460.808 202.585 460.483 203.967 460.483C205.348 460.483 206.711 460.808 207.944 461.431Z" fill="url(#paint24_linear_34_33292)"/>
<path d="M151.778 430.505C152.417 430.26 152.968 429.827 153.356 429.262C153.744 428.698 153.951 428.029 153.951 427.345C153.951 426.66 153.744 425.991 153.356 425.427C152.968 424.862 152.417 424.429 151.778 424.184C150.309 423.459 148.693 423.083 147.055 423.083C145.417 423.083 143.801 423.459 142.332 424.184C141.693 424.429 141.143 424.862 140.755 425.427C140.367 425.991 140.159 426.66 140.159 427.345C140.159 428.029 140.367 428.698 140.755 429.262C141.143 429.827 141.693 430.26 142.332 430.505C143.795 431.252 145.413 431.641 147.055 431.641C148.697 431.641 150.316 431.252 151.778 430.505ZM151.011 425.471C151.393 425.64 151.725 425.902 151.978 426.233C152.231 426.564 152.396 426.954 152.458 427.366C152.458 428.032 151.952 428.683 151.011 429.218C149.768 429.814 148.406 430.124 147.026 430.124C145.647 430.124 144.285 429.814 143.041 429.218C142.658 429.052 142.325 428.79 142.071 428.459C141.818 428.127 141.654 427.736 141.595 427.323C141.595 426.657 142.101 426.007 143.041 425.471C144.263 424.832 145.626 424.514 147.005 424.546C148.393 424.497 149.771 424.801 151.011 425.428V425.471Z" fill="url(#paint25_linear_34_33292)"/>
<path d="M86.0067 447.705C86.6145 447.422 87.1359 446.982 87.5173 446.43C87.8986 445.878 88.1261 445.235 88.1764 444.566C88.1382 443.883 87.9165 443.223 87.5346 442.656C87.1528 442.088 86.625 441.634 86.0067 441.341C84.5378 440.616 82.9218 440.239 81.2839 440.239C79.646 440.239 78.0301 440.616 76.5612 441.341C75.9217 441.586 75.3717 442.019 74.9836 442.584C74.5956 443.148 74.3879 443.816 74.3879 444.501C74.3879 445.186 74.5956 445.855 74.9836 446.419C75.3717 446.983 75.9217 447.417 76.5612 447.662C78.0235 448.408 79.6421 448.798 81.2839 448.798C82.9258 448.798 84.5444 448.408 86.0067 447.662V447.705ZM85.24 442.672C85.6228 442.838 85.9567 443.099 86.2099 443.431C86.4631 443.762 86.6272 444.153 86.6865 444.566C86.6297 444.975 86.4661 445.361 86.2121 445.687C85.9581 446.012 85.6228 446.264 85.24 446.418C83.9963 447.015 82.6345 447.324 81.2551 447.324C79.8756 447.324 78.5138 447.015 77.2701 446.418C76.8876 446.255 76.5535 445.997 76.3001 445.667C76.0467 445.338 75.8826 444.949 75.8236 444.537C75.8808 444.127 76.0444 443.739 76.2982 443.412C76.552 443.084 76.887 442.829 77.2701 442.672C78.4915 442.033 79.8552 441.714 81.2334 441.746C82.6208 441.713 83.994 442.032 85.2256 442.672H85.24Z" fill="url(#paint26_linear_34_33292)"/>
<path d="M99.1408 406.872C99.7816 406.63 100.334 406.199 100.723 405.635C101.113 405.072 101.321 404.403 101.321 403.718C101.321 403.033 101.113 402.365 100.723 401.801C100.334 401.238 99.7816 400.807 99.1408 400.565C97.6728 399.837 96.0565 399.458 94.418 399.458C92.7796 399.458 91.1632 399.837 89.6953 400.565C89.0545 400.807 88.5025 401.238 88.113 401.801C87.7234 402.365 87.5147 403.033 87.5147 403.718C87.5147 404.403 87.7234 405.072 88.113 405.635C88.5025 406.199 89.0545 406.63 89.6953 406.872C91.1511 407.658 92.7852 408.057 94.4398 408.029C96.0806 408.057 97.7007 407.659 99.1408 406.872ZM98.3741 401.852C98.755 402.017 99.0877 402.276 99.3408 402.605C99.5938 402.934 99.7589 403.322 99.8206 403.733C99.7638 404.141 99.6001 404.528 99.3461 404.853C99.0922 405.178 98.7569 405.43 98.3741 405.584C97.1338 406.184 95.7739 406.495 94.3963 406.495C93.0187 406.495 91.6589 406.184 90.4185 405.584C90.036 405.422 89.7019 405.163 89.4485 404.834C89.1952 404.504 89.0311 404.115 88.9721 403.704C89.0289 403.295 89.1925 402.909 89.4465 402.584C89.7005 402.259 90.0358 402.006 90.4185 401.852C91.6316 401.203 92.9921 400.879 94.3675 400.912C95.7612 400.88 97.1402 401.204 98.3741 401.852Z" fill="url(#paint27_linear_34_33292)"/>
<path d="M18.3991 374.919C19.0108 374.637 19.5352 374.195 19.9171 373.64C20.2989 373.085 20.524 372.437 20.5688 371.765C20.5222 371.09 20.2948 370.44 19.9105 369.882C19.5263 369.325 18.9992 368.881 18.3846 368.597C16.9141 367.869 15.2954 367.491 13.6546 367.491C12.0138 367.491 10.3952 367.869 8.92473 368.597C8.31775 368.88 7.79763 369.321 7.41859 369.873C7.03954 370.425 6.81536 371.068 6.76942 371.736C6.81504 372.414 7.04186 373.067 7.42609 373.626C7.81032 374.186 8.33786 374.632 8.9536 374.919C10.4159 375.665 12.0344 376.054 13.6763 376.054C15.3182 376.054 16.9368 375.665 18.3991 374.919ZM17.6324 369.885C18.0133 370.05 18.346 370.309 18.5991 370.638C18.8521 370.967 19.0172 371.355 19.0789 371.765C19.0217 372.175 18.858 372.564 18.6043 372.891C18.3505 373.218 18.0154 373.474 17.6324 373.631C16.392 374.231 15.0322 374.542 13.6546 374.542C12.277 374.542 10.9172 374.231 9.67684 373.631C9.29354 373.47 8.95873 373.212 8.70517 372.882C8.45161 372.552 8.28799 372.163 8.23037 371.751C8.23037 371.085 8.72217 370.434 9.67684 369.899C10.9129 369.285 12.2744 368.965 13.6546 368.965C15.0349 368.965 16.3964 369.285 17.6324 369.899V369.885Z" fill="url(#paint28_linear_34_33292)"/>
<path d="M24.5321 269.21C25.1716 268.965 25.7217 268.532 26.1097 267.968C26.4977 267.403 26.7054 266.735 26.7054 266.05C26.7054 265.365 26.4977 264.696 26.1097 264.132C25.7217 263.568 25.1716 263.134 24.5321 262.889C23.0642 262.161 21.4479 261.783 19.8094 261.783C18.1709 261.783 16.5546 262.161 15.0866 262.889C14.477 263.17 13.954 263.61 13.5723 264.162C13.1906 264.714 12.9642 265.359 12.9169 266.028C12.9668 266.708 13.1985 267.362 13.5878 267.922C13.9772 268.482 14.5098 268.927 15.1301 269.21C16.5924 269.957 18.2109 270.346 19.8528 270.346C21.4947 270.346 23.1132 269.957 24.5756 269.21H24.5321ZM23.7655 264.177C24.1471 264.34 24.4805 264.599 24.7338 264.928C24.987 265.257 25.1516 265.646 25.2119 266.057C25.159 266.469 24.997 266.859 24.7427 267.187C24.4884 267.515 24.151 267.769 23.7655 267.923C22.5251 268.522 21.1653 268.834 19.7877 268.834C18.41 268.834 17.0502 268.522 15.8099 267.923C15.4282 267.759 15.0949 267.5 14.8416 267.171C14.5884 266.842 14.4237 266.453 14.3634 266.043C14.3634 265.377 14.8697 264.726 15.8099 264.191C17.0288 263.545 18.3944 263.226 19.7733 263.265C21.1728 263.217 22.5617 263.525 23.8089 264.162L23.7655 264.177Z" fill="url(#paint29_linear_34_33292)"/>
</g>
<g opacity="0.15">
<path d="M255.07 313.154C255.07 306.081 249.284 304.476 252.785 301.973C252.915 301.886 261.044 298.183 261.189 298.126C263.217 297.197 265.442 296.78 267.668 296.911C269.895 297.042 272.056 297.718 273.961 298.878L366.434 352.267C376.877 358.284 385.325 374.441 385.325 388.356L377.036 391.437C377.036 398.829 255.07 313.154 255.07 313.154Z" fill="url(#paint30_linear_34_33292)"/>
<path style="mix-blend-mode:screen" opacity="0.6" d="M247.896 316.438C247.896 302.538 256.343 296.188 266.787 302.162L359.259 355.551C369.688 361.568 378.194 377.696 378.194 391.64L247.896 316.438Z" fill="url(#paint31_radial_34_33292)"/>
<path d="M246.247 317.334C246.247 303.419 254.709 297.084 265.138 303.043L357.61 356.447C368.039 362.464 376.501 378.621 376.501 392.522L246.247 317.334Z" fill="url(#paint32_linear_34_33292)"/>
<path d="M248.822 318.666C248.822 306.472 256.242 300.86 265.384 306.154L357.365 359.254C366.506 364.533 373.854 378.694 373.854 390.888L248.822 318.666Z" fill="url(#paint33_linear_34_33292)"/>
<path opacity="0.8" d="M252.495 321.414C252.495 311.202 258.715 306.515 266.367 310.941L356.381 362.913C364.033 367.325 370.238 379.186 370.238 389.383L252.495 321.414Z" fill="url(#paint34_linear_34_33292)"/>
</g>
<g opacity="0.2">
<path opacity="0.09" d="M251.107 280.29L261.869 274.287C262.303 274.027 282.51 263.019 282.886 263.236L289.829 259.837C292.953 258.029 297.553 257.436 301.531 257.436C304.903 257.468 308.216 258.327 311.179 259.938L359.737 287.595L370.093 293.497L429.008 327.069C430.892 328.14 432.466 329.679 433.579 331.539C434.319 332.832 434.731 334.287 434.779 335.777C434.91 339.682 432.508 343.371 428.198 345.902L417.436 351.905C417.002 352.151 396.795 363.173 396.419 362.956L389.476 366.355C386.352 368.163 381.752 368.756 377.774 368.756C374.401 368.727 371.088 367.867 368.126 366.254L319.568 338.597L309.211 332.696L250.297 299.138C248.414 298.072 246.839 296.537 245.726 294.683C244.99 293.381 244.573 291.924 244.511 290.43C244.395 286.467 246.796 282.778 251.107 280.29Z" fill="#0E0E0E"/>
<path opacity="0.18" d="M252.178 281.143L262.65 275.357C263.532 274.851 282.438 264.9 283.19 265.348L289.959 262.571C292.78 260.936 297.669 260.835 301.256 260.835C304.512 260.984 307.689 261.879 310.543 263.453L357.654 290.328L367.707 296.114L424.886 328.66C426.686 329.702 428.228 331.135 429.399 332.855C430.149 334.083 430.6 335.47 430.715 336.905C430.947 340.637 428.676 344.253 424.437 346.697L413.965 352.483C413.083 352.989 394.177 362.927 393.425 362.493L386.685 365.27C383.864 366.904 378.975 367.006 375.388 367.006C372.132 366.857 368.955 365.961 366.101 364.388L318.975 337.512L308.85 331.726L251.671 299.123C249.867 298.069 248.324 296.62 247.158 294.885C246.408 293.657 245.957 292.269 245.842 290.835C245.683 287.19 247.939 283.588 252.178 281.143Z" fill="#0E0E0E"/>
<path opacity="0.27" d="M253.248 281.997L263.373 276.428C264.675 275.661 282.293 266.794 283.435 267.445L289.959 265.29C292.476 263.844 297.654 264.234 300.836 264.234C303.982 264.496 307.035 265.428 309.79 266.968L355.499 293.004L365.248 298.573L420.691 330.222C422.431 331.249 423.946 332.617 425.146 334.243C425.913 335.4 426.407 336.715 426.592 338.091C426.925 341.663 424.784 345.178 420.618 347.58L410.493 353.163C409.177 353.915 391.559 362.796 390.431 362.131L383.893 364.286C381.39 365.733 376.197 365.342 373.015 365.342C369.877 365.078 366.83 364.151 364.076 362.623L318.368 336.586L308.618 331.018L253.161 299.369C251.427 298.333 249.913 296.967 248.706 295.348C247.938 294.191 247.444 292.876 247.259 291.5C246.956 287.913 249.096 284.398 253.248 281.997Z" fill="#0E0E0E"/>
<path opacity="0.36" d="M254.333 282.851L264.227 277.499C265.977 276.486 282.307 268.675 283.826 269.558L290.147 268.024C292.331 266.766 297.813 267.648 300.605 267.648C303.629 268.051 306.546 269.033 309.197 270.541L353.488 295.84L362.919 301.25L416.641 331.944C418.295 332.954 419.762 334.241 420.98 335.748C421.757 336.828 422.281 338.069 422.514 339.379C422.976 342.807 420.937 346.235 416.858 348.593L406.964 353.945C405.214 354.957 388.883 362.768 387.364 361.886L381.043 363.419C378.859 364.692 373.377 363.81 370.585 363.81C367.56 363.414 364.642 362.431 361.993 360.917L317.702 335.618L308.271 330.223L254.608 299.586C252.954 298.576 251.486 297.289 250.268 295.782C249.492 294.695 248.964 293.45 248.72 292.137C248.214 288.637 250.239 285.208 254.333 282.851Z" fill="#0E0E0E"/>
<path opacity="0.45" d="M255.403 283.675L265.008 278.54C267.206 277.267 282.235 270.541 284.13 271.64L290.248 270.729C292.129 269.644 297.9 271.018 300.287 271.018C302.355 271.018 307.056 273.101 308.546 273.911L351.391 298.429L360.532 303.65L412.518 333.39C414.132 334.374 415.593 335.587 416.858 336.991C417.644 338.004 418.206 339.173 418.507 340.419C419.071 343.688 417.162 347.03 413.155 349.344L403.55 354.479C401.366 355.752 386.323 362.478 384.428 361.379L378.309 362.304C376.429 363.389 370.658 362.001 368.271 362.001C366.202 362.001 361.501 359.932 360.012 359.108L317.167 334.605L308.025 329.368L256.039 299.629C254.43 298.645 252.969 297.438 251.7 296.042C250.919 295.02 250.357 293.848 250.051 292.599C249.458 289.374 251.396 286.018 255.403 283.675Z" fill="#0E0E0E"/>
<path opacity="0.55" d="M256.473 284.558L265.788 279.64C268.421 278.121 282.162 272.407 284.448 273.781L290.349 273.478C291.912 272.581 297.987 274.447 299.968 274.447C301.704 274.447 306.637 276.776 307.881 277.499L349.264 301.221L358.102 306.284L408.367 335.068C409.916 336.027 411.348 337.162 412.634 338.453C413.435 339.397 414.035 340.495 414.399 341.679C415.078 344.774 413.285 348.043 409.35 350.357L400.035 355.275C397.417 356.722 383.661 362.508 381.39 361.148L375.474 361.437C373.912 362.334 367.851 360.468 365.855 360.468C364.134 360.468 359.187 358.139 357.943 357.431L316.516 333.694L307.693 328.632L257.428 299.847C255.88 298.893 254.448 297.762 253.161 296.477C252.362 295.525 251.762 294.423 251.396 293.236C250.76 290.098 252.539 286.829 256.473 284.558Z" fill="#0E0E0E"/>
<path opacity="0.64" d="M257.558 285.411L266.584 280.782C269.651 279.003 282.105 274.418 284.752 275.951L290.538 276.283C291.782 275.56 298.146 277.932 299.737 277.932C301.328 277.932 306.304 280.507 307.302 281.071L347.225 303.925L355.759 308.829L404.23 336.674C405.724 337.597 407.133 338.653 408.439 339.827C409.241 340.712 409.873 341.737 410.305 342.85C411.115 345.743 409.437 348.968 405.575 351.211L396.564 355.912C393.483 357.691 381.029 362.276 378.382 360.743L372.668 360.41C371.424 361.133 365.06 358.761 363.469 358.761C361.877 358.761 356.902 356.186 355.903 355.622L315.995 332.681L307.461 327.778L258.932 299.948C257.438 299.024 256.03 297.968 254.723 296.794C253.916 295.913 253.283 294.887 252.857 293.771C252.018 290.82 253.696 287.638 257.558 285.411Z" fill="#0E0E0E"/>
<path opacity="0.73" d="M258.629 286.265L267.307 281.781C270.808 279.756 281.975 276.241 285.012 277.991L290.509 278.945C291.449 278.396 298.103 281.26 299.289 281.26C300.475 281.26 305.769 284.08 306.521 284.514L345.142 306.674L353.358 311.39L400.166 338.28C401.634 339.116 403.023 340.085 404.317 341.173C405.238 341.93 405.925 342.933 406.299 344.066C407.224 346.857 405.662 349.938 401.872 352.122L393.194 356.621C389.679 358.646 378.512 362.161 375.474 360.411L369.978 359.456C369.038 360.006 362.384 357.142 361.198 357.142C360.012 357.142 354.718 354.321 353.965 353.887L315.388 331.727L307.172 326.997L260.364 300.122C258.898 299.288 257.513 298.32 256.227 297.229C255.313 296.492 254.622 295.516 254.231 294.408C253.291 291.544 254.839 288.449 258.629 286.265Z" fill="#0E0E0E"/>
<path opacity="0.82" d="M259.699 287.117L268.146 282.85C272.095 280.564 281.96 278.12 285.388 280.101L290.668 281.663C291.304 281.302 298.247 284.672 299.043 284.672C301.389 285.636 303.67 286.752 305.87 288.013L343.015 309.378L350.928 313.934L396 339.869C397.418 340.691 398.785 341.6 400.093 342.589C401.015 343.257 401.74 344.161 402.19 345.207C403.232 347.839 401.785 350.834 398.068 352.974L389.635 357.314C385.686 359.585 375.807 362.029 372.393 360.062L367.099 358.485C366.477 358.847 359.534 355.491 358.739 355.491C356.374 354.531 354.079 353.409 351.868 352.135L314.722 330.771L306.796 326.215L261.738 300.279C260.315 299.464 258.948 298.556 257.645 297.56C256.714 296.901 255.988 295.994 255.548 294.942C254.549 292.266 255.996 289.272 259.699 287.117Z" fill="#0E0E0E"/>
<path opacity="0.91" d="M260.784 288.014L268.928 283.964C273.267 281.433 281.946 280.059 285.692 282.243L290.784 284.442C291.087 284.268 298.334 288.116 298.725 288.116C299.115 288.116 305.002 291.443 305.248 291.573L340.976 312.156L348.585 316.495L391.979 341.461C392.167 341.577 395.913 343.805 396 343.978C396.947 344.556 397.714 345.388 398.213 346.379C399.384 348.853 398.054 351.775 394.409 353.872L386.265 357.937C381.926 360.468 373.247 361.842 369.5 359.643L364.409 357.445C364.105 357.633 356.858 353.785 356.468 353.785C356.077 353.785 350.19 350.458 349.944 350.314L314.216 329.731L306.608 325.391L263.214 300.411C263.026 300.309 259.28 298.082 259.193 297.908C258.245 297.324 257.479 296.488 256.98 295.493C255.823 292.99 257.139 290.068 260.784 288.014Z" fill="#0E0E0E"/>
<path d="M366.448 359.297L313.566 328.776L260.683 298.241C256.502 295.826 257.023 291.617 261.854 288.839L269.709 284.992C274.54 282.2 281.83 281.896 286.01 284.312L338.893 314.847L391.762 345.367C395.942 347.783 395.421 351.992 390.604 354.784L382.736 358.617C377.904 361.409 370.614 361.785 366.448 359.297Z" fill="#0E0E0E"/>
</g>
<path d="M366.434 352.513L273.961 299.124C263.532 293.106 255.07 276.949 255.07 262.962V16.7585C255.07 9.68527 249.284 8.07969 252.785 5.5773C252.915 5.49051 261.044 1.80202 261.189 1.74416C263.216 0.813489 265.44 0.394087 267.667 0.522697C269.893 0.651307 272.055 1.324 273.961 2.48185L366.434 55.871C376.877 61.9028 385.325 78.0598 385.325 91.9604V338.236C385.325 345.627 382.938 350.893 379.134 353.308C378.917 353.453 369.124 358.111 368.878 358.183C365.508 359.311 370.961 355.145 366.434 352.513Z" fill="url(#paint35_linear_34_33292)"/>
<path style="mix-blend-mode:color-dodge" d="M365.595 56.1609L273.107 2.77174C268.189 -0.121193 360.474 57.8677 360.474 57.8677C370.903 63.885 379.365 80.0421 379.365 94.0294C379.365 94.0294 384.471 345.99 384.471 338.598V92.2503C384.471 78.2774 376.024 62.1782 365.595 56.1609Z" fill="url(#paint36_radial_34_33292)"/>
<path style="mix-blend-mode:screen" opacity="0.6" d="M359.259 355.81L266.815 302.479C256.372 296.462 247.925 280.305 247.925 266.39V20.0418C247.925 6.14121 256.372 -0.208788 266.815 5.76513L359.259 59.1543C369.688 65.186 378.15 81.3431 378.15 95.316V341.534C378.193 355.434 369.688 361.784 359.259 355.81Z" fill="url(#paint37_radial_34_33292)"/>
<path d="M357.61 356.693L265.138 303.304C254.709 297.272 246.247 281.115 246.247 267.215V20.9389C246.247 7.02386 254.709 0.688334 265.138 6.66225L357.61 60.0514C368.04 66.0687 376.501 82.2257 376.501 96.1408V342.416C376.501 356.317 368.068 362.71 357.61 356.693Z" fill="url(#paint38_linear_34_33292)"/>
<path d="M248.822 268.849V22.2695C248.822 10.0757 256.242 4.47791 265.384 9.75752L357.365 62.8574C366.506 68.1514 373.854 82.3124 373.854 94.4916V341.071C373.854 353.265 366.434 358.877 357.292 353.597L265.369 300.483C256.242 295.247 248.822 281.043 248.822 268.849Z" fill="url(#paint39_linear_34_33292)"/>
<path d="M252.495 270.354V25.0182C252.495 14.8062 258.715 10.1196 266.367 14.5458L356.381 66.5174C364.033 70.8568 370.238 82.7902 370.238 93.0022V338.323C370.238 348.535 364.033 353.222 356.381 348.81L266.367 296.839C258.715 292.354 252.495 280.551 252.495 270.354Z" fill="url(#paint40_linear_34_33292)"/>
<path d="M344.65 61.8597C344.65 66.9802 341.034 69.092 336.564 66.4739L286.184 37.3855C283.832 35.8585 281.874 33.7991 280.466 31.374C279.059 28.9489 278.243 26.2264 278.084 23.427L267.409 17.2506C260.176 13.0848 254.39 16.4261 254.39 24.6999V272.798C254.39 281.072 260.176 291.154 267.409 295.32L355.34 346.091C362.572 350.257 368.358 346.93 368.358 338.641V90.5576C368.358 82.2838 362.572 72.1875 355.34 68.0217L344.65 61.8597Z" fill="url(#paint41_linear_34_33292)"/>
<path d="M378.975 153.117V136.497C378.993 135.414 379.265 134.351 379.767 133.392C380.269 132.433 380.989 131.604 381.867 130.971C383.459 130.06 384.76 130.971 384.76 133.156V149.79C384.744 150.871 384.473 151.933 383.971 152.89C383.468 153.848 382.748 154.673 381.867 155.301C380.276 156.227 378.975 155.243 378.975 153.117Z" fill="url(#paint42_linear_34_33292)"/>
<path d="M380.725 155.026C379.9 155.026 379.611 153.999 379.611 153.117V136.497C379.629 135.525 379.871 134.571 380.317 133.708C380.764 132.845 381.403 132.097 382.186 131.521C382.433 131.363 382.717 131.273 383.01 131.261C383.835 131.261 384.139 132.288 384.139 133.156V149.79C384.117 150.762 383.872 151.717 383.423 152.579C382.974 153.442 382.333 154.19 381.549 154.766C381.303 154.924 381.018 155.014 380.725 155.026Z" fill="url(#paint43_linear_34_33292)"/>
<path style="mix-blend-mode:color-dodge" d="M380.465 153.493V136.859C380.482 135.887 380.724 134.933 381.171 134.07C381.617 133.207 382.257 132.459 383.039 131.883C383.267 131.754 383.517 131.67 383.777 131.637C383.698 131.504 383.586 131.394 383.452 131.318C383.317 131.241 383.165 131.202 383.01 131.203C382.717 131.215 382.433 131.305 382.186 131.464C381.403 132.039 380.764 132.788 380.317 133.651C379.871 134.514 379.629 135.468 379.611 136.439V153.059C379.611 153.942 379.9 154.969 380.725 154.969H380.812C380.567 154.516 380.447 154.007 380.465 153.493Z" fill="url(#paint44_radial_34_33292)"/>
<g style="mix-blend-mode:multiply">
<path d="M368.401 90.5574V338.641C368.401 346.929 362.615 350.213 355.383 346.09L267.452 295.319C260.22 291.154 254.434 281.072 254.434 272.798V24.7575C254.434 16.4837 260.22 13.1858 267.452 17.3082L278.127 23.4846C278.286 26.284 279.102 29.0065 280.509 31.4316C281.917 33.8567 283.875 35.9161 286.227 37.4431L336.608 66.5315C341.077 69.1062 344.693 67.0378 344.693 61.9173L355.383 68.0793C362.557 72.1872 368.401 82.2836 368.401 90.5574ZM367.273 90.5574C367.273 82.6597 361.66 72.9828 354.775 69.005L345.634 63.7254C345.055 66.8208 343.059 68.7157 340.195 68.7157C338.706 68.6721 337.254 68.2381 335.986 67.4573L285.62 38.3688C283.178 36.8107 281.126 34.7136 279.622 32.2387C278.117 29.7637 277.2 26.9769 276.941 24.0922L266.816 18.234C265.221 17.2419 263.398 16.6788 261.521 16.5995C257.79 16.5995 255.461 19.7094 255.461 24.6997V272.798C255.461 280.696 261.073 290.358 267.958 294.336L355.903 345.107C357.497 346.103 359.32 346.671 361.198 346.756C362.026 346.781 362.849 346.614 363.602 346.267C364.354 345.921 365.017 345.405 365.537 344.76C366.788 342.973 367.405 340.819 367.287 338.641L367.273 90.5574Z" fill="#787878"/>
</g>
<defs>
<linearGradient id="paint0_linear_34_33292" x1="382.764" y1="87.0567" x2="134.913" y2="93.0496" gradientUnits="userSpaceOnUse">
<stop stop-color="#6850FF"/>
<stop offset="0.403595" stop-color="#AA6CFF"/>
<stop offset="1" stop-color="#925CE1"/>
</linearGradient>
<linearGradient id="paint1_linear_34_33292" x1="463.29" y1="132.032" x2="121.332" y2="144.44" gradientUnits="userSpaceOnUse">
<stop stop-color="#6850FF"/>
<stop offset="0.403595" stop-color="#AA6CFF"/>
<stop offset="1" stop-color="#925CE1"/>
</linearGradient>
<linearGradient id="paint2_linear_34_33292" x1="445.269" y1="64.8101" x2="279.165" y2="67.3554" gradientUnits="userSpaceOnUse">
<stop stop-color="#6850FF"/>
<stop offset="0.403595" stop-color="#AA6CFF"/>
<stop offset="1" stop-color="#925CE1"/>
</linearGradient>
<linearGradient id="paint3_linear_34_33292" x1="335.809" y1="23.8467" x2="81.3528" y2="29.7415" gradientUnits="userSpaceOnUse">
<stop stop-color="#6850FF"/>
<stop offset="0.403595" stop-color="#AA6CFF"/>
<stop offset="1" stop-color="#925CE1"/>
</linearGradient>
<linearGradient id="paint4_linear_34_33292" x1="475.714" y1="217.301" x2="269.19" y2="224.463" gradientUnits="userSpaceOnUse">
<stop stop-color="#6850FF"/>
<stop offset="0.403595" stop-color="#AA6CFF"/>
<stop offset="1" stop-color="#925CE1"/>
</linearGradient>
<linearGradient id="paint5_linear_34_33292" x1="263.611" y1="118.778" x2="-94.5386" y2="137.472" gradientUnits="userSpaceOnUse">
<stop stop-color="#6850FF"/>
<stop offset="0.403595" stop-color="#AA6CFF"/>
<stop offset="1" stop-color="#925CE1"/>
</linearGradient>
<linearGradient id="paint6_linear_34_33292" x1="336.322" y1="59.2993" x2="-6.84477" y2="70.5245" gradientUnits="userSpaceOnUse">
<stop stop-color="#6850FF"/>
<stop offset="0.403595" stop-color="#AA6CFF"/>
<stop offset="1" stop-color="#925CE1"/>
</linearGradient>
<linearGradient id="paint7_linear_34_33292" x1="315.857" y1="49.1162" x2="161.518" y2="51.7069" gradientUnits="userSpaceOnUse">
<stop stop-color="#6850FF"/>
<stop offset="0.403595" stop-color="#AA6CFF"/>
<stop offset="1" stop-color="#925CE1"/>
</linearGradient>
<linearGradient id="paint8_linear_34_33292" x1="217.561" y1="85.1626" x2="-47.8899" y2="97.0616" gradientUnits="userSpaceOnUse">
<stop stop-color="#6850FF"/>
<stop offset="0.403595" stop-color="#AA6CFF"/>
<stop offset="1" stop-color="#925CE1"/>
</linearGradient>
<linearGradient id="paint9_linear_34_33292" x1="275.373" y1="86.2901" x2="-10.2763" y2="95.7277" gradientUnits="userSpaceOnUse">
<stop stop-color="#6850FF"/>
<stop offset="0.403595" stop-color="#AA6CFF"/>
<stop offset="1" stop-color="#925CE1"/>
</linearGradient>
<linearGradient id="paint10_linear_34_33292" x1="239.406" y1="39.1934" x2="224.946" y2="39.7954" gradientUnits="userSpaceOnUse">
<stop stop-color="#6850FF"/>
<stop offset="0.403595" stop-color="#AA6CFF"/>
<stop offset="1" stop-color="#925CE1"/>
</linearGradient>
<linearGradient id="paint11_linear_34_33292" x1="152.792" y1="75.9912" x2="138.332" y2="76.5939" gradientUnits="userSpaceOnUse">
<stop stop-color="#6850FF"/>
<stop offset="0.403595" stop-color="#AA6CFF"/>
<stop offset="1" stop-color="#925CE1"/>
</linearGradient>
<linearGradient id="paint12_linear_34_33292" x1="272.212" y1="76.9316" x2="257.772" y2="77.5319" gradientUnits="userSpaceOnUse">
<stop stop-color="#6850FF"/>
<stop offset="0.403595" stop-color="#AA6CFF"/>
<stop offset="1" stop-color="#925CE1"/>
</linearGradient>
<linearGradient id="paint13_linear_34_33292" x1="298.697" y1="13.4028" x2="284.236" y2="14.0048" gradientUnits="userSpaceOnUse">
<stop stop-color="#6850FF"/>
<stop offset="0.403595" stop-color="#AA6CFF"/>
<stop offset="1" stop-color="#925CE1"/>
</linearGradient>
<linearGradient id="paint14_linear_34_33292" x1="331.459" y1="49.1455" x2="316.999" y2="49.7475" gradientUnits="userSpaceOnUse">
<stop stop-color="#6850FF"/>
<stop offset="0.403595" stop-color="#AA6CFF"/>
<stop offset="1" stop-color="#925CE1"/>
</linearGradient>
<linearGradient id="paint15_linear_34_33292" x1="258.037" y1="109" x2="243.576" y2="109.602" gradientUnits="userSpaceOnUse">
<stop stop-color="#6850FF"/>
<stop offset="0.403595" stop-color="#AA6CFF"/>
<stop offset="1" stop-color="#925CE1"/>
</linearGradient>
<linearGradient id="paint16_linear_34_33292" x1="363.036" y1="77.2344" x2="348.575" y2="77.8364" gradientUnits="userSpaceOnUse">
<stop stop-color="#6850FF"/>
<stop offset="0.403595" stop-color="#AA6CFF"/>
<stop offset="1" stop-color="#925CE1"/>
</linearGradient>
<linearGradient id="paint17_linear_34_33292" x1="400.789" y1="54.6855" x2="386.328" y2="55.2882" gradientUnits="userSpaceOnUse">
<stop stop-color="#6850FF"/>
<stop offset="0.403595" stop-color="#AA6CFF"/>
<stop offset="1" stop-color="#925CE1"/>
</linearGradient>
<linearGradient id="paint18_linear_34_33292" x1="462.495" y1="149.11" x2="448.035" y2="149.712" gradientUnits="userSpaceOnUse">
<stop stop-color="#6850FF"/>
<stop offset="0.403595" stop-color="#AA6CFF"/>
<stop offset="1" stop-color="#925CE1"/>
</linearGradient>
<linearGradient id="paint19_linear_34_33292" x1="478.001" y1="219.93" x2="463.541" y2="220.533" gradientUnits="userSpaceOnUse">
<stop stop-color="#6850FF"/>
<stop offset="0.403595" stop-color="#AA6CFF"/>
<stop offset="1" stop-color="#925CE1"/>
</linearGradient>
<linearGradient id="paint20_linear_34_33292" x1="451.529" y1="457.866" x2="432.092" y2="459.488" gradientUnits="userSpaceOnUse">
<stop stop-color="#6850FF"/>
<stop offset="0.403595" stop-color="#AA6CFF"/>
<stop offset="1" stop-color="#925CE1"/>
</linearGradient>
<linearGradient id="paint21_linear_34_33292" x1="349.093" y1="432.471" x2="329.697" y2="434.089" gradientUnits="userSpaceOnUse">
<stop stop-color="#6850FF"/>
<stop offset="0.403595" stop-color="#AA6CFF"/>
<stop offset="1" stop-color="#925CE1"/>
</linearGradient>
<linearGradient id="paint22_linear_34_33292" x1="319.957" y1="382.951" x2="300.546" y2="384.571" gradientUnits="userSpaceOnUse">
<stop stop-color="#6850FF"/>
<stop offset="0.403595" stop-color="#AA6CFF"/>
<stop offset="1" stop-color="#925CE1"/>
</linearGradient>
<linearGradient id="paint23_linear_34_33292" x1="312.436" y1="473.937" x2="293.025" y2="475.555" gradientUnits="userSpaceOnUse">
<stop stop-color="#6850FF"/>
<stop offset="0.403595" stop-color="#AA6CFF"/>
<stop offset="1" stop-color="#925CE1"/>
</linearGradient>
<linearGradient id="paint24_linear_34_33292" x1="211.429" y1="459.027" x2="192.018" y2="460.646" gradientUnits="userSpaceOnUse">
<stop stop-color="#6850FF"/>
<stop offset="0.403595" stop-color="#AA6CFF"/>
<stop offset="1" stop-color="#925CE1"/>
</linearGradient>
<linearGradient id="paint25_linear_34_33292" x1="154.499" y1="423.083" x2="135.098" y2="424.701" gradientUnits="userSpaceOnUse">
<stop stop-color="#6850FF"/>
<stop offset="0.403595" stop-color="#AA6CFF"/>
<stop offset="1" stop-color="#925CE1"/>
</linearGradient>
<linearGradient id="paint26_linear_34_33292" x1="88.7243" y1="440.239" x2="69.3283" y2="441.857" gradientUnits="userSpaceOnUse">
<stop stop-color="#6850FF"/>
<stop offset="0.403595" stop-color="#AA6CFF"/>
<stop offset="1" stop-color="#925CE1"/>
</linearGradient>
<linearGradient id="paint27_linear_34_33292" x1="101.87" y1="399.458" x2="82.4484" y2="401.078" gradientUnits="userSpaceOnUse">
<stop stop-color="#6850FF"/>
<stop offset="0.403595" stop-color="#AA6CFF"/>
<stop offset="1" stop-color="#925CE1"/>
</linearGradient>
<linearGradient id="paint28_linear_34_33292" x1="21.1171" y1="367.491" x2="1.70585" y2="369.11" gradientUnits="userSpaceOnUse">
<stop stop-color="#6850FF"/>
<stop offset="0.403595" stop-color="#AA6CFF"/>
<stop offset="1" stop-color="#925CE1"/>
</linearGradient>
<linearGradient id="paint29_linear_34_33292" x1="27.2533" y1="261.783" x2="7.85715" y2="263.399" gradientUnits="userSpaceOnUse">
<stop stop-color="#6850FF"/>
<stop offset="0.403595" stop-color="#AA6CFF"/>
<stop offset="1" stop-color="#925CE1"/>
</linearGradient>
<linearGradient id="paint30_linear_34_33292" x1="390.636" y1="296.888" x2="202.303" y2="310.603" gradientUnits="userSpaceOnUse">
<stop stop-color="#6850FF"/>
<stop offset="0.403595" stop-color="#AA6CFF"/>
<stop offset="1" stop-color="#925CE1"/>
</linearGradient>
<radialGradient id="paint31_radial_34_33292" cx="0" cy="0" r="1" gradientUnits="userSpaceOnUse" gradientTransform="translate(374.332 319.852) scale(34.5995)">
<stop stop-color="#AF8AFC"/>
<stop offset="1" stop-color="#10054D"/>
</radialGradient>
<linearGradient id="paint32_linear_34_33292" x1="381.677" y1="300.805" x2="198.168" y2="314.294" gradientUnits="userSpaceOnUse">
<stop stop-color="#6850FF"/>
<stop offset="0.403595" stop-color="#AA6CFF"/>
<stop offset="1" stop-color="#925CE1"/>
</linearGradient>
<linearGradient id="paint33_linear_34_33292" x1="338.85" y1="408.708" x2="272.124" y2="267.736" gradientUnits="userSpaceOnUse">
<stop stop-color="#311B61"/>
<stop offset="0.2" stop-color="#290F52"/>
<stop offset="0.49" stop-color="#200041"/>
<stop offset="1" stop-color="#0F001F"/>
</linearGradient>
<linearGradient id="paint34_linear_34_33292" x1="317.876" y1="341.91" x2="308.676" y2="357.431" gradientUnits="userSpaceOnUse">
<stop offset="0.12" stop-color="#A499BD"/>
<stop offset="0.39" stop-color="#83739E"/>
<stop offset="0.8" stop-color="#553E73"/>
<stop offset="1" stop-color="#432962"/>
</linearGradient>
<linearGradient id="paint35_linear_34_33292" x1="390.636" y1="0.500031" x2="201.375" y2="4.15881" gradientUnits="userSpaceOnUse">
<stop stop-color="#6850FF"/>
<stop offset="0.403595" stop-color="#AA6CFF"/>
<stop offset="1" stop-color="#925CE1"/>
</linearGradient>
<radialGradient id="paint36_radial_34_33292" cx="0" cy="0" r="1" gradientUnits="userSpaceOnUse" gradientTransform="translate(412.258 96.8211) scale(226.691 226.69)">
<stop stop-color="#711F56"/>
<stop offset="0.16" stop-color="#6C1E52"/>
<stop offset="0.36" stop-color="#5C1946"/>
<stop offset="0.58" stop-color="#431233"/>
<stop offset="0.82" stop-color="#200918"/>
<stop offset="1"/>
</radialGradient>
<radialGradient id="paint37_radial_34_33292" cx="0" cy="0" r="1" gradientUnits="userSpaceOnUse" gradientTransform="translate(374.331 80.6199) scale(133.552 133.552)">
<stop stop-color="#AF8AFC"/>
<stop offset="1" stop-color="#10054D"/>
</radialGradient>
<linearGradient id="paint38_linear_34_33292" x1="381.677" y1="4.41507" x2="197.243" y2="7.92221" gradientUnits="userSpaceOnUse">
<stop stop-color="#6850FF"/>
<stop offset="0.403595" stop-color="#AA6CFF"/>
<stop offset="1" stop-color="#925CE1"/>
</linearGradient>
<linearGradient id="paint39_linear_34_33292" x1="389.91" y1="347.638" x2="202.434" y2="-48.5207" gradientUnits="userSpaceOnUse">
<stop stop-color="#311B61"/>
<stop offset="0.2" stop-color="#290F52"/>
<stop offset="0.49" stop-color="#200041"/>
<stop offset="1" stop-color="#0F001F"/>
</linearGradient>
<linearGradient id="paint40_linear_34_33292" x1="252.495" y1="181.671" x2="370.238" y2="181.671" gradientUnits="userSpaceOnUse">
<stop stop-color="#311B61"/>
<stop offset="0.2" stop-color="#290F52"/>
<stop offset="0.49" stop-color="#200041"/>
<stop offset="1" stop-color="#0F001F"/>
</linearGradient>
<linearGradient id="paint41_linear_34_33292" x1="273.704" y1="266.636" x2="341.892" y2="166.302" gradientUnits="userSpaceOnUse">
<stop stop-color="#663F9F"/>
<stop offset="0.260417" stop-color="#8B47E8"/>
<stop offset="0.526042" stop-color="#A558E2"/>
<stop offset="0.739583" stop-color="#CE54F9"/>
<stop offset="1" stop-color="#F954E8"/>
</linearGradient>
<linearGradient id="paint42_linear_34_33292" x1="323.078" y1="129.037" x2="333.566" y2="147.285" gradientUnits="userSpaceOnUse">
<stop stop-color="#311B61"/>
<stop offset="0.2" stop-color="#290F52"/>
<stop offset="0.49" stop-color="#200041"/>
<stop offset="1" stop-color="#0F001F"/>
</linearGradient>
<linearGradient id="paint43_linear_34_33292" x1="384.318" y1="131.261" x2="377.906" y2="131.324" gradientUnits="userSpaceOnUse">
<stop stop-color="#6850FF"/>
<stop offset="0.403595" stop-color="#AA6CFF"/>
<stop offset="1" stop-color="#925CE1"/>
</linearGradient>
<radialGradient id="paint44_radial_34_33292" cx="0" cy="0" r="1" gradientUnits="userSpaceOnUse" gradientTransform="translate(379.987 137.177) scale(8.53409 8.53417)">
<stop stop-color="#711F56"/>
<stop offset="0.16" stop-color="#6C1E52"/>
<stop offset="0.36" stop-color="#5C1946"/>
<stop offset="0.58" stop-color="#431233"/>
<stop offset="0.82" stop-color="#200918"/>
<stop offset="1"/>
</radialGradient>
</defs>
</svg>
