<svg width="72" height="73" viewBox="0 0 72 73" fill="none" xmlns="http://www.w3.org/2000/svg">
<path d="M70.5 36.4995V36.5001C70.5 43.3261 68.4751 49.9987 64.6815 55.6735C60.8879 61.3483 55.4962 65.7702 49.1886 68.3796C42.881 70.9891 35.9411 71.6687 29.2471 70.3326C22.5531 68.9965 16.4059 65.7047 11.5835 60.8738C6.76096 56.0428 3.47994 49.8899 2.15558 43.1935C0.831217 36.4972 1.52305 29.5585 4.14354 23.2555C6.76403 16.9526 11.1954 11.5686 16.8768 7.78497C22.5583 4.00134 29.2344 1.9881 36.0604 2.00005L36.0609 2.00005C45.2013 2.01286 53.9627 5.65365 60.4202 12.1225C66.8778 18.5914 70.5032 27.3592 70.5 36.4995Z" stroke="#AA6CFF" stroke-width="3"/>
<path d="M40.4649 24.6872H36.3382V28.8139H30.8359V24.6872H26.7092C25.9795 24.6872 25.2797 24.977 24.7638 25.493C24.2479 26.0089 23.958 26.7087 23.958 27.4383V49.4476C23.958 50.1772 24.2479 50.877 24.7638 51.3929C25.2797 51.9089 25.9795 52.1987 26.7092 52.1987H40.4649C41.1946 52.1987 41.8943 51.9089 42.4103 51.3929C42.9262 50.877 43.2161 50.1772 43.2161 49.4476V27.4383C43.2161 26.7087 42.9262 26.0089 42.4103 25.493C41.8943 24.977 41.1946 24.6872 40.4649 24.6872ZM33.587 31.5651C34.3167 31.5651 35.0165 31.8549 35.5324 32.3709C36.0483 32.8868 36.3382 33.5866 36.3382 34.3162C36.3382 35.0459 36.0483 35.7456 35.5324 36.2616C35.0165 36.7775 34.3167 37.0674 33.587 37.0674C32.8574 37.0674 32.1576 36.7775 31.6417 36.2616C31.1257 35.7456 30.8359 35.0459 30.8359 34.3162C30.8359 33.5866 31.1257 32.8868 31.6417 32.3709C32.1576 31.8549 32.8574 31.5651 33.587 31.5651ZM39.0894 42.5697H28.0847V41.1941C28.0847 39.3646 31.7575 38.443 33.587 38.443C35.4166 38.443 39.0894 39.3646 39.0894 41.1941V42.5697ZM34.9626 27.4383H32.2115V21.936H34.9626V27.4383ZM39.0894 46.6964H28.0847V45.3208H39.0894V46.6964ZM33.587 49.4476H28.0847V48.072H33.587V49.4476ZM45.9672 38.443V30.1895H48.7184V38.443H45.9672ZM45.9672 43.9453V41.1941H48.7184V43.9453H45.9672Z" fill="#AA6CFF"/>
</svg>
