<svg width="72" height="73" viewBox="0 0 72 73" fill="none" xmlns="http://www.w3.org/2000/svg">
<path d="M70.5 36.4995V36.5001C70.5 43.3261 68.4751 49.9987 64.6815 55.6735C60.8879 61.3483 55.4962 65.7702 49.1886 68.3796C42.881 70.9891 35.9411 71.6687 29.2471 70.3326C22.5531 68.9965 16.4059 65.7047 11.5835 60.8738C6.76096 56.0428 3.47994 49.8899 2.15558 43.1935C0.831217 36.4972 1.52305 29.5585 4.14354 23.2555C6.76403 16.9526 11.1954 11.5686 16.8768 7.78497C22.5583 4.00134 29.2344 1.9881 36.0604 2.00005L36.0609 2.00005C45.2013 2.01286 53.9627 5.65365 60.4202 12.1225C66.8778 18.5914 70.5032 27.3592 70.5 36.4995Z" stroke="#AA6CFF" stroke-width="3"/>
<path d="M43.025 21.936H29.5645C28.7464 21.936 27.9618 22.2549 27.3833 22.8224C26.8049 23.3899 26.4799 24.1597 26.4799 24.9623V49.1725C26.4799 49.9751 26.8049 50.7448 27.3833 51.3124C27.9618 51.8799 28.7464 52.1987 29.5645 52.1987H43.025C43.8431 52.1987 44.6277 51.8799 45.2062 51.3124C45.7847 50.7448 46.1097 49.9751 46.1097 49.1725V24.9623C46.1097 24.1597 45.7847 23.3899 45.2062 22.8224C44.6277 22.2549 43.8431 21.936 43.025 21.936ZM44.4272 49.1725C44.4272 49.5373 44.2794 49.8872 44.0165 50.1451C43.7535 50.4031 43.3969 50.548 43.025 50.548H29.5645C29.1927 50.548 28.836 50.4031 28.5731 50.1451C28.3101 49.8872 28.1624 49.5373 28.1624 49.1725V24.9623C28.1624 24.5975 28.3101 24.2476 28.5731 23.9896C28.836 23.7317 29.1927 23.5867 29.5645 23.5867H43.025C43.3969 23.5867 43.7535 23.7317 44.0165 23.9896C44.2794 24.2476 44.4272 24.5975 44.4272 24.9623V49.1725ZM41.6229 27.1632C41.6229 27.3821 41.5343 27.5921 41.3765 27.7468C41.2187 27.9016 41.0047 27.9886 40.7816 27.9886H31.808C31.5848 27.9886 31.3709 27.9016 31.2131 27.7468C31.0553 27.5921 30.9667 27.3821 30.9667 27.1632C30.9667 26.9443 31.0553 26.7344 31.2131 26.5796C31.3709 26.4248 31.5848 26.3379 31.808 26.3379H40.7816C41.0047 26.3379 41.2187 26.4248 41.3765 26.5796C41.5343 26.7344 41.6229 26.9443 41.6229 27.1632Z" fill="#AA6CFF"/>
</svg>
