<svg width="26" height="43" viewBox="0 0 26 43" fill="none" xmlns="http://www.w3.org/2000/svg">
<path d="M3.19639 3.68511C22.5952 3.68511 3.19639 3.68511 22.5952 3.68511C22.8164 9.00267 22.3291 13.3414 18.9884 16.9245C17.536 18.4703 15.4617 19.7595 15.0032 21.9268C14.641 23.6612 17.0615 25.1575 18.0939 26.5333C19.5142 28.4222 22.406 30.2892 22.7555 39.2858C3.51702 39.2873 22.7555 39.2834 3.51702 39.2857C3.69656 35.5387 4.21805 31.4087 6.16092 28.3202C6.83099 27.2598 8.02044 26.0417 8.92455 25.0524C9.75813 24.1434 10.7199 23.0923 10.4474 21.8402C9.90561 19.336 5.77299 17.447 4.00004 12.5654C2.66632 8.8709 2.85013 7.72274 3.19639 3.68511Z" stroke="#925CE1" stroke-miterlimit="10"/>
<path d="M1 3.68554L25 3.68555L25 1.00033L1 1.00033L1 3.68554Z" stroke="#925CE1" stroke-miterlimit="10"/>
<path d="M1.58998 42L25 42L25 39.3148L1.58998 39.3148L1.58998 42Z" stroke="#925CE1" stroke-miterlimit="10"/>
</svg>
