<svg width="26" height="42" viewBox="0 0 26 42" fill="none" xmlns="http://www.w3.org/2000/svg">
<path d="M3.19639 3.18511C22.5952 3.18511 3.19639 3.18511 22.5952 3.18511C22.8164 8.50267 22.3291 12.8414 18.9884 16.4245C17.536 17.9703 15.4617 19.2595 15.0032 21.4268C14.641 23.1612 17.0615 24.6575 18.0939 26.0333C19.5142 27.9222 22.406 29.7892 22.7555 38.7858C3.51702 38.7873 22.7555 38.7834 3.51702 38.7857C3.69656 35.0387 4.21805 30.9087 6.16092 27.8202C6.83099 26.7598 8.02044 25.5417 8.92455 24.5524C9.75813 23.6434 10.7199 22.5923 10.4474 21.3402C9.90561 18.836 5.773 16.947 4.00004 12.0654C2.66632 8.3709 2.85013 7.22274 3.19639 3.18511Z" fill="#925CE1"/>
<path d="M1 3.18554L25 3.18555L25 0.500333L1 0.500329L1 3.18554Z" stroke="#925CE1" stroke-miterlimit="10"/>
<path d="M1.58998 41.5L25 41.5L25 38.8148L1.58998 38.8148L1.58998 41.5Z" stroke="#925CE1" stroke-miterlimit="10"/>
</svg>
