<svg width="26" height="43" viewBox="0 0 26 43" fill="none" xmlns="http://www.w3.org/2000/svg">
<path d="M3.64139 3.6851C22.6443 3.6851 3.64139 3.6851 22.6443 3.6851C22.861 9.00267 22.3836 13.3414 19.1111 16.9245C17.6884 18.4703 15.6564 19.7595 15.2073 21.9268C14.8524 23.6611 17.2236 25.1575 18.2349 26.5333C19.6262 28.4222 22.459 30.2892 22.8013 39.2858C3.95548 39.2873 22.8013 39.2834 3.95548 39.2857C4.13136 35.5387 4.6422 31.4087 6.54543 28.3202C7.20182 27.2598 8.36699 26.0417 9.25265 25.0524C10.0692 24.1434 11.0114 23.0923 10.7445 21.8402C10.2137 19.336 6.16541 17.447 4.42865 12.5654C3.12214 8.8709 3.3022 7.72274 3.64139 3.6851Z" stroke="#925CE1" stroke-miterlimit="10"/>
<path d="M1.4898 3.68554L25 3.68555L25 1.00033L1.4898 1.00033L1.4898 3.68554Z" stroke="#925CE1" stroke-miterlimit="10"/>
<path d="M2.06774 42L25 42L25 39.3148L2.06774 39.3148L2.06774 42Z" stroke="#925CE1" stroke-miterlimit="10"/>
<path d="M0.999992 3.68554L24.5102 3.68555L24.5102 1.00033L0.999993 1.00033L0.999992 3.68554Z" stroke="#925CE1" stroke-miterlimit="10"/>
<path d="M1.57793 42L24.5102 42L24.5102 39.3148L1.57793 39.3148L1.57793 42Z" stroke="#925CE1" stroke-miterlimit="10"/>
<path fill-rule="evenodd" clip-rule="evenodd" d="M10.7805 22.6926L15.1826 22.6926C15.2939 23.6984 16.2199 24.6239 17.0906 25.4939C17.5204 25.9235 17.9367 26.3396 18.2349 26.7452C18.4379 27.0208 18.6716 27.296 18.9238 27.593C20.3999 29.3309 22.509 31.814 22.8013 39.4977C13.3784 39.4984 13.3784 39.4978 13.3784 39.4974C13.3784 39.4969 13.3784 39.4965 3.95548 39.4976C4.13136 35.7506 4.6422 31.6206 6.54542 28.5321C7.09389 27.6461 7.99757 26.6499 8.7966 25.7691C8.95384 25.5958 9.10702 25.427 9.25265 25.2643C9.92601 24.5148 10.6848 23.6685 10.7805 22.6926Z" fill="#925CE1"/>
</svg>
