<svg width="168" height="29" viewBox="0 0 168 29" fill="none" xmlns="http://www.w3.org/2000/svg">
<rect x="120.862" y="0.530186" width="19.2919" height="0.918664" fill="#925CE1"/>
<rect x="29.6079" y="0.530186" width="19.2919" height="0.918664" fill="#925CE1"/>
<rect x="120.862" y="27.4777" width="19.2919" height="0.918664" fill="#925CE1"/>
<rect x="29.6079" y="27.4777" width="19.2919" height="0.918664" fill="#925CE1"/>
<rect x="120.862" y="13.6977" width="17.7608" height="0.918664" fill="#925CE1"/>
<rect x="29.6079" y="13.6977" width="17.7608" height="0.918664" fill="#925CE1"/>
<path fill-rule="evenodd" clip-rule="evenodd" d="M0 28.2738H8.81917C17.4424 28.2738 23.4002 22.316 23.4002 14.5943V14.5159C23.4002 6.79425 17.4424 0.836407 8.81917 0.836407H0V1.63258H0.862319V1.62033H8.77997C16.8936 1.62033 22.5379 7.343 22.5379 14.5551V14.6335C22.5379 21.8064 16.9328 27.4899 8.85837 27.4899H0.862319V13.8814H0V28.2738ZM66.7728 28.4698H66.1064L53.642 0.836407H54.5827L66.4592 27.2547L78.3357 0.836407H79.2372L66.7728 28.4698ZM85.0211 28.2738H85.8834V0.836407H85.0211V28.2738ZM113.797 28.2738H92.8267V27.7643L112.699 1.62033H93.493V0.836407H113.914V1.34596L94.0418 27.4899H113.797V28.2738ZM147.657 28.2738H146.795V0.836407H158.005C161.572 0.836407 164.198 1.73792 165.883 3.42337C167.138 4.67765 167.843 6.40228 167.843 8.51889V8.59728C167.843 13.2224 164.159 15.9662 158.867 16.2798L168 28.2738H166.942L157.848 16.319H147.657V28.2738ZM147.657 1.62033V15.535H157.574C163.924 15.535 166.981 12.5169 166.981 8.63647V8.55808C166.981 4.20729 163.61 1.62033 157.927 1.62033H147.657Z" fill="#925CE1"/>
</svg>
