<svg width="61" height="10" viewBox="0 0 61 10" fill="none" xmlns="http://www.w3.org/2000/svg">
<path d="M0 9.92908H3.19149C6.31206 9.92908 8.46808 7.77305 8.46808 4.97872V4.95036C8.46808 2.15603 6.31206 0 3.19149 0H0V9.92908ZM0.312057 9.64539V0.283689H3.1773C6.11347 0.283689 8.15603 2.35461 8.15603 4.96454V4.99291C8.15603 7.58865 6.12766 9.64539 3.20567 9.64539H0.312057Z" fill="#AA6CFF"/>
<path d="M10.9846 9.92908H17.9917V9.64539H11.2967V5.07801H17.3108V4.79433H11.2967V0.283689H17.9208V0H10.9846V9.92908Z" fill="#AA6CFF"/>
<path d="M23.9226 10H24.1638L28.6744 0H28.3482L24.0503 9.56028L19.7524 0H19.412L23.9226 10Z" fill="#AA6CFF"/>
<path d="M30.7675 9.92908H31.0796V0H30.7675V9.92908Z" fill="#AA6CFF"/>
<path d="M33.5922 9.92908H41.1808V9.64539H34.0319L41.2234 0.184397V0H33.8333V0.283689H40.7837L33.5922 9.74468V9.92908Z" fill="#AA6CFF"/>
<path d="M43.7445 9.92908H50.7515V9.64539H44.0565V5.07801H50.0707V4.79433H44.0565V0.283689H50.6806V0H43.7445V9.92908Z" fill="#AA6CFF"/>
<path d="M53.1222 9.92908H53.4343V5.60284H57.1222L60.413 9.92908H60.796L57.491 5.58865C59.4059 5.47518 60.7392 4.48227 60.7392 2.80851V2.78014C60.7392 2.01418 60.4839 1.39007 60.03 0.936171C59.4201 0.326241 58.4697 0 57.179 0H53.1222V9.92908ZM53.4343 5.31915V0.283689H57.1506C59.2073 0.283689 60.4272 1.21986 60.4272 2.79433V2.8227C60.4272 4.22695 59.3208 5.31915 57.0229 5.31915H53.4343Z" fill="#AA6CFF"/>
</svg>
