<svg width="168" height="28" viewBox="0 0 168 28" fill="none" xmlns="http://www.w3.org/2000/svg">
<rect x="120.862" width="19.2919" height="0.918664" fill="#FAFAFA"/>
<rect x="29.6079" width="19.2919" height="0.918664" fill="#FAFAFA"/>
<rect x="120.862" y="26.9473" width="19.2919" height="0.918664" fill="#FAFAFA"/>
<rect x="29.6079" y="26.9473" width="19.2919" height="0.918664" fill="#FAFAFA"/>
<rect x="120.862" y="13.168" width="17.7608" height="0.918664" fill="#FAFAFA"/>
<rect x="29.6079" y="13.168" width="17.7608" height="0.918664" fill="#FAFAFA"/>
<path fill-rule="evenodd" clip-rule="evenodd" d="M0 27.7441H8.81917C17.4424 27.7441 23.4002 21.7862 23.4002 14.0645V13.9862C23.4002 6.26448 17.4424 0.306641 8.81917 0.306641H0V1.10254H0.862319V1.09057H8.77997C16.8936 1.09057 22.5379 6.81323 22.5379 14.0254V14.1037C22.5379 21.2767 16.9328 26.9601 8.85837 26.9601H0.862319V13.3514H0V27.7441ZM66.7728 27.94H66.1064L53.642 0.306641H54.5827L66.4592 26.725L78.3357 0.306641H79.2372L66.7728 27.94ZM85.0211 27.7441H85.8834V0.306641H85.0211V27.7441ZM113.797 27.7441H92.8267V27.2345L112.699 1.09057H93.493V0.306641H113.914V0.816193L94.0418 26.9601H113.797V27.7441ZM147.657 27.7441H146.795V0.306641H158.005C161.572 0.306641 164.198 1.20816 165.883 2.8936C167.138 4.14788 167.843 5.87252 167.843 7.98912V8.06751C167.843 12.6927 164.159 15.4364 158.867 15.75L168 27.7441H166.942L157.848 15.7892H147.657V27.7441ZM147.657 1.09057V15.0053H157.574C163.924 15.0053 166.981 11.9871 166.981 8.10671V8.02832C166.981 3.67752 163.61 1.09057 157.927 1.09057H147.657Z" fill="#FAFAFA"/>
</svg>
