<svg width="65" height="53" viewBox="0 0 65 53" fill="none" xmlns="http://www.w3.org/2000/svg">
<path d="M2.32816 49.4585L20.5922 31.0269L30.4622 40.4675L42.5252 29.933L49.2452 36.4784M62.1602 7.45547C62.1602 6.26318 61.686 5.11973 60.8421 4.27666C59.9982 3.43359 58.8536 2.95996 57.6602 2.95996H6.66016C5.46668 2.95996 4.32209 3.43359 3.47818 4.27666C2.63426 5.11973 2.16016 6.26318 2.16016 7.45547V20.942H62.1602V7.45547Z" stroke="#65D8FC" stroke-width="4" stroke-linecap="round" stroke-linejoin="round"/>
<path d="M62.1602 17.9452V46.4167C62.1602 47.609 61.686 48.7524 60.8421 49.5955C59.9982 50.4386 58.8536 50.9122 57.6602 50.9122H14.1602M24.8282 11.9512H51.8282M12.8252 11.9512H15.8252M2.16016 17.9452V31.4317" stroke="#65D8FC" stroke-width="4" stroke-linecap="round" stroke-linejoin="round"/>
</svg>
