<svg width="37" height="48" viewBox="0 0 37 48" fill="none" xmlns="http://www.w3.org/2000/svg">
<path d="M32.2144 20.5975H4.78578C3.57337 20.5975 2.4106 21.0787 1.5533 21.9352C0.695987 22.7917 0.214355 23.9533 0.214355 25.1646V43.4329C0.214355 44.6442 0.695987 45.8058 1.5533 46.6623C2.4106 47.5188 3.57337 48 4.78578 48H32.2144C33.4268 48 34.5895 47.5188 35.4468 46.6623C36.3042 45.8058 36.7858 44.6442 36.7858 43.4329V25.1646C36.7858 23.9533 36.3042 22.7917 35.4468 21.9352C34.5895 21.0787 33.4268 20.5975 32.2144 20.5975ZM32.2144 43.4329H4.78578V34.2988H32.2144V43.4329ZM32.2144 29.7317H4.78578V25.1646H32.2144V29.7317ZM2.34007 6.71361L5.56293 9.9334C12.6944 2.78592 24.2829 2.78592 31.4372 9.9334L34.6601 6.71361C25.7458 -2.23787 11.2772 -2.23787 2.34007 6.71361ZM8.80864 13.176L12.0315 16.3958C13.7488 14.6851 16.075 13.7244 18.5001 13.7244C20.9252 13.7244 23.2514 14.6851 24.9686 16.3958L28.1915 13.176C25.6201 10.6102 22.1344 9.16905 18.5001 9.16905C14.8658 9.16905 11.3801 10.6102 8.80864 13.176Z" fill="#AA6CFF"/>
</svg>
