<svg width="9" height="10" viewBox="0 0 9 10" fill="none" xmlns="http://www.w3.org/2000/svg">
<path d="M8.34515 6.03679L6.5633 4.99793L8.29882 3.97693C8.46493 3.88534 8.60481 3.75259 8.70508 3.59137C8.83045 3.38734 8.8839 3.14708 8.85689 2.90902C8.82988 2.67096 8.72397 2.44885 8.55608 2.27821C8.3882 2.10756 8.16805 1.99824 7.93082 1.96772C7.6936 1.93719 7.45301 1.98724 7.24753 2.10984L5.53339 3.12728V1.07099C5.53339 0.786943 5.42076 0.514533 5.22026 0.313684C5.01976 0.112836 4.74783 0 4.46429 0C4.18074 0 3.90881 0.112836 3.70831 0.313684C3.50782 0.514533 3.39518 0.786943 3.39518 1.07099V3.12728L1.66679 2.10984C1.54528 2.02777 1.40823 1.97161 1.26415 1.94482C1.12007 1.91804 0.972026 1.92122 0.82922 1.95416C0.686415 1.9871 0.551893 2.0491 0.43401 2.1363C0.316126 2.22351 0.217398 2.33406 0.143956 2.46109C0.0705131 2.58813 0.0239247 2.72893 0.00708358 2.87476C-0.00975756 3.02058 0.00350809 3.16832 0.0460567 3.3088C0.0886053 3.44927 0.159528 3.57949 0.254422 3.69135C0.349315 3.80322 0.466153 3.89434 0.597679 3.95908L2.37953 4.99793L0.615497 6.01894C0.449383 6.11053 0.309504 6.24328 0.209236 6.40449C0.0855846 6.60852 0.0335142 6.84809 0.0612916 7.08515C0.0890691 7.32221 0.195102 7.54318 0.362557 7.71298C0.530012 7.88278 0.749291 7.99167 0.98558 8.02238C1.22187 8.05308 1.46163 8.00383 1.66679 7.88245L3.39518 6.86859V8.88918C3.38675 9.11739 3.45137 9.34232 3.57959 9.53114C3.70782 9.71996 3.89293 9.86278 4.10792 9.93875C4.2695 9.99598 4.44245 10.0135 4.61219 9.9897C4.78193 9.96595 4.94348 9.90167 5.08322 9.80228C5.22297 9.70288 5.33681 9.57129 5.41516 9.41859C5.4935 9.26589 5.53406 9.09657 5.53339 8.92488V6.86859L7.26179 7.88602C7.38329 7.96809 7.52034 8.02426 7.66442 8.05104C7.8085 8.07782 7.95655 8.07465 8.09935 8.04171C8.24216 8.00877 8.37668 7.94677 8.49456 7.85956C8.61245 7.77236 8.71117 7.66181 8.78462 7.53477C8.85806 7.40774 8.90465 7.26694 8.92149 7.12111C8.93833 6.97528 8.92506 6.82754 8.88252 6.68707C8.83997 6.54659 8.76904 6.41638 8.67415 6.30451C8.57926 6.19265 8.46242 6.10152 8.33089 6.03679H8.34515ZM8.11351 7.1399C8.08993 7.18051 8.05858 7.21606 8.02126 7.24451C7.98394 7.27296 7.94138 7.29375 7.89603 7.30569C7.85067 7.31763 7.80341 7.32048 7.75695 7.31409C7.71049 7.30769 7.66574 7.29217 7.62528 7.26842L4.82066 5.62267V8.92488C4.82066 9.01956 4.78311 9.11036 4.71628 9.17731C4.64945 9.24426 4.5588 9.28188 4.46429 9.28188C4.36977 9.28188 4.27913 9.24426 4.21229 9.17731C4.14546 9.11036 4.10792 9.01956 4.10792 8.92488V5.62267L1.30329 7.26842C1.2229 7.30482 1.13188 7.31005 1.04786 7.2831C0.96384 7.25615 0.892783 7.19894 0.84844 7.12254C0.804097 7.04614 0.789621 6.95597 0.807813 6.86949C0.826005 6.78302 0.875571 6.70637 0.946921 6.65439L3.75155 4.99793L0.93623 3.34147C0.89079 3.3209 0.850167 3.29101 0.816985 3.25372C0.783803 3.21643 0.758801 3.17259 0.743597 3.12501C0.728393 3.07744 0.723324 3.0272 0.728718 2.97754C0.734112 2.92788 0.749849 2.87991 0.774912 2.83673C0.799975 2.79354 0.833805 2.75611 0.874216 2.72684C0.914627 2.69758 0.960719 2.67714 1.00951 2.66684C1.0583 2.65654 1.10871 2.65661 1.15748 2.66705C1.20624 2.67749 1.25227 2.69806 1.2926 2.72744L4.10792 4.37319V1.07099C4.10792 0.976305 4.14546 0.885502 4.21229 0.818552C4.27913 0.751602 4.36977 0.71399 4.46429 0.71399C4.5588 0.71399 4.64945 0.751602 4.71628 0.818552C4.78311 0.885502 4.82066 0.976305 4.82066 1.07099V4.37319L7.62528 2.72387C7.70568 2.68748 7.79669 2.68225 7.88071 2.70919C7.96473 2.73614 8.03579 2.79335 8.08013 2.86975C8.12447 2.94616 8.13895 3.03632 8.12076 3.1228C8.10257 3.20928 8.053 3.28592 7.98165 3.33791L5.17702 4.99793L7.99234 6.65439C8.07205 6.70325 8.12941 6.78151 8.15207 6.87232C8.17473 6.96313 8.16088 7.05922 8.11351 7.1399Z" fill="#925CE1"/>
</svg>
