<svg width="96" height="97" viewBox="0 0 96 97" fill="none" xmlns="http://www.w3.org/2000/svg">
<path d="M20.4705 26.9717L20.4717 26.9705C21.4596 25.9809 22.6176 25.5 24 25.5H72C73.3824 25.5 74.5418 25.981 75.5319 26.9711C76.5197 27.9589 77 29.1171 77 30.5V66.5C77 67.8827 76.5198 69.042 75.5319 70.0319C74.542 71.0198 73.3827 71.5 72 71.5H24C22.6171 71.5 21.4589 71.0197 20.4711 70.0319C19.481 69.0418 19 67.8824 19 66.5V30.5C19 29.1176 19.4809 27.9596 20.4705 26.9717ZM23 48.5V49.5H24H72H73V48.5V36.5V35.5H72H24H23V36.5V48.5Z" stroke="#925CE1" stroke-width="2"/>
<circle cx="48" cy="48.5" r="47" stroke="#925CE1" stroke-width="2"/>
</svg>
