<svg width="96" height="97" viewBox="0 0 96 97" fill="none" xmlns="http://www.w3.org/2000/svg">
<circle cx="48" cy="48.5" r="47" stroke="#925CE1" stroke-width="2"/>
<path fill-rule="evenodd" clip-rule="evenodd" d="M58.3905 52.7498L70.1957 58.0323C70.7884 58.2899 71.2821 58.7321 71.6033 59.2929C71.9245 59.8537 72.056 60.5033 71.9782 61.1449C71.5634 64.291 70.0175 67.1785 67.6293 69.2682C65.2411 71.3578 62.1739 72.5066 59.0005 72.5C39.7003 72.5 24.0001 56.7998 24.0001 37.4996C23.9935 34.3263 25.1423 31.2591 27.2319 28.8709C29.3216 26.4827 32.2091 24.9368 35.3552 24.522C35.9997 24.4436 36.6523 24.5765 37.2149 24.9006C37.7775 25.2247 38.2197 25.7226 38.4753 26.3195L43.7678 38.1046C43.965 38.5616 44.0454 39.0605 44.0017 39.5562C43.9581 40.052 43.7918 40.5292 43.5178 40.9447L43.5177 40.9448C43.4953 40.9772 43.4728 41.0097 43.4478 41.0397L38.1477 47.3422C38.0646 47.4803 38.0169 47.6368 38.0091 47.7978C38.0012 47.9588 38.0334 48.1192 38.1028 48.2647C40.0628 52.2773 44.2653 56.4473 48.3254 58.4074C48.4718 58.476 48.6331 58.5072 48.7945 58.498C48.956 58.4888 49.1127 58.4396 49.2504 58.3549L55.4505 53.0698C55.4805 53.0443 55.5122 53.0209 55.5455 52.9998C55.9616 52.725 56.4396 52.5582 56.9363 52.5145C57.4331 52.4709 57.9329 52.5517 58.3905 52.7498ZM66.3125 67.7707C68.3371 66.0024 69.6482 63.5572 70.0007 60.8924C70.0232 60.6783 69.9759 60.4626 69.866 60.2775C69.7561 60.0924 69.5894 59.9477 69.3907 59.8649L57.588 54.5748C57.4445 54.5146 57.2888 54.4893 57.1336 54.501C56.9785 54.5128 56.8283 54.5612 56.6955 54.6423L50.4879 59.9224L50.3954 59.9924C49.9647 60.28 49.4668 60.4512 48.9503 60.4893C48.4338 60.5274 47.9162 60.4311 47.4479 60.2099C42.9503 58.0373 38.4703 53.5898 36.2977 49.1422C36.075 48.6771 35.976 48.1625 36.0101 47.6479C36.0443 47.1334 36.2105 46.6363 36.4927 46.2047C36.51 46.1779 36.5287 46.154 36.5477 46.1297C36.5535 46.1223 36.5594 46.1148 36.5652 46.1072L41.8628 39.8071C41.9422 39.6721 41.9888 39.5203 41.9988 39.364C42.0088 39.2077 41.9819 39.0512 41.9203 38.9071L36.6427 27.122C36.5683 26.9393 36.4414 26.7827 36.2781 26.6719C36.1149 26.5612 35.9225 26.5012 35.7252 26.4995C35.6853 26.497 35.6452 26.497 35.6052 26.4995C32.9408 26.8525 30.4962 28.1639 28.7284 30.1884C26.9607 32.2129 25.9908 34.812 26.0001 37.4996C26.0001 55.6948 40.8053 70.5 59.0005 70.5C61.6886 70.5092 64.2879 69.539 66.3125 67.7707Z" fill="#925CE1"/>
<path fill-rule="evenodd" clip-rule="evenodd" d="M59.364 37.592C59.1765 37.4044 59.0711 37.1501 59.0711 36.8849C59.0711 36.6197 59.1765 36.3653 59.364 36.1778L64.3138 31.2279L59.364 26.2781C59.1765 26.0906 59.0711 25.8362 59.0711 25.571C59.0711 25.3058 59.1765 25.0514 59.364 24.8639C59.5516 24.6764 59.8059 24.571 60.0712 24.571C60.3364 24.571 60.5907 24.6764 60.7783 24.8639L65.7281 29.8137L70.6779 24.8639C70.8654 24.6764 71.1198 24.571 71.385 24.571C71.6502 24.571 71.9046 24.6764 72.0921 24.8639C72.2797 25.0514 72.385 25.3058 72.385 25.571C72.385 25.8362 72.2797 26.0906 72.0921 26.2781L67.1423 31.2279L72.0921 36.1777C72.2796 36.3653 72.385 36.6196 72.385 36.8849C72.385 37.1501 72.2796 37.4044 72.0921 37.592C71.9046 37.7795 71.6502 37.8849 71.385 37.8849C71.1198 37.8849 70.8654 37.7795 70.6779 37.592L65.7281 32.6422L60.7783 37.592C60.5907 37.7795 60.3364 37.8849 60.0711 37.8849C59.8059 37.8849 59.5516 37.7795 59.364 37.592Z" fill="#925CE1"/>
</svg>
