<svg width="97" height="97" viewBox="0 0 97 97" fill="none" xmlns="http://www.w3.org/2000/svg">
<circle cx="48.5" cy="48.5" r="47" stroke="#925CE1" stroke-width="2"/>
<path d="M48.5 72.5C61.7548 72.5 72.5 61.7548 72.5 48.5C72.5 35.2452 61.7548 24.5 48.5 24.5C35.2452 24.5 24.5 35.2452 24.5 48.5C24.5 61.7548 35.2452 72.5 48.5 72.5Z" stroke="#925CE1" stroke-width="2" stroke-linecap="round" stroke-linejoin="round"/>
<path d="M25.8759 40.4985H71.1228M25.8759 56.4991H71.1228" stroke="#925CE1" stroke-width="2" stroke-linecap="round" stroke-linejoin="round"/>
<path d="M48.4999 71.8498C54.0228 71.8498 58.5 61.3956 58.5 48.4996C58.5 35.6037 54.0228 25.1494 48.4999 25.1494C42.977 25.1494 38.4998 35.6037 38.4998 48.4996C38.4998 61.3956 42.977 71.8498 48.4999 71.8498Z" stroke="#925CE1" stroke-width="2" stroke-linecap="round" stroke-linejoin="round"/>
</svg>
