<svg width="96" height="97" viewBox="0 0 96 97" fill="none" xmlns="http://www.w3.org/2000/svg">
<circle cx="48" cy="48.5" r="47" stroke="#925CE1" stroke-width="2"/>
<path fill-rule="evenodd" clip-rule="evenodd" d="M71.1017 47.6404C71.2494 47.7903 71.3324 47.9937 71.3323 48.2057C71.3323 48.4177 71.2493 48.6211 71.1015 48.7711L68.3161 51.5981L71.1006 54.4242C71.2483 54.5741 71.3312 54.7774 71.3312 54.9895C71.3312 55.2015 71.2482 55.4049 71.1004 55.5548C70.9527 55.7048 70.7523 55.789 70.5434 55.7891C70.3345 55.7891 70.1341 55.7049 69.9864 55.555L67.2019 52.7289L64.4165 55.556C64.2688 55.7059 64.0684 55.7902 63.8595 55.7902C63.6506 55.7902 63.4502 55.706 63.3025 55.5561C63.1548 55.4062 63.0719 55.2029 63.0719 54.9909C63.0719 54.7788 63.155 54.5755 63.3027 54.4255L66.0881 51.5985L63.3036 48.7724C63.1559 48.6225 63.073 48.4191 63.073 48.2071C63.0731 47.9951 63.1561 47.7917 63.3038 47.6418C63.4516 47.4918 63.6519 47.4075 63.8609 47.4075C64.0698 47.4075 64.2701 47.4917 64.4178 47.6416L67.2023 50.4677L69.9877 47.6406C70.1355 47.4907 70.3358 47.4064 70.5448 47.4064C70.7537 47.4063 70.954 47.4905 71.1017 47.6404Z" fill="#925CE1"/>
<path fill-rule="evenodd" clip-rule="evenodd" d="M61.6601 64.3333C61.6822 64.1287 61.6256 63.9233 61.5021 63.7599C58.2109 59.7832 53.9921 57.1394 49.3123 56.0483C51.9822 54.8896 54.1759 52.8311 55.5227 50.2208C56.8694 47.6106 57.2866 44.6086 56.7037 41.7223C56.1208 38.836 54.5736 36.2423 52.3236 34.3798C50.0736 32.5172 47.2588 31.5 44.3549 31.5C41.451 31.5 38.6362 32.5172 36.3862 34.3798C34.1361 36.2423 32.5889 38.836 32.006 41.7223C31.4232 44.6086 31.8404 47.6106 33.1871 50.2208C34.5338 52.8311 36.7275 54.8896 39.3974 56.0483C34.7177 57.1394 30.4988 59.7832 27.2076 63.7599C27.1356 63.8394 27.0803 63.9329 27.0449 64.0347C27.0095 64.1365 26.9948 64.2445 27.0016 64.3523C27.0085 64.46 27.0368 64.5652 27.0849 64.6615C27.1329 64.7579 27.1997 64.8433 27.2812 64.9128C27.3626 64.9822 27.4571 65.0342 27.5589 65.0655C27.6608 65.0969 27.7678 65.107 27.8735 65.0953C27.9793 65.0835 28.0816 65.0501 28.1744 64.9972C28.2671 64.9442 28.3483 64.8727 28.413 64.7871C32.5373 59.8172 38.1901 57.0794 44.3549 57.0794C50.5197 57.0794 56.1724 59.8172 60.2967 64.7871C60.434 64.9387 60.6236 65.0307 60.8261 65.044C61.0285 65.0573 61.2283 64.9908 61.3836 64.8584C61.539 64.726 61.638 64.5379 61.6601 64.3333ZM50.4826 53.5948C48.6688 54.8244 46.5363 55.4808 44.3549 55.4808C41.4306 55.4776 38.6269 54.2975 36.5592 52.1996C34.4914 50.1016 33.3283 47.257 33.3252 44.29C33.3252 42.0767 33.9721 39.9131 35.184 38.0727C36.396 36.2324 38.1186 34.7981 40.134 33.9511C42.1494 33.1041 44.3671 32.8825 46.5067 33.3143C48.6462 33.7461 50.6115 34.8119 52.1541 36.3769C53.6966 37.942 54.7471 39.936 55.1726 42.1068C55.5982 44.2776 55.3798 46.5277 54.545 48.5725C53.7102 50.6174 52.2965 52.3651 50.4826 53.5948Z" fill="#925CE1"/>
</svg>
