<svg width="97" height="97" viewBox="0 0 97 97" fill="none" xmlns="http://www.w3.org/2000/svg">
<circle cx="48.5" cy="48.5" r="47" stroke="#925CE1" stroke-width="2"/>
<path d="M56.5035 45.8339V45.8605M30.2996 38.8422C29.13 37.9434 28.2318 36.7386 27.7041 35.3612C27.1765 33.9837 27.04 32.4872 27.3096 31.037C27.5793 29.5868 28.2447 28.2394 29.2323 27.1437C30.2199 26.0481 31.4912 25.2468 32.9057 24.8285C34.3202 24.4101 35.8228 24.391 37.2474 24.7733C38.6721 25.1555 39.9633 25.9243 40.9784 26.9945C41.9935 28.0647 42.693 29.3948 42.9994 30.8376C43.3059 32.2805 43.2074 33.78 42.7149 35.1704" stroke="#925CE1" stroke-width="2" stroke-linecap="round" stroke-linejoin="round"/>
<path d="M59.17 27.168V37.3088C62.4702 39.2183 64.9827 42.2403 66.2577 45.8336H69.8335C70.5407 45.8336 71.2189 46.1146 71.719 46.6146C72.2191 47.1147 72.5 47.7929 72.5 48.5002V53.8332C72.5 54.5404 72.2191 55.2186 71.719 55.7187C71.2189 56.2188 70.5407 56.4997 69.8335 56.4997H66.255C65.359 59.0329 63.8365 61.2995 61.8339 63.094V68.4991C61.8339 69.5599 61.4125 70.5772 60.6624 71.3274C59.9123 72.0775 58.8949 72.4989 57.8341 72.4989C56.7733 72.4989 55.756 72.0775 55.0058 71.3274C54.2557 70.5772 53.8343 69.5599 53.8343 68.4991V66.9445C52.9532 67.0921 52.0613 67.1661 51.1678 67.1658H40.5017C39.6083 67.1661 38.7164 67.0921 37.8352 66.9445V68.4991C37.8352 69.5599 37.4138 70.5772 36.6637 71.3274C35.9136 72.0775 34.8962 72.4989 33.8354 72.4989C32.7746 72.4989 31.7572 72.0775 31.0071 71.3274C30.257 70.5772 29.8356 69.5599 29.8356 68.4991V63.094C27.4197 60.9341 25.7166 58.0913 24.9518 54.9421C24.1871 51.7929 24.3967 48.4857 25.553 45.4582C26.7093 42.4308 28.7577 39.8259 31.4271 37.9883C34.0965 36.1507 37.261 35.167 40.5017 35.1675H47.168L59.1674 27.168H59.17Z" stroke="#925CE1" stroke-width="2" stroke-linecap="round" stroke-linejoin="round"/>
</svg>
