<svg width="16" height="17" viewBox="0 0 16 17" fill="none" xmlns="http://www.w3.org/2000/svg">
<path d="M7.88214 13.3937L4.18214 16.2187C3.99881 16.3687 3.79881 16.4393 3.58214 16.4307C3.36548 16.4227 3.17381 16.3603 3.00714 16.2437C2.84048 16.127 2.71148 15.9687 2.62014 15.7687C2.52814 15.5687 2.52381 15.352 2.60714 15.1187L4.03214 10.4937L0.407143 7.91866C0.207143 7.78533 0.0821428 7.61033 0.0321428 7.39366C-0.0178572 7.177 -0.00952375 6.977 0.0571429 6.79366C0.12381 6.61033 0.240476 6.44766 0.407143 6.30566C0.573809 6.16433 0.773809 6.09366 1.00714 6.09366H5.48214L6.93214 1.29366C7.01548 1.06033 7.14481 0.880998 7.32014 0.755665C7.49481 0.630998 7.68214 0.568665 7.88214 0.568665C8.08214 0.568665 8.26948 0.630998 8.44414 0.755665C8.61948 0.880998 8.74881 1.06033 8.83214 1.29366L10.2821 6.09366H14.7571C14.9905 6.09366 15.1905 6.16433 15.3571 6.30566C15.5238 6.44766 15.6405 6.61033 15.7071 6.79366C15.7738 6.977 15.7821 7.177 15.7321 7.39366C15.6821 7.61033 15.5571 7.78533 15.3571 7.91866L11.7321 10.4937L13.1571 15.1187C13.2405 15.352 13.2365 15.5687 13.1451 15.7687C13.0531 15.9687 12.9238 16.127 12.7571 16.2437C12.5905 16.3603 12.3988 16.4227 12.1821 16.4307C11.9655 16.4393 11.7655 16.3687 11.5821 16.2187L7.88214 13.3937Z" fill="#AA6CFF"/>
</svg>
