<svg width="96" height="96" viewBox="0 0 96 96" fill="none" xmlns="http://www.w3.org/2000/svg">
<rect x="1.5" y="1.5" width="93" height="93" rx="3.5" stroke="#AA6CFF" stroke-width="3"/>
<path d="M48.1504 37.5C42.3004 37.5 37.6504 42.15 37.6504 48C37.6504 53.85 42.3004 58.5 48.1504 58.5C54.0004 58.5 58.6504 53.85 58.6504 48C58.6504 42.15 54.0004 37.5 48.1504 37.5ZM48.1504 55.5C43.9504 55.5 40.6504 52.2 40.6504 48C40.6504 43.8 43.9504 40.5 48.1504 40.5C52.3504 40.5 55.6504 43.8 55.6504 48C55.6504 52.2 52.3504 55.5 48.1504 55.5Z" fill="#AA6CFF"/>
<path d="M70.2 43.05L66 41.7L65.1 39.45L67.2 35.55C67.65 34.65 67.5 33.45 66.75 32.7L63.15 29.1C62.4 28.35 61.2 28.2 60.3 28.65L56.4 30.75L54.15 29.85L52.8 25.65C52.5 24.75 51.6 24 50.55 24H45.45C44.4 24 43.5 24.75 43.35 25.8L42 30C41.1 30.15 40.35 30.45 39.6 30.9L35.7 28.8C34.8 28.35 33.6 28.5 32.85 29.25L29.25 32.85C28.5 33.6 28.35 34.8 28.8 35.7L30.75 39.45C30.45 40.2 30.15 41.1 29.85 41.85L25.65 43.2C24.75 43.5 24 44.4 24 45.45V50.55C24 51.6 24.75 52.5 25.8 52.8L30 54.15L30.9 56.4L28.8 60.3C28.35 61.2 28.5 62.4 29.25 63.15L32.85 66.75C33.6 67.5 34.8 67.65 35.7 67.2L39.6 65.1L41.85 66L43.2 70.35C43.5 71.25 44.4 72 45.45 72H50.55C51.6 72 52.5 71.25 52.8 70.35L54.15 66L56.4 65.1L60.3 67.2C61.2 67.65 62.4 67.5 63.15 66.75L66.75 63.15C67.5 62.4 67.65 61.2 67.2 60.3L65.1 56.4L66 54.15L70.35 52.8C71.25 52.5 72 51.6 72 50.55V45.45C72 44.4 71.25 43.35 70.2 43.05ZM69 50.1L63.6 51.75L63.45 52.5L62.1 55.65L61.65 56.4L64.35 61.35L61.35 64.35L56.4 61.65L55.65 62.1C54.6 62.7 53.55 63.15 52.5 63.45L51.75 63.6L50.1 69H45.9L44.25 63.6L43.5 63.45L40.35 62.1L39.6 61.65L34.65 64.35L31.65 61.35L34.35 56.4L33.9 55.65C33.3 54.6 32.85 53.55 32.55 52.5L32.4 51.75L27 50.1V45.9L32.1 44.4L32.4 43.65C32.7 42.45 33.15 41.4 33.75 40.35L34.2 39.6L31.65 34.65L34.65 31.65L39.45 34.35L40.2 33.9C41.25 33.3 42.3 32.85 43.5 32.55L44.25 32.25L45.9 27H50.1L51.75 32.25L52.5 32.55C53.55 32.85 54.6 33.3 55.65 33.9L56.4 34.35L61.35 31.65L64.35 34.65L61.65 39.6L62.1 40.35C62.7 41.4 63.15 42.45 63.45 43.5L63.6 44.25L69 45.9V50.1Z" fill="#AA6CFF"/>
</svg>
