<svg width="96" height="96" viewBox="0 0 96 96" fill="none" xmlns="http://www.w3.org/2000/svg">
<rect x="1.5" y="1.5" width="93" height="93" rx="3.5" stroke="#AA6CFF" stroke-width="3"/>
<path d="M48 24C43.2533 24 38.6131 25.4076 34.6663 28.0447C30.7195 30.6819 27.6434 34.4302 25.8269 38.8156C24.0104 43.201 23.5351 48.0266 24.4612 52.6822C25.3872 57.3377 27.673 61.6141 31.0294 64.9706C34.3859 68.327 38.6623 70.6128 43.3178 71.5388C47.9734 72.4649 52.799 71.9896 57.1844 70.1731C61.5698 68.3566 65.3181 65.2805 67.9553 61.3337C70.5924 57.3869 72 52.7467 72 48C72 41.6348 69.4714 35.5303 64.9706 31.0294C60.4697 26.5286 54.3652 24 48 24ZM59.475 56.385C57.975 60.885 54.06 62.145 50.625 62.385V65.385C50.625 65.8823 50.4275 66.3592 50.0758 66.7108C49.7242 67.0624 49.2473 67.26 48.75 67.26C48.2527 67.26 47.7758 67.0624 47.4242 66.7108C47.0725 66.3592 46.875 65.8823 46.875 65.385V62.385C43.4305 62.062 40.1633 60.7081 37.5 58.5C37.3198 58.3316 37.1745 58.1293 37.0724 57.9047C36.9703 57.6802 36.9135 57.4377 36.9051 57.1911C36.8968 56.9446 36.9371 56.6988 37.0237 56.4679C37.1103 56.2369 37.2416 56.0252 37.41 55.845C37.5784 55.6648 37.7807 55.5195 38.0053 55.4174C38.2298 55.3153 38.4723 55.2585 38.7189 55.2501C38.9654 55.2418 39.2112 55.2821 39.4422 55.3687C39.6731 55.4553 39.8848 55.5866 40.065 55.755C42.0281 57.3359 44.3902 58.343 46.89 58.665V49.245C44.8979 48.9381 42.992 48.2176 41.295 47.13C39.8685 46.2353 38.8006 44.8689 38.2772 43.2685C37.7537 41.668 37.8078 39.9347 38.43 38.37C39.315 36.105 42.06 33.525 46.89 33.105V30.375C46.89 29.8777 47.0875 29.4008 47.4392 29.0492C47.7908 28.6975 48.2677 28.5 48.765 28.5C49.2623 28.5 49.7392 28.6975 50.0908 29.0492C50.4425 29.4008 50.64 29.8777 50.64 30.375V33.165C53.3213 33.462 55.8667 34.501 57.99 36.165C58.2843 36.5113 58.4428 36.9526 58.4361 37.407C58.4294 37.8614 58.2579 38.2979 57.9535 38.6353C57.6491 38.9727 57.2325 39.1881 56.7812 39.2413C56.3299 39.2946 55.8746 39.1822 55.5 38.925C54.0678 37.8775 52.3978 37.2023 50.64 36.96V46.155C51.54 46.35 52.5 46.56 53.505 46.875C54.6675 47.1649 55.7583 47.6897 56.7102 48.4172C57.6622 49.1447 58.4551 50.0594 59.04 51.105C59.8754 52.7388 60.0317 54.6365 59.475 56.385Z" fill="#AA6CFF"/>
<path d="M52.38 50.4599C51.78 50.2799 51.195 50.1299 50.625 50.0099V58.6499C53.625 58.3499 55.23 57.2999 55.92 55.1999C56.15 54.4101 56.0695 53.5623 55.695 52.8299C55.3289 52.2333 54.847 51.7162 54.2776 51.3091C53.7082 50.902 53.0629 50.6132 52.38 50.4599Z" fill="#AA6CFF"/>
<path d="M41.9098 39.7201C41.5968 40.4977 41.5763 41.3624 41.8521 42.154C42.1279 42.9456 42.6813 43.6103 43.4098 44.0251C44.4703 44.7045 45.6519 45.1731 46.8898 45.4051V36.8251C43.7398 37.2001 42.2848 38.7601 41.9098 39.7201Z" fill="#AA6CFF"/>
</svg>
