<svg width="96" height="96" viewBox="0 0 96 96" fill="none" xmlns="http://www.w3.org/2000/svg">
<rect x="1.5" y="1.5" width="93" height="93" rx="3.5" stroke="#AA6CFF" stroke-width="3"/>
<path d="M48.7864 39.6935C48.6019 39.4033 48.3124 39.1955 47.9784 39.1137C47.6444 39.0319 47.2916 39.0823 46.9939 39.2544C46.6962 39.4265 46.4765 39.707 46.3806 40.0373C46.2848 40.3676 46.3203 40.7221 46.4797 41.0268L49.8131 46.8135L41.7197 45.4801L48.7731 59.6001C48.9368 59.9055 49.213 60.1351 49.5432 60.2404C49.8733 60.3456 50.2314 60.3182 50.5417 60.1639C50.852 60.0096 51.09 59.7406 51.2054 59.4139C51.3207 59.0872 51.3044 58.7284 51.1597 58.4135L46.4531 48.9735L54.9597 50.3868L48.7864 39.6935Z" fill="#AA6CFF"/>
<path d="M57.4933 29.3334H54.6667V28.7734C54.6667 28.2147 54.4447 27.6789 54.0496 27.2838C53.6546 26.8887 53.1187 26.6667 52.56 26.6667H43.44C42.8813 26.6667 42.3454 26.8887 41.9504 27.2838C41.5553 27.6789 41.3333 28.2147 41.3333 28.7734V29.3334H38.5067C37.8419 29.3334 37.2043 29.5975 36.7342 30.0676C36.2641 30.5377 36 31.1753 36 31.8401V66.8267C36 67.1559 36.0648 67.4819 36.1908 67.786C36.3168 68.0901 36.5014 68.3665 36.7342 68.5992C36.967 68.832 37.2433 69.0166 37.5474 69.1426C37.8515 69.2686 38.1775 69.3334 38.5067 69.3334H57.4933C58.1581 69.3334 58.7957 69.0693 59.2658 68.5992C59.7359 68.1291 60 67.4916 60 66.8267V31.8401C60 31.1753 59.7359 30.5377 59.2658 30.0676C58.7957 29.5975 58.1581 29.3334 57.4933 29.3334ZM57.3333 66.6667H38.6667V32.0001H44V29.3334H52V32.0001H57.3333V66.6667Z" fill="#AA6CFF"/>
</svg>
