<svg width="96" height="96" viewBox="0 0 96 96" fill="none" xmlns="http://www.w3.org/2000/svg">
<rect x="1.5" y="1.5" width="93" height="93" rx="3.5" stroke="#AA6CFF" stroke-width="3"/>
<path d="M41.9998 60.9231H34.6152C33.5956 60.9231 32.769 61.7496 32.769 62.7692V70.1539C32.769 71.1735 33.5956 72 34.6152 72H41.9998C43.0194 72 43.846 71.1735 43.846 70.1539V62.7692C43.846 61.7496 43.0194 60.9231 41.9998 60.9231Z" fill="#AA6CFF"/>
<path d="M42 42.4615H34.6154C34.1258 42.4615 33.6562 42.656 33.31 43.0023C32.9637 43.3485 32.7692 43.8181 32.7692 44.3077V46.5231H25.0154V35.0769H27.2308C27.7204 35.0769 28.19 34.8824 28.5362 34.5362C28.8824 34.19 29.0769 33.7204 29.0769 33.2308V25.8462C29.0769 25.3565 28.8824 24.8869 28.5362 24.5407C28.19 24.1945 27.7204 24 27.2308 24H19.8462C19.3565 24 18.8869 24.1945 18.5407 24.5407C18.1945 24.8869 18 25.3565 18 25.8462V33.2308C18 33.7204 18.1945 34.19 18.5407 34.5362C18.8869 34.8824 19.3565 35.0769 19.8462 35.0769H22.0615V67.9385H34.6154C35.0071 67.9385 35.3827 67.7829 35.6597 67.5059C35.9367 67.2289 36.0923 66.8532 36.0923 66.4615C36.0923 66.0698 35.9367 65.6942 35.6597 65.4172C35.3827 65.1402 35.0071 64.9846 34.6154 64.9846H25.0154V49.4769H32.7692V51.6923C32.7692 52.1819 32.9637 52.6515 33.31 52.9977C33.6562 53.344 34.1258 53.5385 34.6154 53.5385H42C42.4896 53.5385 42.9592 53.344 43.3054 52.9977C43.6516 52.6515 43.8462 52.1819 43.8462 51.6923V44.3077C43.8462 43.8181 43.6516 43.3485 43.3054 43.0023C42.9592 42.656 42.4896 42.4615 42 42.4615Z" fill="#AA6CFF"/>
<path d="M75.2306 27.6923H32.769V31.3846H75.2306C75.7202 31.3846 76.1898 31.1901 76.536 30.8438C76.8822 30.4976 77.0767 30.028 77.0767 29.5384C77.0767 29.0488 76.8822 28.5792 76.536 28.233C76.1898 27.8868 75.7202 27.6923 75.2306 27.6923Z" fill="#AA6CFF"/>
<path d="M75.2309 46.1538H47.5386V49.8461H75.2309C75.7205 49.8461 76.1901 49.6516 76.5363 49.3054C76.8825 48.9592 77.077 48.4896 77.077 48C77.077 47.5103 76.8825 47.0408 76.5363 46.6945C76.1901 46.3483 75.7205 46.1538 75.2309 46.1538Z" fill="#AA6CFF"/>
<path d="M75.2309 64.6154H47.5386V68.3077H75.2309C75.7205 68.3077 76.1901 68.1132 76.5363 67.7669C76.8825 67.4207 77.077 66.9511 77.077 66.4615C77.077 65.9719 76.8825 65.5023 76.5363 65.1561C76.1901 64.8099 75.7205 64.6154 75.2309 64.6154Z" fill="#AA6CFF"/>
</svg>
