<svg width="220" height="440" viewBox="0 0 220 440" fill="none" xmlns="http://www.w3.org/2000/svg">
<g filter="url(#filter0_d_181_12979)">
<path d="M208.212 73.2004H204.972C203.985 73.2004 203.185 74.0045 203.185 74.9964V142.411C203.185 143.403 203.985 144.207 204.972 144.207H208.212C209.2 144.207 210 143.403 210 142.411V74.9964C210 74.0045 209.2 73.2004 208.212 73.2004Z" fill="#1E1E1E"/>
<path d="M208.212 152.401H204.972C203.985 152.401 203.185 153.205 203.185 154.197V179.721C203.185 180.713 203.985 181.517 204.972 181.517H208.212C209.2 181.517 210 180.713 210 179.721V154.197C210 153.205 209.2 152.401 208.212 152.401Z" fill="#1E1E1E"/>
<path d="M37.6648 5.5H180.435C195.436 5.5 207.6 17.7169 207.6 32.792V397.208C207.6 412.283 195.436 424.5 180.435 424.5H37.6648C22.6642 424.5 10.5 412.283 10.5 397.208V32.792C10.5 17.7169 22.6642 5.5 37.6648 5.5Z" fill="#1E1E1E" stroke="#6850FF"/>
<g style="mix-blend-mode:screen">
<path d="M12.6055 397.5L12.6055 397.503C12.6256 400.998 13.292 404.429 14.5432 407.632C14.2769 407.114 14.0269 406.586 13.7938 406.049C12.3106 402.637 11.5392 398.955 11.5273 395.232V34.7234C11.5392 30.9998 12.3106 27.3183 13.7938 23.906C14.0251 23.3739 14.2729 22.85 14.5368 22.3352C13.2861 25.5421 12.6218 28.9772 12.6055 32.4754V32.4777L12.6055 397.5Z" fill="#1E1E1E"/>
<path d="M12.6055 397.5L12.6055 397.503C12.6256 400.998 13.292 404.429 14.5432 407.632C14.2769 407.114 14.0269 406.586 13.7938 406.049C12.3106 402.637 11.5392 398.955 11.5273 395.232V34.7234C11.5392 30.9998 12.3106 27.3183 13.7938 23.906C14.0251 23.3739 14.2729 22.85 14.5368 22.3352C13.2861 25.5421 12.6218 28.9772 12.6055 32.4754V32.4777L12.6055 397.5Z" stroke="url(#paint0_linear_181_12979)"/>
</g>
<g style="mix-blend-mode:screen">
<path d="M205.36 397.503V397.5L205.36 32.4777L205.36 32.4754C205.344 28.9772 204.68 25.542 203.429 22.3352C203.693 22.85 203.941 23.3739 204.172 23.906C205.655 27.3183 206.426 30.9998 206.438 34.7233V395.232C206.426 398.955 205.655 402.637 204.172 406.049C203.939 406.586 203.689 407.114 203.423 407.632C204.674 404.429 205.34 400.998 205.36 397.503Z" fill="#1E1E1E"/>
<path d="M205.36 397.503V397.5L205.36 32.4777L205.36 32.4754C205.344 28.9772 204.68 25.542 203.429 22.3352C203.693 22.85 203.941 23.3739 204.172 23.906C205.655 27.3183 206.426 30.9998 206.438 34.7233V395.232C206.426 398.955 205.655 402.637 204.172 406.049C203.939 406.586 203.689 407.114 203.423 407.632C204.674 404.429 205.34 400.998 205.36 397.503Z" stroke="url(#paint1_linear_181_12979)"/>
</g>
<g style="mix-blend-mode:screen">
<path d="M13.9679 28.0497C13.7138 28.6659 13.4818 29.2901 13.2723 29.921C13.6151 28.048 14.1529 26.2117 14.8797 24.443C16.2425 21.1266 18.2427 18.1127 20.7659 15.5738C23.2891 13.035 26.2856 11.0209 29.5841 9.64681C32.8826 8.27269 36.4183 7.56543 39.989 7.56543H178.111C181.68 7.56835 185.213 8.27774 188.509 9.65313C191.805 11.0285 194.799 13.0431 197.32 15.5816C199.841 18.1202 201.839 21.1331 203.201 24.4481C203.926 26.2152 204.463 28.0497 204.806 29.9208C203.437 25.7995 201.128 22.0106 198.014 18.8792C192.737 13.5739 185.579 10.5899 178.112 10.5838H178.112H39.989C36.29 10.5838 32.6273 11.3157 29.2101 12.7377C25.7928 14.1597 22.688 16.2439 20.0727 18.8712C17.4575 21.4984 15.3831 24.6173 13.9679 28.0497Z" fill="#1E1E1E"/>
<path d="M13.9679 28.0497C13.7138 28.6659 13.4818 29.2901 13.2723 29.921C13.6151 28.048 14.1529 26.2117 14.8797 24.443C16.2425 21.1266 18.2427 18.1127 20.7659 15.5738C23.2891 13.035 26.2856 11.0209 29.5841 9.64681C32.8826 8.27269 36.4183 7.56543 39.989 7.56543H178.111C181.68 7.56835 185.213 8.27774 188.509 9.65313C191.805 11.0285 194.799 13.0431 197.32 15.5816C199.841 18.1202 201.839 21.1331 203.201 24.4481C203.926 26.2152 204.463 28.0497 204.806 29.9208C203.437 25.7995 201.128 22.0106 198.014 18.8792C192.737 13.5739 185.579 10.5899 178.112 10.5838H178.112H39.989C36.29 10.5838 32.6273 11.3157 29.2101 12.7377C25.7928 14.1597 22.688 16.2439 20.0727 18.8712C17.4575 21.4984 15.3831 24.6173 13.9679 28.0497Z" stroke="url(#paint2_linear_181_12979)"/>
</g>
<g style="mix-blend-mode:screen">
<path d="M39.9891 422.778H178.112C185.445 422.772 192.476 419.841 197.659 414.63C202.842 409.418 205.754 402.353 205.754 394.986V390.945C205.754 398.316 202.839 405.385 197.651 410.597C192.463 415.809 185.426 418.737 178.089 418.737H39.9891C32.6519 418.737 25.6153 415.809 20.4271 410.597C15.239 405.385 12.3243 398.316 12.3243 390.945V394.918C12.3155 398.574 13.0245 402.195 14.4109 405.575C15.7972 408.954 17.8336 412.026 20.4034 414.614C22.9731 417.202 26.0259 419.255 29.3867 420.656C32.7475 422.057 36.3504 422.778 39.9891 422.778Z" fill="#1E1E1E"/>
</g>
<path d="M127.184 5.08997H90.916V8.81651H127.184V5.08997Z" fill="#1E1E1E"/>
</g>
<rect x="146.862" y="201" width="19.2919" height="0.918664" fill="#925CE1"/>
<rect x="55.6079" y="201" width="19.2919" height="0.918664" fill="#925CE1"/>
<rect x="146.862" y="227.948" width="19.2919" height="0.918664" fill="#925CE1"/>
<rect x="55.6079" y="227.948" width="19.2919" height="0.918664" fill="#925CE1"/>
<rect x="146.862" y="214.167" width="17.7608" height="0.918664" fill="#925CE1"/>
<rect x="55.6079" y="214.167" width="17.7608" height="0.918664" fill="#925CE1"/>
<path fill-rule="evenodd" clip-rule="evenodd" d="M26 228.744H34.8192C43.4424 228.744 49.4002 222.786 49.4002 215.064V214.986C49.4002 207.264 43.4424 201.306 34.8192 201.306H26V202.102H26.8623V202.09H34.78C42.8936 202.09 48.5379 207.813 48.5379 215.025V215.103C48.5379 222.276 42.9328 227.96 34.8584 227.96H26.8623V214.351H26V228.744ZM92.7728 228.94H92.1064L79.642 201.306H80.5827L92.4592 227.725L104.336 201.306H105.237L92.7728 228.94ZM111.021 228.744H111.883V201.306H111.021V228.744ZM139.797 228.744H118.827V228.234L138.699 202.09H119.493V201.306H139.914V201.816L120.042 227.96H139.797V228.744ZM173.657 228.744H172.795V201.306H184.005C187.572 201.306 190.198 202.208 191.883 203.893C193.138 205.148 193.843 206.872 193.843 208.989V209.067C193.843 213.692 190.159 216.436 184.867 216.75L194 228.744H192.942L183.848 216.789H173.657V228.744ZM173.657 202.09V216.005H183.574C189.924 216.005 192.981 212.987 192.981 209.106V209.028C192.981 204.677 189.61 202.09 183.927 202.09H173.657Z" fill="#925CE1"/>
<defs>
<filter id="filter0_d_181_12979" x="0" y="0" width="220" height="440" filterUnits="userSpaceOnUse" color-interpolation-filters="sRGB">
<feFlood flood-opacity="0" result="BackgroundImageFix"/>
<feColorMatrix in="SourceAlpha" type="matrix" values="0 0 0 0 0 0 0 0 0 0 0 0 0 0 0 0 0 0 127 0" result="hardAlpha"/>
<feOffset dy="5"/>
<feGaussianBlur stdDeviation="5"/>
<feComposite in2="hardAlpha" operator="out"/>
<feColorMatrix type="matrix" values="0 0 0 0 0 0 0 0 0 0 0 0 0 0 0 0 0 0 0.4 0"/>
<feBlend mode="normal" in2="BackgroundImageFix" result="effect1_dropShadow_181_12979"/>
<feBlend mode="normal" in="SourceGraphic" in2="effect1_dropShadow_181_12979" result="shape"/>
</filter>
<linearGradient id="paint0_linear_181_12979" x1="10.6784" y1="14.5185" x2="23.1179" y2="14.5326" gradientUnits="userSpaceOnUse">
<stop stop-color="#6850FF"/>
<stop offset="0.403595" stop-color="#AA6CFF"/>
<stop offset="1" stop-color="#925CE1"/>
</linearGradient>
<linearGradient id="paint1_linear_181_12979" x1="197.807" y1="14.5185" x2="210.247" y2="14.5326" gradientUnits="userSpaceOnUse">
<stop stop-color="#6850FF"/>
<stop offset="0.403595" stop-color="#AA6CFF"/>
<stop offset="1" stop-color="#925CE1"/>
</linearGradient>
<linearGradient id="paint2_linear_181_12979" x1="4.63826" y1="7.06543" x2="253.93" y2="85.5258" gradientUnits="userSpaceOnUse">
<stop stop-color="#6850FF"/>
<stop offset="0.403595" stop-color="#AA6CFF"/>
<stop offset="1" stop-color="#925CE1"/>
</linearGradient>
</defs>
</svg>
