<svg width="96" height="96" viewBox="0 0 96 96" fill="none" xmlns="http://www.w3.org/2000/svg">
<rect x="1.5" y="1.5" width="93" height="93" rx="3.5" stroke="#AA6CFF" stroke-width="3"/>
<path d="M60.4286 24H36.4286C35.5193 24 34.6472 24.3612 34.0042 25.0042C33.3612 25.6472 33 26.5193 33 27.4286V68.5714C33 69.4807 33.3612 70.3528 34.0042 70.9958C34.6472 71.6388 35.5193 72 36.4286 72H60.4286C61.3379 72 62.21 71.6388 62.8529 70.9958C63.4959 70.3528 63.8571 69.4807 63.8571 68.5714V27.4286C63.8571 26.5193 63.4959 25.6472 62.8529 25.0042C62.21 24.3612 61.3379 24 60.4286 24ZM36.4286 27.4286H60.4286V58.2857H36.4286V27.4286ZM36.4286 68.5714V61.7143H60.4286V68.5714H36.4286Z" fill="#AA6CFF"/>
<path d="M46.7144 63.4286H50.1429V66.8572H46.7144V63.4286Z" fill="#AA6CFF"/>
</svg>
