<svg width="96" height="96" viewBox="0 0 96 96" fill="none" xmlns="http://www.w3.org/2000/svg">
<rect x="1.5" y="1.5" width="93" height="93" rx="3.5" stroke="#AA6CFF" stroke-width="3"/>
<path d="M43.5 33H57V36H43.5V33Z" fill="#AA6CFF"/>
<path d="M43.5 39H57V42H43.5V39Z" fill="#AA6CFF"/>
<path d="M43.5 45H57V48H43.5V45Z" fill="#AA6CFF"/>
<path d="M43.5 51H57V54H43.5V51Z" fill="#AA6CFF"/>
<path d="M43.5 57H57V60H43.5V57Z" fill="#AA6CFF"/>
<path d="M37.5 33H40.5V36H37.5V33Z" fill="#AA6CFF"/>
<path d="M37.5 39H40.5V42H37.5V39Z" fill="#AA6CFF"/>
<path d="M37.5 45H40.5V48H37.5V45Z" fill="#AA6CFF"/>
<path d="M37.5 51H40.5V54H37.5V51Z" fill="#AA6CFF"/>
<path d="M37.5 57H40.5V60H37.5V57Z" fill="#AA6CFF"/>
<path d="M63 24H33C32.2044 24 31.4413 24.3161 30.8787 24.8787C30.3161 25.4413 30 26.2044 30 27V69C30 69.7956 30.3161 70.5587 30.8787 71.1213C31.4413 71.6839 32.2044 72 33 72H63C63.7956 72 64.5587 71.6839 65.1213 71.1213C65.6839 70.5587 66 69.7956 66 69V27C66 26.2044 65.6839 25.4413 65.1213 24.8787C64.5587 24.3161 63.7956 24 63 24ZM63 69H33V27H63V69Z" fill="#AA6CFF"/>
</svg>
