<svg width="96" height="96" viewBox="0 0 96 96" fill="none" xmlns="http://www.w3.org/2000/svg">
<rect x="1.5" y="1.5" width="93" height="93" rx="8.5" stroke="#AA6CFF" stroke-width="3"/>
<path d="M48 16.0002C45.1264 16.0082 42.2671 16.4051 39.5 17.1802L41.04 20.9002C47.0213 19.3165 53.3579 19.7484 59.0691 22.1289C64.7802 24.5094 69.5476 28.7059 72.6334 34.069C75.7192 39.432 76.9513 45.6626 76.1391 51.7965C75.327 57.9304 72.5158 63.6257 68.1406 68.0008C63.7654 72.376 58.0702 75.1872 51.9363 75.9994C45.8024 76.8116 39.5718 75.5794 34.2087 72.4936C28.8457 69.4078 24.6492 64.6405 22.2686 58.9293C19.8881 53.2181 19.4563 46.8816 21.04 40.9002L17.32 39.3402C15.5046 45.7982 15.7647 52.6634 18.0634 58.9655C20.3622 65.2677 24.5834 70.688 30.1304 74.4605C35.6774 78.233 42.2697 80.1668 48.9756 79.9887C55.6815 79.8106 62.1619 77.5295 67.5009 73.4679C72.8398 69.4063 76.7673 63.7695 78.7282 57.3542C80.6892 50.939 80.5845 44.0697 78.4288 37.7171C76.2732 31.3646 72.1757 25.8502 66.7154 21.9532C61.2551 18.0563 54.7082 15.9738 48 16.0002Z" fill="#AA6CFF"/>
<path d="M26.9 43.4002C25.9018 47.9613 26.407 52.723 28.3401 56.9732C30.2731 61.2234 33.5301 64.7335 37.624 66.9787C41.7178 69.2239 46.4285 70.0834 51.0515 69.4288C55.6745 68.7741 59.9613 66.6405 63.2708 63.3469C66.5804 60.0533 68.7347 55.7769 69.4117 51.1571C70.0887 46.5373 69.2519 41.8225 67.0265 37.7179C64.8011 33.6132 61.3068 30.3393 57.066 28.3857C52.8252 26.4322 48.066 25.904 43.5 26.8802L44.74 30.0002C48.6247 29.2728 52.6403 29.8101 56.1971 31.533C59.754 33.256 62.6648 36.0738 64.5022 39.5729C66.3397 43.072 67.0069 47.068 66.406 50.9742C65.8051 54.8805 63.9677 58.4912 61.1636 61.2763C58.3595 64.0614 54.7364 65.8741 50.8262 66.4484C46.9159 67.0227 42.9246 66.3283 39.4381 64.467C35.9516 62.6058 33.1536 59.6759 31.4549 56.1074C29.7562 52.5389 29.2463 48.5198 30 44.6402L26.9 43.4002Z" fill="#AA6CFF"/>
<path d="M48 56.1798C45.9952 56.1501 44.0715 55.3834 42.596 54.0259C41.1204 52.6684 40.1963 50.8151 40 48.8198L36.74 47.4598V47.9998C36.7401 50.2556 37.4107 52.4605 38.6665 54.3345C39.9224 56.2084 41.7068 57.6668 43.7932 58.5245C45.8796 59.3822 48.1739 59.6004 50.3846 59.1515C52.5953 58.7026 54.6228 57.6068 56.2094 56.0033C57.796 54.3997 58.8703 52.3608 59.2958 50.1454C59.7212 47.9301 59.4787 45.6383 58.5989 43.561C57.7192 41.4838 56.2419 39.7149 54.3547 38.479C52.4676 37.2431 50.2557 36.596 48 36.6198H47.52L48.86 39.9998C50.859 40.3029 52.6736 41.3391 53.9505 42.9067C55.2275 44.4742 55.8754 46.4608 55.7681 48.4798C55.6607 50.4988 54.8059 52.4056 53.37 53.8289C51.9341 55.2522 50.0198 56.0902 48 56.1798Z" fill="#AA6CFF"/>
<path d="M28.4001 38.6804C28.5847 38.8689 28.8363 38.9767 29.1001 38.9804H36.4001L47.1401 49.7204C47.5167 50.0997 48.0286 50.3138 48.563 50.3157C49.0975 50.3176 49.6109 50.1071 49.9901 49.7304C50.3694 49.3538 50.5835 48.842 50.5854 48.3075C50.5872 47.773 50.3767 47.2597 50.0001 46.8804L39.0601 36.0004V29.0204C39.0564 28.7567 38.9485 28.5051 38.7601 28.3204L27.5801 17.1404C27.4403 17.0034 27.2634 16.9104 27.0713 16.873C26.8792 16.8355 26.6803 16.8553 26.4993 16.9298C26.3183 17.0043 26.1631 17.1304 26.0531 17.2922C25.943 17.4541 25.8829 17.6447 25.8801 17.8404V25.8404H18.0001C17.8044 25.8432 17.6138 25.9033 17.4519 26.0134C17.29 26.1234 17.164 26.2786 17.0895 26.4596C17.015 26.6406 16.9952 26.8395 17.0326 27.0316C17.0701 27.2238 17.1631 27.4007 17.3001 27.5404L28.4001 38.6804Z" fill="#AA6CFF"/>
</svg>
