<svg width="96" height="96" viewBox="0 0 96 96" fill="none" xmlns="http://www.w3.org/2000/svg">
<rect x="1.5" y="1.5" width="93" height="93" rx="8.5" stroke="#AA6CFF" stroke-width="3"/>
<path d="M75.9406 55.4649L63.0888 47.9851L75.6064 40.6339C76.8046 39.9744 77.8135 39.0186 78.5367 37.8579C79.4409 36.3888 79.8264 34.659 79.6316 32.945C79.4368 31.2309 78.6729 29.6317 77.462 28.4031C76.2511 27.1744 74.6632 26.3873 72.9522 26.1676C71.2412 25.9478 69.5059 26.3081 68.0239 27.1909L55.6604 34.5164V19.7111C55.6604 17.666 54.848 15.7046 53.4019 14.2585C51.9558 12.8124 49.9944 12 47.9493 12C45.9042 12 43.9429 12.8124 42.4967 14.2585C41.0506 15.7046 40.2382 17.666 40.2382 19.7111V34.5164L27.7719 27.1909C26.8956 26.6 25.9071 26.1956 24.8679 26.0027C23.8286 25.8099 22.7609 25.8328 21.7309 26.0699C20.7009 26.3071 19.7306 26.7535 18.8804 27.3814C18.0301 28.0093 17.318 28.8052 16.7883 29.7199C16.2586 30.6345 15.9226 31.6483 15.8011 32.6982C15.6796 33.7482 15.7753 34.8119 16.0822 35.8233C16.3891 36.8348 16.9006 37.7723 17.5851 38.5777C18.2695 39.3832 19.1122 40.0393 20.0608 40.5054L32.9127 47.9851L20.1894 55.3364C18.9912 55.9958 17.9823 56.9516 17.2591 58.1124C16.3673 59.5814 15.9917 61.3062 16.1921 63.013C16.3924 64.7199 17.1572 66.3109 18.365 67.5334C19.5728 68.756 21.1544 69.54 22.8586 69.7611C24.5629 69.9822 26.2922 69.6276 27.7719 68.7537L40.2382 61.4538V76.0021C40.1775 77.6452 40.6435 79.2647 41.5683 80.6242C42.4932 81.9837 43.8283 83.012 45.3789 83.559C46.5444 83.971 47.7918 84.0969 49.0161 83.9259C50.2403 83.7549 51.4056 83.292 52.4135 82.5764C53.4214 81.8608 54.2425 80.9133 54.8076 79.8139C55.3727 78.7144 55.6652 77.4953 55.6604 76.2591V61.4538L68.1267 68.7794C69.003 69.3703 69.9915 69.7747 71.0308 69.9675C72.07 70.1603 73.1377 70.1374 74.1677 69.9003C75.1978 69.6631 76.168 69.2167 77.0183 68.5889C77.8685 67.961 78.5806 67.165 79.1103 66.2504C79.64 65.3357 79.9761 64.3219 80.0975 63.272C80.219 62.222 80.1233 61.1583 79.8164 60.1469C79.5095 59.1355 78.998 58.1979 78.3136 57.3925C77.6291 56.5871 76.7864 55.931 75.8378 55.4649H75.9406ZM74.2699 63.4073C74.0998 63.6997 73.8737 63.9556 73.6045 64.1605C73.3353 64.3653 73.0284 64.515 72.7012 64.601C72.3741 64.6869 72.0332 64.7075 71.6981 64.6614C71.363 64.6154 71.0403 64.5037 70.7485 64.3326L50.5197 52.4833V76.2591C50.5197 76.9408 50.2489 77.5946 49.7668 78.0767C49.2848 78.5587 48.631 78.8295 47.9493 78.8295C47.2676 78.8295 46.6138 78.5587 46.1318 78.0767C45.6497 77.5946 45.3789 76.9408 45.3789 76.2591V52.4833L25.1502 64.3326C24.5703 64.5947 23.9139 64.6324 23.3079 64.4383C22.7018 64.2443 22.1893 63.8324 21.8695 63.2823C21.5497 62.7322 21.4453 62.083 21.5765 61.4604C21.7077 60.8377 22.0652 60.2859 22.5798 59.9116L42.8086 47.9851L22.5027 36.0586C22.175 35.9105 21.8819 35.6953 21.6426 35.4268C21.4033 35.1583 21.223 34.8426 21.1133 34.5001C21.0036 34.1576 20.9671 33.7958 21.006 33.4383C21.0449 33.0808 21.1584 32.7354 21.3392 32.4244C21.5199 32.1135 21.7639 31.844 22.0554 31.6333C22.3469 31.4226 22.6793 31.2754 23.0312 31.2012C23.3832 31.1271 23.7467 31.1276 24.0985 31.2028C24.4502 31.2779 24.7822 31.4261 25.0731 31.6376L45.3789 43.487V19.7111C45.3789 19.0294 45.6497 18.3756 46.1318 17.8936C46.6138 17.4115 47.2676 17.1407 47.9493 17.1407C48.631 17.1407 49.2848 17.4115 49.7668 17.8936C50.2489 18.3756 50.5197 19.0294 50.5197 19.7111V43.487L70.7485 31.6119C71.3283 31.3498 71.9848 31.3122 72.5908 31.5062C73.1968 31.7002 73.7093 32.1121 74.0291 32.6622C74.349 33.2123 74.4534 33.8615 74.3222 34.4842C74.1909 35.1068 73.8334 35.6587 73.3188 36.0329L53.09 47.9851L73.3959 59.9116C73.9708 60.2634 74.3845 60.8269 74.548 61.4807C74.7114 62.1345 74.6116 62.8264 74.2699 63.4073Z" fill="#AA6CFF"/>
</svg>
