<svg width="96" height="96" viewBox="0 0 96 96" fill="none" xmlns="http://www.w3.org/2000/svg">
<rect x="1.5" y="1.5" width="93" height="93" rx="8.5" stroke="#AA6CFF" stroke-width="3"/>
<path d="M55.2 70C55.2 69.4696 54.9892 68.9609 54.6142 68.5858C54.2391 68.2107 53.7304 68 53.2 68H41.2C40.6695 68 40.1608 68.2107 39.7857 68.5858C39.4107 68.9609 39.2 69.4696 39.2 70C39.2 70.5304 39.4107 71.0391 39.7857 71.4142C40.1608 71.7893 40.6695 72 41.2 72H53.2C53.7304 72 54.2391 71.7893 54.6142 71.4142C54.9892 71.0391 55.2 70.5304 55.2 70Z" fill="#AA6CFF"/>
<path d="M57.08 60H45.08C44.5495 60 44.0408 60.2107 43.6657 60.5858C43.2907 60.9609 43.08 61.4696 43.08 62C43.08 62.5304 43.2907 63.0391 43.6657 63.4142C44.0408 63.7893 44.5495 64 45.08 64H57.08C57.6104 64 58.1191 63.7893 58.4942 63.4142C58.8692 63.0391 59.08 62.5304 59.08 62C59.08 61.4696 58.8692 60.9609 58.4942 60.5858C58.1191 60.2107 57.6104 60 57.08 60Z" fill="#AA6CFF"/>
<path d="M56 76H44C43.4696 76 42.9609 76.2107 42.5858 76.5858C42.2107 76.9609 42 77.4696 42 78C42 78.5304 42.2107 79.0391 42.5858 79.4142C42.9609 79.7893 43.4696 80 44 80H56C56.5304 80 57.0391 79.7893 57.4142 79.4142C57.7893 79.0391 58 78.5304 58 78C58 77.4696 57.7893 76.9609 57.4142 76.5858C57.0391 76.2107 56.5304 76 56 76Z" fill="#AA6CFF"/>
<path d="M77.4 76H63.4C62.8696 76 62.3609 76.2107 61.9858 76.5858C61.6107 76.9609 61.4 77.4696 61.4 78C61.4 78.5304 61.6107 79.0391 61.9858 79.4142C62.3609 79.7893 62.8696 80 63.4 80H77.4C77.9305 80 78.4392 79.7893 78.8142 79.4142C79.1893 79.0391 79.4 78.5304 79.4 78C79.4 77.4696 79.1893 76.9609 78.8142 76.5858C78.4392 76.2107 77.9305 76 77.4 76Z" fill="#AA6CFF"/>
<path d="M79.4 68H65.4C64.8696 68 64.3609 68.2107 63.9858 68.5858C63.6107 68.9609 63.4 69.4696 63.4 70C63.4 70.5304 63.6107 71.0391 63.9858 71.4142C64.3609 71.7893 64.8696 72 65.4 72H79.4C79.9305 72 80.4392 71.7893 80.8142 71.4142C81.1893 71.0391 81.4 70.5304 81.4 70C81.4 69.4696 81.1893 68.9609 80.8142 68.5858C80.4392 68.2107 79.9305 68 79.4 68Z" fill="#AA6CFF"/>
<path d="M79.48 64C78.8938 56.9579 76.9801 50.0904 73.84 43.76C70.8318 38.0395 66.4977 33.1224 61.2 29.42L66 18.84C66.1547 18.5238 66.2233 18.1724 66.1987 17.8212C66.1741 17.47 66.0573 17.1316 65.86 16.84C65.6779 16.5842 65.4382 16.3749 65.1602 16.229C64.8823 16.0831 64.5739 16.0046 64.26 16H31.6C31.2637 15.9992 30.9327 16.0831 30.6376 16.2441C30.3424 16.405 30.0925 16.6378 29.9111 16.9209C29.7297 17.204 29.6226 17.5282 29.5997 17.8636C29.5767 18.1991 29.6388 18.5349 29.78 18.84L34.68 29.46C29.4209 33.1659 25.1163 38.0668 22.12 43.76C17.82 51.76 16.48 61.54 16.12 68.32C16.061 69.3126 16.2083 70.3066 16.5525 71.2394C16.8967 72.1722 17.4304 73.0236 18.12 73.74C18.8447 74.4439 19.7028 74.9958 20.6439 75.3633C21.585 75.7308 22.59 75.9065 23.6 75.88H36V72H23.44C22.9873 71.9986 22.5397 71.9057 22.1238 71.727C21.708 71.5483 21.3325 71.2874 21.02 70.96C20.707 70.6352 20.4653 70.2486 20.3103 69.825C20.1553 69.4014 20.0905 68.9501 20.12 68.5C20.4 63.28 21.5 53.34 25.64 45.6C28.5584 40.0542 32.874 35.3663 38.16 32H40.16C38.8047 33.8749 37.556 35.8247 36.42 37.84C35.2629 39.9845 34.2798 42.2183 33.48 44.52L36.22 46.36C37.0295 43.972 38.0259 41.6515 39.2 39.42C40.6417 36.8253 42.2798 34.3448 44.1 32H46.1C47.4416 35.2068 48.3886 38.5647 48.92 42C49.3544 44.5502 49.5685 47.1331 49.56 49.72L52.72 47.5C52.6319 45.4886 52.4181 43.4847 52.08 41.5C51.5433 38.2564 50.6858 35.0741 49.52 32H51.08L52.9 28H38.42L34.72 20H61.14L56.14 30.94C56.997 31.3991 57.8193 31.9205 58.6 32.5C63.5003 35.8808 67.5192 40.3866 70.32 45.64C73.1253 51.4004 74.8666 57.6203 75.46 64H79.48Z" fill="#AA6CFF"/>
</svg>
