<svg width="96" height="96" viewBox="0 0 96 96" fill="none" xmlns="http://www.w3.org/2000/svg">
<rect x="1.5" y="1.5" width="93" height="93" rx="8.5" stroke="#AA6CFF" stroke-width="3"/>
<path d="M74.9399 19.6804C73.0178 17.7804 70.4907 16.614 67.7979 16.3838C65.105 16.1536 62.4167 16.8742 60.2 18.4204C67.3255 21.3871 73.1464 26.8176 76.5999 33.7204C77.933 31.5316 78.4939 28.959 78.193 26.4139C77.892 23.8688 76.7467 21.498 74.9399 19.6804Z" fill="#AA6CFF"/>
<path d="M34.8399 18.8598C32.6324 17.1065 29.8595 16.222 27.0445 16.373C24.2295 16.5241 21.5671 17.7003 19.5599 19.6798C17.5693 21.6836 16.3903 24.353 16.25 27.174C16.1097 29.9951 17.0179 32.7683 18.7999 34.9598C22.009 27.8198 27.712 22.0955 34.8399 18.8598Z" fill="#AA6CFF"/>
<path d="M44.8 20.1804C39.5783 20.7904 34.6337 22.8581 30.5323 26.147C26.4308 29.4359 23.3381 33.8131 21.6082 38.7776C19.8782 43.7421 19.5809 49.0933 20.7502 54.2189C21.9195 59.3445 24.5082 64.0373 28.22 67.7604L23.12 72.8604C22.9349 73.0495 22.7887 73.2732 22.69 73.5188C22.5913 73.7643 22.542 74.0269 22.5448 74.2916C22.5475 74.5562 22.6024 74.8177 22.7063 75.0612C22.8101 75.3046 22.9609 75.5252 23.15 75.7104C23.3391 75.8955 23.5628 76.0416 23.8084 76.1403C24.054 76.239 24.3166 76.2884 24.5812 76.2856C24.8459 76.2828 25.1074 76.228 25.3508 76.1241C25.5943 76.0203 25.8149 75.8695 26 75.6804L31.32 70.3604C36.1851 74.0419 42.1261 76.0208 48.2271 75.9919C54.328 75.963 60.2501 73.9279 65.08 70.2004L70.56 75.6804C70.9426 76.008 71.4348 76.1792 71.9381 76.1598C72.4415 76.1404 72.919 75.9317 73.2751 75.5755C73.6313 75.2193 73.84 74.7418 73.8594 74.2385C73.8789 73.7351 73.7077 73.243 73.38 72.8604L68 67.5604C72.0373 63.4248 74.6959 58.1412 75.611 52.4347C76.5262 46.7281 75.653 40.8781 73.1114 35.6875C70.5698 30.4969 66.4842 26.2199 61.4153 23.4435C56.3464 20.6671 50.5425 19.5272 44.8 20.1804ZM51.16 71.8004C46.1892 72.4514 41.1393 71.5295 36.7191 69.1641C32.299 66.7986 28.7306 63.1084 26.5148 58.6114C24.299 54.1144 23.547 49.0364 24.3645 44.0902C25.1819 39.144 27.5278 34.578 31.0727 31.033C34.6176 27.4881 39.1836 25.1423 44.1298 24.3248C49.076 23.5074 54.154 24.2593 58.651 26.4751C63.148 28.6909 66.8383 32.2594 69.2037 36.6795C71.5692 41.0996 72.4911 46.1495 71.84 51.1204C71.1532 56.3643 68.7535 61.2345 65.0138 64.9742C61.2741 68.7139 56.4039 71.1136 51.16 71.8004Z" fill="#AA6CFF"/>
<path d="M61.8401 52.6802L49.7201 46.6802V31.0002C49.7201 30.5228 49.5305 30.065 49.1929 29.7274C48.8553 29.3898 48.3975 29.2002 47.9201 29.2002C47.4427 29.2002 46.9849 29.3898 46.6473 29.7274C46.3098 30.065 46.1201 30.5228 46.1201 31.0002V49.0002L60.2401 56.0002C60.6698 56.2097 61.1651 56.24 61.617 56.0843C62.069 55.9287 62.4406 55.5998 62.6501 55.1702C62.8596 54.7405 62.8899 54.2453 62.7342 53.7933C62.5786 53.3413 62.2498 52.9697 61.8201 52.7602L61.8401 52.6802Z" fill="#AA6CFF"/>
</svg>
