<svg width="96" height="96" viewBox="0 0 96 96" fill="none" xmlns="http://www.w3.org/2000/svg">
<rect x="1.5" y="1.5" width="93" height="93" rx="8.5" stroke="#AA6CFF" stroke-width="3"/>
<path d="M47.8 46.5992C53.2 46.5992 57.4 42.1992 57.4 36.7992C57.4 31.3992 53 27.1992 47.6 27.1992C42.2 27.1992 38 31.5992 38 36.7992C38 42.1992 42.4 46.5992 47.8 46.5992ZM47.6 31.1992C47.8 31.1992 47.8 31.1992 47.6 31.1992C50.8 31.1992 53.4 33.7992 53.4 36.9992C53.4 40.1992 50.8 42.5992 47.6 42.5992C44.4 42.5992 42 39.9992 42 36.9992C42 33.7992 44.6 31.1992 47.6 31.1992Z" fill="#AA6CFF"/>
<path d="M77.4 45.3998C73.6 41.9998 68.6 40.1998 63.4 40.3998H61.8C61.4 41.9998 60.8 43.3998 60 44.5998C61.2 44.3998 62.2 44.3998 63.4 44.3998C67.2 44.1998 71 45.3998 74 47.5998V61.9998H78V45.9998L77.4 45.3998Z" fill="#AA6CFF"/>
<path d="M58.8 27.5996C59.8 25.1996 62.6 23.9996 65.2 24.9996C67.6 25.9996 68.8 28.7996 67.8 31.3996C67 33.1996 65.2 34.3996 63.4 34.3996C63 34.3996 62.4 34.3996 62 34.1996C62.2 35.1996 62.2 36.1996 62.2 36.9996V38.1996C62.6 38.1996 63 38.3996 63.4 38.3996C68.4 38.3996 72.4 34.3996 72.4 29.5996C72.4 24.5996 68.4 20.5996 63.6 20.5996C60.4 20.5996 57.6 22.1996 56 24.9996C57 25.5996 58 26.3996 58.8 27.5996Z" fill="#AA6CFF"/>
<path d="M36 44.7991C35.2 43.5991 34.6 42.1991 34.2 40.5991H32.6C27.4 40.3991 22.4 42.1991 18.6 45.3991L18 45.9991V61.9991H22V47.5991C25.2 45.3991 28.8 44.1991 32.6 44.3991C33.8 44.3991 35 44.5991 36 44.7991Z" fill="#AA6CFF"/>
<path d="M32.6 38.2003C33 38.2003 33.4 38.2003 33.8 38.0003V36.8003C33.8 35.8003 33.8 34.8003 34 34.0003C33.6 34.2003 33 34.2003 32.6 34.2003C30 34.2003 27.8 32.0003 27.8 29.4003C27.8 26.8003 30 24.6003 32.6 24.6003C34.6 24.6003 36.4 25.8003 37.2 27.6003C38 26.6003 39.2 25.6003 40.2 24.8003C37.6 20.6003 32.2 19.2003 28 21.8003C23.8 24.4003 22.4 29.8003 25 34.0003C26.6 36.6003 29.4 38.2003 32.6 38.2003Z" fill="#AA6CFF"/>
<path d="M64.2 57.399L63.8 56.799C59.8 52.399 54.2 49.799 48.2 49.999C42.2 49.799 36.4 52.399 32.4 56.799L32 57.399V72.599C32 74.399 33.4 75.999 35.4 75.999H61C62.8 75.999 64.4 74.399 64.4 72.599V57.399H64.2ZM60.2 71.999H36V58.799C39.2 55.599 43.6 53.999 48.2 53.999C52.6 53.799 57 55.599 60.2 58.799V71.999Z" fill="#AA6CFF"/>
</svg>
