<svg width="96" height="96" viewBox="0 0 96 96" fill="none" xmlns="http://www.w3.org/2000/svg">
<path d="M80 72H16C15.4696 72 14.9609 72.2107 14.5858 72.5858C14.2107 72.9609 14 73.4696 14 74C14 74.5304 14.2107 75.0391 14.5858 75.4142C14.9609 75.7893 15.4696 76 16 76H80C80.5304 76 81.0391 75.7893 81.4142 75.4142C81.7893 75.0391 82 74.5304 82 74C82 73.4696 81.7893 72.9609 81.4142 72.5858C81.0391 72.2107 80.5304 72 80 72Z" fill="#AA6CFF"/>
<path d="M44 22C44 21.4696 43.7893 20.9609 43.4142 20.5858C43.0391 20.2107 42.5304 20 42 20H26C25.4696 20 24.9609 20.2107 24.5858 20.5858C24.2107 20.9609 24 21.4696 24 22V68H44V22ZM40 64H28V24H40V64Z" fill="#AA6CFF"/>
<path d="M72 38C72 37.4696 71.7893 36.9609 71.4142 36.5858C71.0391 36.2107 70.5304 36 70 36H54C53.4696 36 52.9609 36.2107 52.5858 36.5858C52.2107 36.9609 52 37.4696 52 38V68H72V38ZM68 64H56V40H68V64Z" fill="#AA6CFF"/>
<rect x="1.5" y="1.5" width="93" height="93" rx="8.5" stroke="#AA6CFF" stroke-width="3"/>
</svg>
